<?xml version="1.0" encoding="UTF-8" standalone="no"?>
<svg
   width="11mm"
   height="11mm"
   viewBox="0 0 11 11"
   version="1.1"
   id="svg5"
   sodipodi:docname="Logo.svg"
   inkscape:version="1.1 (c68e22c387, 2021-05-23)"
   inkscape:export-filename="C:\Users\chsupark\Workspace\Lyrae\pcb\Logo.png"
   inkscape:export-xdpi="300"
   inkscape:export-ydpi="300"
   xmlns:inkscape="http://www.inkscape.org/namespaces/inkscape"
   xmlns:sodipodi="http://sodipodi.sourceforge.net/DTD/sodipodi-0.dtd"
   xmlns="http://www.w3.org/2000/svg"
   xmlns:svg="http://www.w3.org/2000/svg">
  <sodipodi:namedview
     id="namedview222"
     pagecolor="#ffffff"
     bordercolor="#666666"
     borderopacity="1.0"
     inkscape:pageshadow="2"
     inkscape:pageopacity="0.0"
     inkscape:pagecheckerboard="0"
     inkscape:document-units="mm"
     showgrid="false"
     inkscape:zoom="20.998295"
     inkscape:cx="17.501421"
     inkscape:cy="20.787402"
     inkscape:window-width="2560"
     inkscape:window-height="1361"
     inkscape:window-x="-9"
     inkscape:window-y="-9"
     inkscape:window-maximized="1"
     inkscape:current-layer="SilkS" />
  <defs
     id="defs2">
    <style
       id="style23">.cls-1{fill:#000;}</style>
  </defs>
  <g
     inkscape:groupmode="layer"
     id="SilkS"
     inkscape:label="SilkS"
     style="display:inline">
    <path
       id="path27"
       d="M 5.4999991,0.55813944 A 4.943255,4.943255 0 0 1 7.4234871,10.053719 4.9432959,4.9432959 0 0 1 3.576511,0.94627891 4.9130224,4.9130224 0 0 1 5.4999991,0.55813944 M 5.4999991,0 C 2.4623252,0 0,2.4623252 0,5.4999991 0,8.537673 2.4623252,10.999998 5.4999991,10.999998 c 3.0376739,0 5.4999989,-2.462325 5.4999989,-5.4999989 C 10.999998,2.4623252 8.537673,0 5.4999991,0 Z"
       style="color:#000000;fill:#000000;stroke-width:0.0232558;-inkscape-stroke:none" />
    <path
       id="path29"
       d="M 7.0539523,2.1120927 A 3.3879064,3.3879064 0 1 1 4.6586039,3.1044181 3.3660459,3.3660459 0 0 1 7.0539523,2.1120927 m 0,-0.5581395 A 3.9460458,3.9460458 0 1 0 10.999998,5.4999991 3.9460458,3.9460458 0 0 0 7.0539523,1.5539532 Z"
       style="color:#000000;fill:#000000;stroke-width:0.0232558;-inkscape-stroke:none" />
    <path
       id="path31"
       d="M 5.4725572,3.6818598 A 1.8065113,1.8065113 0 1 1 3.6660459,5.4883712 1.8086043,1.8086043 0 0 1 5.4725572,3.6818598 m 0,-0.5581394 A 2.3646508,2.3646508 0 1 0 7.837208,5.4883712 2.3646508,2.3646508 0 0 0 5.4725572,3.1237204 Z"
       style="color:#000000;fill:#000000;stroke-width:0.0232558;-inkscape-stroke:none" />
  </g>
</svg>
