%TF.GenerationSoftware,KiCad,Pcbnew,(5.1.10)-1*%
%TF.CreationDate,2021-08-03T09:54:15+09:00*%
%TF.ProjectId,bottom,626f7474-6f6d-42e6-9b69-6361645f7063,rev?*%
%TF.SameCoordinates,Original*%
%TF.FileFunction,Copper,L1,Top*%
%TF.FilePolarity,Positive*%
%FSLAX46Y46*%
G04 Gerber Fmt 4.6, Leading zero omitted, Abs format (unit mm)*
G04 Created by KiCad (PCBNEW (5.1.10)-1) date 2021-08-03 09:54:15*
%MOMM*%
%LPD*%
G01*
G04 APERTURE LIST*
%TA.AperFunction,ComponentPad*%
%ADD10C,4.400000*%
%TD*%
%TA.AperFunction,Conductor*%
%ADD11C,0.254000*%
%TD*%
%TA.AperFunction,Conductor*%
%ADD12C,0.100000*%
%TD*%
G04 APERTURE END LIST*
D10*
%TO.P,H4,1*%
%TO.N,GND*%
X186738840Y-121444580D03*
%TD*%
%TO.P,H3,1*%
%TO.N,GND*%
X168879390Y-80963160D03*
%TD*%
%TO.P,H2,1*%
%TO.N,GND*%
X92679070Y-119063320D03*
%TD*%
%TO.P,H1,1*%
%TO.N,GND*%
X92679070Y-80963160D03*
%TD*%
D11*
%TO.N,GND*%
X206039537Y-62607302D02*
X206097776Y-62624885D01*
X206151491Y-62653446D01*
X206198636Y-62691896D01*
X206237414Y-62738771D01*
X206266348Y-62792284D01*
X206284339Y-62850403D01*
X206293990Y-62942225D01*
X206293991Y-137079565D01*
X206284768Y-137173626D01*
X206267184Y-137231867D01*
X206238625Y-137285580D01*
X206200173Y-137332726D01*
X206153300Y-137371503D01*
X206099786Y-137400438D01*
X206041667Y-137418429D01*
X205949836Y-137428081D01*
X74662495Y-137428079D01*
X74568444Y-137418857D01*
X74510203Y-137401273D01*
X74456490Y-137372714D01*
X74409344Y-137334262D01*
X74370567Y-137287389D01*
X74341632Y-137233875D01*
X74323641Y-137175756D01*
X74313990Y-137083934D01*
X74313990Y-123434355D01*
X184928670Y-123434355D01*
X185168816Y-123821598D01*
X185662717Y-124082221D01*
X186197973Y-124241481D01*
X186754014Y-124293258D01*
X187309472Y-124235561D01*
X187843001Y-124070608D01*
X188308864Y-123821598D01*
X188549010Y-123434355D01*
X186738840Y-121624185D01*
X184928670Y-123434355D01*
X74313990Y-123434355D01*
X74313990Y-121053095D01*
X90868900Y-121053095D01*
X91109046Y-121440338D01*
X91602947Y-121700961D01*
X92138203Y-121860221D01*
X92694244Y-121911998D01*
X93249702Y-121854301D01*
X93783231Y-121689348D01*
X94212769Y-121459754D01*
X183890162Y-121459754D01*
X183947859Y-122015212D01*
X184112812Y-122548741D01*
X184361822Y-123014604D01*
X184749065Y-123254750D01*
X186559235Y-121444580D01*
X186918445Y-121444580D01*
X188728615Y-123254750D01*
X189115858Y-123014604D01*
X189376481Y-122520703D01*
X189535741Y-121985447D01*
X189587518Y-121429406D01*
X189529821Y-120873948D01*
X189364868Y-120340419D01*
X189115858Y-119874556D01*
X188728615Y-119634410D01*
X186918445Y-121444580D01*
X186559235Y-121444580D01*
X184749065Y-119634410D01*
X184361822Y-119874556D01*
X184101199Y-120368457D01*
X183941939Y-120903713D01*
X183890162Y-121459754D01*
X94212769Y-121459754D01*
X94249094Y-121440338D01*
X94489240Y-121053095D01*
X92679070Y-119242925D01*
X90868900Y-121053095D01*
X74313990Y-121053095D01*
X74313990Y-119078494D01*
X89830392Y-119078494D01*
X89888089Y-119633952D01*
X90053042Y-120167481D01*
X90302052Y-120633344D01*
X90689295Y-120873490D01*
X92499465Y-119063320D01*
X92858675Y-119063320D01*
X94668845Y-120873490D01*
X95056088Y-120633344D01*
X95316711Y-120139443D01*
X95475971Y-119604187D01*
X95489881Y-119454805D01*
X184928670Y-119454805D01*
X186738840Y-121264975D01*
X188549010Y-119454805D01*
X188308864Y-119067562D01*
X187814963Y-118806939D01*
X187279707Y-118647679D01*
X186723666Y-118595902D01*
X186168208Y-118653599D01*
X185634679Y-118818552D01*
X185168816Y-119067562D01*
X184928670Y-119454805D01*
X95489881Y-119454805D01*
X95527748Y-119048146D01*
X95470051Y-118492688D01*
X95305098Y-117959159D01*
X95056088Y-117493296D01*
X94668845Y-117253150D01*
X92858675Y-119063320D01*
X92499465Y-119063320D01*
X90689295Y-117253150D01*
X90302052Y-117493296D01*
X90041429Y-117987197D01*
X89882169Y-118522453D01*
X89830392Y-119078494D01*
X74313990Y-119078494D01*
X74313990Y-117073545D01*
X90868900Y-117073545D01*
X92679070Y-118883715D01*
X94489240Y-117073545D01*
X94249094Y-116686302D01*
X93755193Y-116425679D01*
X93219937Y-116266419D01*
X92663896Y-116214642D01*
X92108438Y-116272339D01*
X91574909Y-116437292D01*
X91109046Y-116686302D01*
X90868900Y-117073545D01*
X74313990Y-117073545D01*
X74313990Y-82952935D01*
X90868900Y-82952935D01*
X91109046Y-83340178D01*
X91602947Y-83600801D01*
X92138203Y-83760061D01*
X92694244Y-83811838D01*
X93249702Y-83754141D01*
X93783231Y-83589188D01*
X94249094Y-83340178D01*
X94489240Y-82952935D01*
X167069220Y-82952935D01*
X167309366Y-83340178D01*
X167803267Y-83600801D01*
X168338523Y-83760061D01*
X168894564Y-83811838D01*
X169450022Y-83754141D01*
X169983551Y-83589188D01*
X170449414Y-83340178D01*
X170689560Y-82952935D01*
X168879390Y-81142765D01*
X167069220Y-82952935D01*
X94489240Y-82952935D01*
X92679070Y-81142765D01*
X90868900Y-82952935D01*
X74313990Y-82952935D01*
X74313990Y-80978334D01*
X89830392Y-80978334D01*
X89888089Y-81533792D01*
X90053042Y-82067321D01*
X90302052Y-82533184D01*
X90689295Y-82773330D01*
X92499465Y-80963160D01*
X92858675Y-80963160D01*
X94668845Y-82773330D01*
X95056088Y-82533184D01*
X95316711Y-82039283D01*
X95475971Y-81504027D01*
X95524922Y-80978334D01*
X166030712Y-80978334D01*
X166088409Y-81533792D01*
X166253362Y-82067321D01*
X166502372Y-82533184D01*
X166889615Y-82773330D01*
X168699785Y-80963160D01*
X169058995Y-80963160D01*
X170869165Y-82773330D01*
X171256408Y-82533184D01*
X171517031Y-82039283D01*
X171676291Y-81504027D01*
X171728068Y-80947986D01*
X171670371Y-80392528D01*
X171505418Y-79858999D01*
X171256408Y-79393136D01*
X170869165Y-79152990D01*
X169058995Y-80963160D01*
X168699785Y-80963160D01*
X166889615Y-79152990D01*
X166502372Y-79393136D01*
X166241749Y-79887037D01*
X166082489Y-80422293D01*
X166030712Y-80978334D01*
X95524922Y-80978334D01*
X95527748Y-80947986D01*
X95470051Y-80392528D01*
X95305098Y-79858999D01*
X95056088Y-79393136D01*
X94668845Y-79152990D01*
X92858675Y-80963160D01*
X92499465Y-80963160D01*
X90689295Y-79152990D01*
X90302052Y-79393136D01*
X90041429Y-79887037D01*
X89882169Y-80422293D01*
X89830392Y-80978334D01*
X74313990Y-80978334D01*
X74313990Y-78973385D01*
X90868900Y-78973385D01*
X92679070Y-80783555D01*
X94489240Y-78973385D01*
X167069220Y-78973385D01*
X168879390Y-80783555D01*
X170689560Y-78973385D01*
X170449414Y-78586142D01*
X169955513Y-78325519D01*
X169420257Y-78166259D01*
X168864216Y-78114482D01*
X168308758Y-78172179D01*
X167775229Y-78337132D01*
X167309366Y-78586142D01*
X167069220Y-78973385D01*
X94489240Y-78973385D01*
X94249094Y-78586142D01*
X93755193Y-78325519D01*
X93219937Y-78166259D01*
X92663896Y-78114482D01*
X92108438Y-78172179D01*
X91574909Y-78337132D01*
X91109046Y-78586142D01*
X90868900Y-78973385D01*
X74313990Y-78973385D01*
X74313990Y-62946585D01*
X74323212Y-62852533D01*
X74340795Y-62794294D01*
X74369356Y-62740579D01*
X74407806Y-62693434D01*
X74454681Y-62654656D01*
X74508194Y-62625722D01*
X74566313Y-62607731D01*
X74658135Y-62598080D01*
X205945485Y-62598080D01*
X206039537Y-62607302D01*
%TA.AperFunction,Conductor*%
D12*
G36*
X206039537Y-62607302D02*
G01*
X206097776Y-62624885D01*
X206151491Y-62653446D01*
X206198636Y-62691896D01*
X206237414Y-62738771D01*
X206266348Y-62792284D01*
X206284339Y-62850403D01*
X206293990Y-62942225D01*
X206293991Y-137079565D01*
X206284768Y-137173626D01*
X206267184Y-137231867D01*
X206238625Y-137285580D01*
X206200173Y-137332726D01*
X206153300Y-137371503D01*
X206099786Y-137400438D01*
X206041667Y-137418429D01*
X205949836Y-137428081D01*
X74662495Y-137428079D01*
X74568444Y-137418857D01*
X74510203Y-137401273D01*
X74456490Y-137372714D01*
X74409344Y-137334262D01*
X74370567Y-137287389D01*
X74341632Y-137233875D01*
X74323641Y-137175756D01*
X74313990Y-137083934D01*
X74313990Y-123434355D01*
X184928670Y-123434355D01*
X185168816Y-123821598D01*
X185662717Y-124082221D01*
X186197973Y-124241481D01*
X186754014Y-124293258D01*
X187309472Y-124235561D01*
X187843001Y-124070608D01*
X188308864Y-123821598D01*
X188549010Y-123434355D01*
X186738840Y-121624185D01*
X184928670Y-123434355D01*
X74313990Y-123434355D01*
X74313990Y-121053095D01*
X90868900Y-121053095D01*
X91109046Y-121440338D01*
X91602947Y-121700961D01*
X92138203Y-121860221D01*
X92694244Y-121911998D01*
X93249702Y-121854301D01*
X93783231Y-121689348D01*
X94212769Y-121459754D01*
X183890162Y-121459754D01*
X183947859Y-122015212D01*
X184112812Y-122548741D01*
X184361822Y-123014604D01*
X184749065Y-123254750D01*
X186559235Y-121444580D01*
X186918445Y-121444580D01*
X188728615Y-123254750D01*
X189115858Y-123014604D01*
X189376481Y-122520703D01*
X189535741Y-121985447D01*
X189587518Y-121429406D01*
X189529821Y-120873948D01*
X189364868Y-120340419D01*
X189115858Y-119874556D01*
X188728615Y-119634410D01*
X186918445Y-121444580D01*
X186559235Y-121444580D01*
X184749065Y-119634410D01*
X184361822Y-119874556D01*
X184101199Y-120368457D01*
X183941939Y-120903713D01*
X183890162Y-121459754D01*
X94212769Y-121459754D01*
X94249094Y-121440338D01*
X94489240Y-121053095D01*
X92679070Y-119242925D01*
X90868900Y-121053095D01*
X74313990Y-121053095D01*
X74313990Y-119078494D01*
X89830392Y-119078494D01*
X89888089Y-119633952D01*
X90053042Y-120167481D01*
X90302052Y-120633344D01*
X90689295Y-120873490D01*
X92499465Y-119063320D01*
X92858675Y-119063320D01*
X94668845Y-120873490D01*
X95056088Y-120633344D01*
X95316711Y-120139443D01*
X95475971Y-119604187D01*
X95489881Y-119454805D01*
X184928670Y-119454805D01*
X186738840Y-121264975D01*
X188549010Y-119454805D01*
X188308864Y-119067562D01*
X187814963Y-118806939D01*
X187279707Y-118647679D01*
X186723666Y-118595902D01*
X186168208Y-118653599D01*
X185634679Y-118818552D01*
X185168816Y-119067562D01*
X184928670Y-119454805D01*
X95489881Y-119454805D01*
X95527748Y-119048146D01*
X95470051Y-118492688D01*
X95305098Y-117959159D01*
X95056088Y-117493296D01*
X94668845Y-117253150D01*
X92858675Y-119063320D01*
X92499465Y-119063320D01*
X90689295Y-117253150D01*
X90302052Y-117493296D01*
X90041429Y-117987197D01*
X89882169Y-118522453D01*
X89830392Y-119078494D01*
X74313990Y-119078494D01*
X74313990Y-117073545D01*
X90868900Y-117073545D01*
X92679070Y-118883715D01*
X94489240Y-117073545D01*
X94249094Y-116686302D01*
X93755193Y-116425679D01*
X93219937Y-116266419D01*
X92663896Y-116214642D01*
X92108438Y-116272339D01*
X91574909Y-116437292D01*
X91109046Y-116686302D01*
X90868900Y-117073545D01*
X74313990Y-117073545D01*
X74313990Y-82952935D01*
X90868900Y-82952935D01*
X91109046Y-83340178D01*
X91602947Y-83600801D01*
X92138203Y-83760061D01*
X92694244Y-83811838D01*
X93249702Y-83754141D01*
X93783231Y-83589188D01*
X94249094Y-83340178D01*
X94489240Y-82952935D01*
X167069220Y-82952935D01*
X167309366Y-83340178D01*
X167803267Y-83600801D01*
X168338523Y-83760061D01*
X168894564Y-83811838D01*
X169450022Y-83754141D01*
X169983551Y-83589188D01*
X170449414Y-83340178D01*
X170689560Y-82952935D01*
X168879390Y-81142765D01*
X167069220Y-82952935D01*
X94489240Y-82952935D01*
X92679070Y-81142765D01*
X90868900Y-82952935D01*
X74313990Y-82952935D01*
X74313990Y-80978334D01*
X89830392Y-80978334D01*
X89888089Y-81533792D01*
X90053042Y-82067321D01*
X90302052Y-82533184D01*
X90689295Y-82773330D01*
X92499465Y-80963160D01*
X92858675Y-80963160D01*
X94668845Y-82773330D01*
X95056088Y-82533184D01*
X95316711Y-82039283D01*
X95475971Y-81504027D01*
X95524922Y-80978334D01*
X166030712Y-80978334D01*
X166088409Y-81533792D01*
X166253362Y-82067321D01*
X166502372Y-82533184D01*
X166889615Y-82773330D01*
X168699785Y-80963160D01*
X169058995Y-80963160D01*
X170869165Y-82773330D01*
X171256408Y-82533184D01*
X171517031Y-82039283D01*
X171676291Y-81504027D01*
X171728068Y-80947986D01*
X171670371Y-80392528D01*
X171505418Y-79858999D01*
X171256408Y-79393136D01*
X170869165Y-79152990D01*
X169058995Y-80963160D01*
X168699785Y-80963160D01*
X166889615Y-79152990D01*
X166502372Y-79393136D01*
X166241749Y-79887037D01*
X166082489Y-80422293D01*
X166030712Y-80978334D01*
X95524922Y-80978334D01*
X95527748Y-80947986D01*
X95470051Y-80392528D01*
X95305098Y-79858999D01*
X95056088Y-79393136D01*
X94668845Y-79152990D01*
X92858675Y-80963160D01*
X92499465Y-80963160D01*
X90689295Y-79152990D01*
X90302052Y-79393136D01*
X90041429Y-79887037D01*
X89882169Y-80422293D01*
X89830392Y-80978334D01*
X74313990Y-80978334D01*
X74313990Y-78973385D01*
X90868900Y-78973385D01*
X92679070Y-80783555D01*
X94489240Y-78973385D01*
X167069220Y-78973385D01*
X168879390Y-80783555D01*
X170689560Y-78973385D01*
X170449414Y-78586142D01*
X169955513Y-78325519D01*
X169420257Y-78166259D01*
X168864216Y-78114482D01*
X168308758Y-78172179D01*
X167775229Y-78337132D01*
X167309366Y-78586142D01*
X167069220Y-78973385D01*
X94489240Y-78973385D01*
X94249094Y-78586142D01*
X93755193Y-78325519D01*
X93219937Y-78166259D01*
X92663896Y-78114482D01*
X92108438Y-78172179D01*
X91574909Y-78337132D01*
X91109046Y-78586142D01*
X90868900Y-78973385D01*
X74313990Y-78973385D01*
X74313990Y-62946585D01*
X74323212Y-62852533D01*
X74340795Y-62794294D01*
X74369356Y-62740579D01*
X74407806Y-62693434D01*
X74454681Y-62654656D01*
X74508194Y-62625722D01*
X74566313Y-62607731D01*
X74658135Y-62598080D01*
X205945485Y-62598080D01*
X206039537Y-62607302D01*
G37*
%TD.AperFunction*%
%TD*%
M02*
