G04 #@! TF.GenerationSoftware,KiCad,Pcbnew,(5.1.10)-1*
G04 #@! TF.CreationDate,2021-08-18T20:56:21+09:00*
G04 #@! TF.ProjectId,Lyra,4c797261-2e6b-4696-9361-645f70636258,rev?*
G04 #@! TF.SameCoordinates,Original*
G04 #@! TF.FileFunction,Legend,Bot*
G04 #@! TF.FilePolarity,Positive*
%FSLAX46Y46*%
G04 Gerber Fmt 4.6, Leading zero omitted, Abs format (unit mm)*
G04 Created by KiCad (PCBNEW (5.1.10)-1) date 2021-08-18 20:56:21*
%MOMM*%
%LPD*%
G01*
G04 APERTURE LIST*
%ADD10C,0.100000*%
%ADD11C,0.120000*%
%ADD12C,0.010000*%
%ADD13C,0.150000*%
%ADD14O,1.702000X1.702000*%
%ADD15C,2.352000*%
%ADD16C,1.852000*%
%ADD17C,4.089800*%
%ADD18C,2.202000*%
%ADD19C,2.102000*%
%ADD20C,1.626000*%
%ADD21C,0.902000*%
%ADD22O,1.902000X1.302000*%
%ADD23C,2.302000*%
%ADD24C,3.150000*%
G04 APERTURE END LIST*
D10*
X112971578Y-125170467D02*
X113371578Y-125770467D01*
X113371578Y-125770467D02*
X113771578Y-125170467D01*
X113921578Y-125770467D02*
X112821578Y-125770467D01*
X113371578Y-126170467D02*
X113371578Y-125770467D01*
X113771578Y-125170467D02*
X112971578Y-125170467D01*
X113371578Y-125170467D02*
X113371578Y-124670467D01*
D11*
X114371578Y-127670467D02*
X112371578Y-127670467D01*
X114371578Y-127670467D02*
X114371578Y-123170467D01*
X112371578Y-127670467D02*
X112371578Y-123170467D01*
X113371578Y-129230467D02*
X113371578Y-127670467D01*
X114371578Y-123170467D02*
X112371578Y-123170467D01*
X113371578Y-121610467D02*
X113371578Y-123170467D01*
D10*
X93921578Y-125170467D02*
X94321578Y-125770467D01*
X94321578Y-125770467D02*
X94721578Y-125170467D01*
X94871578Y-125770467D02*
X93771578Y-125770467D01*
X94321578Y-126170467D02*
X94321578Y-125770467D01*
X94721578Y-125170467D02*
X93921578Y-125170467D01*
X94321578Y-125170467D02*
X94321578Y-124670467D01*
D11*
X95321578Y-127670467D02*
X93321578Y-127670467D01*
X95321578Y-127670467D02*
X95321578Y-123170467D01*
X93321578Y-127670467D02*
X93321578Y-123170467D01*
X94321578Y-129230467D02*
X94321578Y-127670467D01*
X95321578Y-123170467D02*
X93321578Y-123170467D01*
X94321578Y-121610467D02*
X94321578Y-123170467D01*
D10*
X192091430Y-125670467D02*
X191691430Y-125070467D01*
X191691430Y-125070467D02*
X191291430Y-125670467D01*
X191141430Y-125070467D02*
X192241430Y-125070467D01*
X191691430Y-124670467D02*
X191691430Y-125070467D01*
X191291430Y-125670467D02*
X192091430Y-125670467D01*
X191691430Y-125670467D02*
X191691430Y-126170467D01*
D11*
X190691430Y-123170467D02*
X192691430Y-123170467D01*
X190691430Y-123170467D02*
X190691430Y-127670467D01*
X192691430Y-123170467D02*
X192691430Y-127670467D01*
X191691430Y-121610467D02*
X191691430Y-123170467D01*
X190691430Y-127670467D02*
X192691430Y-127670467D01*
X191691430Y-129230467D02*
X191691430Y-127670467D01*
D10*
X171462203Y-116295467D02*
X172062203Y-115895467D01*
X172062203Y-115895467D02*
X171462203Y-115495467D01*
X172062203Y-115345467D02*
X172062203Y-116445467D01*
X172462203Y-115895467D02*
X172062203Y-115895467D01*
X171462203Y-115495467D02*
X171462203Y-116295467D01*
X171462203Y-115895467D02*
X170962203Y-115895467D01*
D11*
X173962203Y-114895467D02*
X173962203Y-116895467D01*
X173962203Y-114895467D02*
X169462203Y-114895467D01*
X173962203Y-116895467D02*
X169462203Y-116895467D01*
X175522203Y-115895467D02*
X173962203Y-115895467D01*
X169462203Y-114895467D02*
X169462203Y-116895467D01*
X167902203Y-115895467D02*
X169462203Y-115895467D01*
D10*
X154332203Y-125670467D02*
X153932203Y-125070467D01*
X153932203Y-125070467D02*
X153532203Y-125670467D01*
X153382203Y-125070467D02*
X154482203Y-125070467D01*
X153932203Y-124670467D02*
X153932203Y-125070467D01*
X153532203Y-125670467D02*
X154332203Y-125670467D01*
X153932203Y-125670467D02*
X153932203Y-126170467D01*
D11*
X152932203Y-123170467D02*
X154932203Y-123170467D01*
X152932203Y-123170467D02*
X152932203Y-127670467D01*
X154932203Y-123170467D02*
X154932203Y-127670467D01*
X153932203Y-121610467D02*
X153932203Y-123170467D01*
X152932203Y-127670467D02*
X154932203Y-127670467D01*
X153932203Y-129230467D02*
X153932203Y-127670467D01*
D10*
X151071578Y-125170467D02*
X151471578Y-125770467D01*
X151471578Y-125770467D02*
X151871578Y-125170467D01*
X152021578Y-125770467D02*
X150921578Y-125770467D01*
X151471578Y-126170467D02*
X151471578Y-125770467D01*
X151871578Y-125170467D02*
X151071578Y-125170467D01*
X151471578Y-125170467D02*
X151471578Y-124670467D01*
D11*
X152471578Y-127670467D02*
X150471578Y-127670467D01*
X152471578Y-127670467D02*
X152471578Y-123170467D01*
X150471578Y-127670467D02*
X150471578Y-123170467D01*
X151471578Y-129230467D02*
X151471578Y-127670467D01*
X152471578Y-123170467D02*
X150471578Y-123170467D01*
X151471578Y-121610467D02*
X151471578Y-123170467D01*
D10*
X132021578Y-125170467D02*
X132421578Y-125770467D01*
X132421578Y-125770467D02*
X132821578Y-125170467D01*
X132971578Y-125770467D02*
X131871578Y-125770467D01*
X132421578Y-126170467D02*
X132421578Y-125770467D01*
X132821578Y-125170467D02*
X132021578Y-125170467D01*
X132421578Y-125170467D02*
X132421578Y-124670467D01*
D11*
X133421578Y-127670467D02*
X131421578Y-127670467D01*
X133421578Y-127670467D02*
X133421578Y-123170467D01*
X131421578Y-127670467D02*
X131421578Y-123170467D01*
X132421578Y-129230467D02*
X132421578Y-127670467D01*
X133421578Y-123170467D02*
X131421578Y-123170467D01*
X132421578Y-121610467D02*
X132421578Y-123170467D01*
X172902781Y-102560467D02*
X172902781Y-104120467D01*
X173902781Y-104120467D02*
X171902781Y-104120467D01*
X172902781Y-110180467D02*
X172902781Y-108620467D01*
X171902781Y-108620467D02*
X171902781Y-104120467D01*
X173902781Y-108620467D02*
X173902781Y-104120467D01*
X173902781Y-108620467D02*
X171902781Y-108620467D01*
D10*
X172902781Y-106120467D02*
X172902781Y-105620467D01*
X173302781Y-106120467D02*
X172502781Y-106120467D01*
X172902781Y-107120467D02*
X172902781Y-106720467D01*
X173452781Y-106720467D02*
X172352781Y-106720467D01*
X172902781Y-106720467D02*
X173302781Y-106120467D01*
X172502781Y-106120467D02*
X172902781Y-106720467D01*
D11*
X170521529Y-102560467D02*
X170521529Y-104120467D01*
X171521529Y-104120467D02*
X169521529Y-104120467D01*
X170521529Y-110180467D02*
X170521529Y-108620467D01*
X169521529Y-108620467D02*
X169521529Y-104120467D01*
X171521529Y-108620467D02*
X171521529Y-104120467D01*
X171521529Y-108620467D02*
X169521529Y-108620467D01*
D10*
X170521529Y-106120467D02*
X170521529Y-105620467D01*
X170921529Y-106120467D02*
X170121529Y-106120467D01*
X170521529Y-107120467D02*
X170521529Y-106720467D01*
X171071529Y-106720467D02*
X169971529Y-106720467D01*
X170521529Y-106720467D02*
X170921529Y-106120467D01*
X170121529Y-106120467D02*
X170521529Y-106720467D01*
D11*
X151471578Y-102560467D02*
X151471578Y-104120467D01*
X152471578Y-104120467D02*
X150471578Y-104120467D01*
X151471578Y-110180467D02*
X151471578Y-108620467D01*
X150471578Y-108620467D02*
X150471578Y-104120467D01*
X152471578Y-108620467D02*
X152471578Y-104120467D01*
X152471578Y-108620467D02*
X150471578Y-108620467D01*
D10*
X151471578Y-106120467D02*
X151471578Y-105620467D01*
X151871578Y-106120467D02*
X151071578Y-106120467D01*
X151471578Y-107120467D02*
X151471578Y-106720467D01*
X152021578Y-106720467D02*
X150921578Y-106720467D01*
X151471578Y-106720467D02*
X151871578Y-106120467D01*
X151071578Y-106120467D02*
X151471578Y-106720467D01*
D11*
X132421578Y-102560467D02*
X132421578Y-104120467D01*
X133421578Y-104120467D02*
X131421578Y-104120467D01*
X132421578Y-110180467D02*
X132421578Y-108620467D01*
X131421578Y-108620467D02*
X131421578Y-104120467D01*
X133421578Y-108620467D02*
X133421578Y-104120467D01*
X133421578Y-108620467D02*
X131421578Y-108620467D01*
D10*
X132421578Y-106120467D02*
X132421578Y-105620467D01*
X132821578Y-106120467D02*
X132021578Y-106120467D01*
X132421578Y-107120467D02*
X132421578Y-106720467D01*
X132971578Y-106720467D02*
X131871578Y-106720467D01*
X132421578Y-106720467D02*
X132821578Y-106120467D01*
X132021578Y-106120467D02*
X132421578Y-106720467D01*
D11*
X113371578Y-102560467D02*
X113371578Y-104120467D01*
X114371578Y-104120467D02*
X112371578Y-104120467D01*
X113371578Y-110180467D02*
X113371578Y-108620467D01*
X112371578Y-108620467D02*
X112371578Y-104120467D01*
X114371578Y-108620467D02*
X114371578Y-104120467D01*
X114371578Y-108620467D02*
X112371578Y-108620467D01*
D10*
X113371578Y-106120467D02*
X113371578Y-105620467D01*
X113771578Y-106120467D02*
X112971578Y-106120467D01*
X113371578Y-107120467D02*
X113371578Y-106720467D01*
X113921578Y-106720467D02*
X112821578Y-106720467D01*
X113371578Y-106720467D02*
X113771578Y-106120467D01*
X112971578Y-106120467D02*
X113371578Y-106720467D01*
D11*
X94321578Y-102560467D02*
X94321578Y-104120467D01*
X95321578Y-104120467D02*
X93321578Y-104120467D01*
X94321578Y-110180467D02*
X94321578Y-108620467D01*
X93321578Y-108620467D02*
X93321578Y-104120467D01*
X95321578Y-108620467D02*
X95321578Y-104120467D01*
X95321578Y-108620467D02*
X93321578Y-108620467D01*
D10*
X94321578Y-106120467D02*
X94321578Y-105620467D01*
X94721578Y-106120467D02*
X93921578Y-106120467D01*
X94321578Y-107120467D02*
X94321578Y-106720467D01*
X94871578Y-106720467D02*
X93771578Y-106720467D01*
X94321578Y-106720467D02*
X94721578Y-106120467D01*
X93921578Y-106120467D02*
X94321578Y-106720467D01*
X172502828Y-87070467D02*
X172902828Y-87670467D01*
X172902828Y-87670467D02*
X173302828Y-87070467D01*
X173452828Y-87670467D02*
X172352828Y-87670467D01*
X172902828Y-88070467D02*
X172902828Y-87670467D01*
X173302828Y-87070467D02*
X172502828Y-87070467D01*
X172902828Y-87070467D02*
X172902828Y-86570467D01*
D11*
X173902828Y-89570467D02*
X171902828Y-89570467D01*
X173902828Y-89570467D02*
X173902828Y-85070467D01*
X171902828Y-89570467D02*
X171902828Y-85070467D01*
X172902828Y-91130467D02*
X172902828Y-89570467D01*
X173902828Y-85070467D02*
X171902828Y-85070467D01*
X172902828Y-83510467D02*
X172902828Y-85070467D01*
D10*
X170121578Y-87070467D02*
X170521578Y-87670467D01*
X170521578Y-87670467D02*
X170921578Y-87070467D01*
X171071578Y-87670467D02*
X169971578Y-87670467D01*
X170521578Y-88070467D02*
X170521578Y-87670467D01*
X170921578Y-87070467D02*
X170121578Y-87070467D01*
X170521578Y-87070467D02*
X170521578Y-86570467D01*
D11*
X171521578Y-89570467D02*
X169521578Y-89570467D01*
X171521578Y-89570467D02*
X171521578Y-85070467D01*
X169521578Y-89570467D02*
X169521578Y-85070467D01*
X170521578Y-91130467D02*
X170521578Y-89570467D01*
X171521578Y-85070467D02*
X169521578Y-85070467D01*
X170521578Y-83510467D02*
X170521578Y-85070467D01*
D10*
X151071578Y-87070467D02*
X151471578Y-87670467D01*
X151471578Y-87670467D02*
X151871578Y-87070467D01*
X152021578Y-87670467D02*
X150921578Y-87670467D01*
X151471578Y-88070467D02*
X151471578Y-87670467D01*
X151871578Y-87070467D02*
X151071578Y-87070467D01*
X151471578Y-87070467D02*
X151471578Y-86570467D01*
D11*
X152471578Y-89570467D02*
X150471578Y-89570467D01*
X152471578Y-89570467D02*
X152471578Y-85070467D01*
X150471578Y-89570467D02*
X150471578Y-85070467D01*
X151471578Y-91130467D02*
X151471578Y-89570467D01*
X152471578Y-85070467D02*
X150471578Y-85070467D01*
X151471578Y-83510467D02*
X151471578Y-85070467D01*
D10*
X132021578Y-87070467D02*
X132421578Y-87670467D01*
X132421578Y-87670467D02*
X132821578Y-87070467D01*
X132971578Y-87670467D02*
X131871578Y-87670467D01*
X132421578Y-88070467D02*
X132421578Y-87670467D01*
X132821578Y-87070467D02*
X132021578Y-87070467D01*
X132421578Y-87070467D02*
X132421578Y-86570467D01*
D11*
X133421578Y-89570467D02*
X131421578Y-89570467D01*
X133421578Y-89570467D02*
X133421578Y-85070467D01*
X131421578Y-89570467D02*
X131421578Y-85070467D01*
X132421578Y-91130467D02*
X132421578Y-89570467D01*
X133421578Y-85070467D02*
X131421578Y-85070467D01*
X132421578Y-83510467D02*
X132421578Y-85070467D01*
D10*
X112971576Y-87070467D02*
X113371576Y-87670467D01*
X113371576Y-87670467D02*
X113771576Y-87070467D01*
X113921576Y-87670467D02*
X112821576Y-87670467D01*
X113371576Y-88070467D02*
X113371576Y-87670467D01*
X113771576Y-87070467D02*
X112971576Y-87070467D01*
X113371576Y-87070467D02*
X113371576Y-86570467D01*
D11*
X114371576Y-89570467D02*
X112371576Y-89570467D01*
X114371576Y-89570467D02*
X114371576Y-85070467D01*
X112371576Y-89570467D02*
X112371576Y-85070467D01*
X113371576Y-91130467D02*
X113371576Y-89570467D01*
X114371576Y-85070467D02*
X112371576Y-85070467D01*
X113371576Y-83510467D02*
X113371576Y-85070467D01*
D10*
X93921578Y-87070467D02*
X94321578Y-87670467D01*
X94321578Y-87670467D02*
X94721578Y-87070467D01*
X94871578Y-87670467D02*
X93771578Y-87670467D01*
X94321578Y-88070467D02*
X94321578Y-87670467D01*
X94721578Y-87070467D02*
X93921578Y-87070467D01*
X94321578Y-87070467D02*
X94321578Y-86570467D01*
D11*
X95321578Y-89570467D02*
X93321578Y-89570467D01*
X95321578Y-89570467D02*
X95321578Y-85070467D01*
X93321578Y-89570467D02*
X93321578Y-85070467D01*
X94321578Y-91130467D02*
X94321578Y-89570467D01*
X95321578Y-85070467D02*
X93321578Y-85070467D01*
X94321578Y-83510467D02*
X94321578Y-85070467D01*
X172902828Y-64460467D02*
X172902828Y-66020467D01*
X173902828Y-66020467D02*
X171902828Y-66020467D01*
X172902828Y-72080467D02*
X172902828Y-70520467D01*
X171902828Y-70520467D02*
X171902828Y-66020467D01*
X173902828Y-70520467D02*
X173902828Y-66020467D01*
X173902828Y-70520467D02*
X171902828Y-70520467D01*
D10*
X172902828Y-68020467D02*
X172902828Y-67520467D01*
X173302828Y-68020467D02*
X172502828Y-68020467D01*
X172902828Y-69020467D02*
X172902828Y-68620467D01*
X173452828Y-68620467D02*
X172352828Y-68620467D01*
X172902828Y-68620467D02*
X173302828Y-68020467D01*
X172502828Y-68020467D02*
X172902828Y-68620467D01*
D11*
X170521578Y-64460467D02*
X170521578Y-66020467D01*
X171521578Y-66020467D02*
X169521578Y-66020467D01*
X170521578Y-72080467D02*
X170521578Y-70520467D01*
X169521578Y-70520467D02*
X169521578Y-66020467D01*
X171521578Y-70520467D02*
X171521578Y-66020467D01*
X171521578Y-70520467D02*
X169521578Y-70520467D01*
D10*
X170521578Y-68020467D02*
X170521578Y-67520467D01*
X170921578Y-68020467D02*
X170121578Y-68020467D01*
X170521578Y-69020467D02*
X170521578Y-68620467D01*
X171071578Y-68620467D02*
X169971578Y-68620467D01*
X170521578Y-68620467D02*
X170921578Y-68020467D01*
X170121578Y-68020467D02*
X170521578Y-68620467D01*
D11*
X151471578Y-64460467D02*
X151471578Y-66020467D01*
X152471578Y-66020467D02*
X150471578Y-66020467D01*
X151471578Y-72080467D02*
X151471578Y-70520467D01*
X150471578Y-70520467D02*
X150471578Y-66020467D01*
X152471578Y-70520467D02*
X152471578Y-66020467D01*
X152471578Y-70520467D02*
X150471578Y-70520467D01*
D10*
X151471578Y-68020467D02*
X151471578Y-67520467D01*
X151871578Y-68020467D02*
X151071578Y-68020467D01*
X151471578Y-69020467D02*
X151471578Y-68620467D01*
X152021578Y-68620467D02*
X150921578Y-68620467D01*
X151471578Y-68620467D02*
X151871578Y-68020467D01*
X151071578Y-68020467D02*
X151471578Y-68620467D01*
D11*
X132421578Y-64460467D02*
X132421578Y-66020467D01*
X133421578Y-66020467D02*
X131421578Y-66020467D01*
X132421578Y-72080467D02*
X132421578Y-70520467D01*
X131421578Y-70520467D02*
X131421578Y-66020467D01*
X133421578Y-70520467D02*
X133421578Y-66020467D01*
X133421578Y-70520467D02*
X131421578Y-70520467D01*
D10*
X132421578Y-68020467D02*
X132421578Y-67520467D01*
X132821578Y-68020467D02*
X132021578Y-68020467D01*
X132421578Y-69020467D02*
X132421578Y-68620467D01*
X132971578Y-68620467D02*
X131871578Y-68620467D01*
X132421578Y-68620467D02*
X132821578Y-68020467D01*
X132021578Y-68020467D02*
X132421578Y-68620467D01*
D11*
X113371578Y-64460467D02*
X113371578Y-66020467D01*
X114371578Y-66020467D02*
X112371578Y-66020467D01*
X113371578Y-72080467D02*
X113371578Y-70520467D01*
X112371578Y-70520467D02*
X112371578Y-66020467D01*
X114371578Y-70520467D02*
X114371578Y-66020467D01*
X114371578Y-70520467D02*
X112371578Y-70520467D01*
D10*
X113371578Y-68020467D02*
X113371578Y-67520467D01*
X113771578Y-68020467D02*
X112971578Y-68020467D01*
X113371578Y-69020467D02*
X113371578Y-68620467D01*
X113921578Y-68620467D02*
X112821578Y-68620467D01*
X113371578Y-68620467D02*
X113771578Y-68020467D01*
X112971578Y-68020467D02*
X113371578Y-68620467D01*
D11*
X94321578Y-64460467D02*
X94321578Y-66020467D01*
X95321578Y-66020467D02*
X93321578Y-66020467D01*
X94321578Y-72080467D02*
X94321578Y-70520467D01*
X93321578Y-70520467D02*
X93321578Y-66020467D01*
X95321578Y-70520467D02*
X95321578Y-66020467D01*
X95321578Y-70520467D02*
X93321578Y-70520467D01*
D10*
X94321578Y-68020467D02*
X94321578Y-67520467D01*
X94721578Y-68020467D02*
X93921578Y-68020467D01*
X94321578Y-69020467D02*
X94321578Y-68620467D01*
X94871578Y-68620467D02*
X93771578Y-68620467D01*
X94321578Y-68620467D02*
X94721578Y-68020467D01*
X93921578Y-68020467D02*
X94321578Y-68620467D01*
D11*
X195499187Y-119429747D02*
X194499187Y-120429747D01*
X206099187Y-131429747D02*
X194499187Y-131429747D01*
X206099187Y-119429747D02*
X206099187Y-131429747D01*
X194499187Y-131429747D02*
X194499187Y-120429747D01*
X195499187Y-119429747D02*
X206099187Y-119429747D01*
X209412079Y-59245491D02*
X209412079Y-92745550D01*
X191162179Y-59245491D02*
X209412079Y-59245491D01*
X191162179Y-92745550D02*
X209412079Y-92745550D01*
X191162179Y-59245491D02*
X191162179Y-92745550D01*
X196812763Y-108133187D02*
X208112763Y-108133187D01*
X208112763Y-108133187D02*
X208112763Y-114133187D01*
X196812763Y-114133187D02*
X196812763Y-108133187D01*
X208112763Y-114133187D02*
X196812763Y-114133187D01*
D12*
G36*
X201202742Y-94996437D02*
G01*
X201790980Y-95109696D01*
X201938179Y-95154038D01*
X202817745Y-95526122D01*
X203595574Y-96025506D01*
X203761840Y-96159155D01*
X204368798Y-96730127D01*
X204850111Y-97336144D01*
X205239866Y-98025500D01*
X205480545Y-98594236D01*
X205588530Y-98892335D01*
X205661528Y-99143129D01*
X205706471Y-99393889D01*
X205730293Y-99691886D01*
X205739927Y-100084393D01*
X205741749Y-100375184D01*
X205739854Y-100850944D01*
X205726301Y-101205538D01*
X205694758Y-101487049D01*
X205638893Y-101743558D01*
X205552374Y-102023150D01*
X205507713Y-102152371D01*
X205181812Y-102928239D01*
X204778045Y-103594955D01*
X204263032Y-104206756D01*
X204209572Y-104261495D01*
X203598735Y-104806456D01*
X202947134Y-105230855D01*
X202195886Y-105572412D01*
X202116622Y-105602132D01*
X201754030Y-105725470D01*
X201429997Y-105805413D01*
X201081129Y-105853023D01*
X200644031Y-105879359D01*
X200498846Y-105884376D01*
X200078991Y-105889723D01*
X199685894Y-105881176D01*
X199372330Y-105860576D01*
X199228846Y-105840063D01*
X198296738Y-105554691D01*
X197441739Y-105124749D01*
X196677863Y-104562806D01*
X196019124Y-103881431D01*
X195479537Y-103093193D01*
X195073115Y-102210661D01*
X195023700Y-102068517D01*
X194892724Y-101514999D01*
X194822726Y-100863147D01*
X194817245Y-100442851D01*
X195377764Y-100442851D01*
X195460717Y-101320917D01*
X195696690Y-102156383D01*
X196071849Y-102931648D01*
X196572363Y-103629109D01*
X197184401Y-104231165D01*
X197894131Y-104720214D01*
X198687722Y-105078652D01*
X199120217Y-105205477D01*
X199632866Y-105286671D01*
X200231738Y-105315070D01*
X200842240Y-105290911D01*
X201389781Y-105214433D01*
X201463782Y-105198014D01*
X202005052Y-105023996D01*
X202577548Y-104762640D01*
X203110041Y-104450056D01*
X203462179Y-104184928D01*
X203800846Y-103890529D01*
X203415865Y-104055383D01*
X202662091Y-104293216D01*
X201907376Y-104374126D01*
X201169037Y-104309537D01*
X200464394Y-104110872D01*
X199810764Y-103789553D01*
X199225464Y-103357005D01*
X198725812Y-102824651D01*
X198633021Y-102679449D01*
X199374644Y-102679449D01*
X199416808Y-102775634D01*
X199570821Y-102920163D01*
X200211288Y-103357618D01*
X200897200Y-103647493D01*
X201606677Y-103783951D01*
X202317841Y-103761156D01*
X202555518Y-103716233D01*
X203242777Y-103473800D01*
X203869033Y-103088772D01*
X204404654Y-102584693D01*
X204820008Y-101985107D01*
X204879174Y-101869959D01*
X205004354Y-101601290D01*
X205084509Y-101379142D01*
X205129626Y-101150881D01*
X205149693Y-100863867D01*
X205154696Y-100465465D01*
X205154752Y-100417517D01*
X205150214Y-99994553D01*
X205130244Y-99689508D01*
X205086363Y-99451108D01*
X205010094Y-99228081D01*
X204927193Y-99041460D01*
X204542097Y-98403146D01*
X204052585Y-97881947D01*
X203480409Y-97483273D01*
X202847321Y-97212531D01*
X202175074Y-97075131D01*
X201485419Y-97076482D01*
X200800110Y-97221993D01*
X200140899Y-97517071D01*
X199776637Y-97760746D01*
X199512980Y-97975552D01*
X199381288Y-98115089D01*
X199384579Y-98173895D01*
X199525867Y-98146509D01*
X199573024Y-98129421D01*
X199890031Y-98063207D01*
X200296015Y-98052459D01*
X200720775Y-98094874D01*
X201066559Y-98178446D01*
X201581490Y-98438737D01*
X202010681Y-98822734D01*
X202338308Y-99299920D01*
X202548547Y-99839774D01*
X202625574Y-100411778D01*
X202553565Y-100985413D01*
X202542488Y-101025000D01*
X202305562Y-101571645D01*
X201951200Y-102036339D01*
X201506254Y-102402878D01*
X200997578Y-102655056D01*
X200452026Y-102776666D01*
X199896451Y-102751505D01*
X199741175Y-102715517D01*
X199482297Y-102659974D01*
X199374644Y-102679449D01*
X198633021Y-102679449D01*
X198329127Y-102203913D01*
X198052726Y-101506216D01*
X197913927Y-100742982D01*
X197900813Y-100417517D01*
X197929704Y-100123976D01*
X198518912Y-100123976D01*
X198522840Y-100489190D01*
X198523673Y-100504198D01*
X198607871Y-101035022D01*
X198803578Y-101451158D01*
X199126574Y-101777598D01*
X199451451Y-101973444D01*
X199929089Y-102150873D01*
X200394503Y-102184014D01*
X200824921Y-102104030D01*
X201207233Y-101918318D01*
X201553583Y-101606323D01*
X201832550Y-101211039D01*
X202012714Y-100775456D01*
X202064707Y-100407694D01*
X201984204Y-99902466D01*
X201762032Y-99450080D01*
X201423524Y-99075375D01*
X200994014Y-98803192D01*
X200498834Y-98658369D01*
X200263293Y-98641376D01*
X199710282Y-98713835D01*
X199239057Y-98933188D01*
X198858220Y-99294255D01*
X198661499Y-99605841D01*
X198561587Y-99852629D01*
X198518912Y-100123976D01*
X197929704Y-100123976D01*
X197978657Y-99626605D01*
X198200856Y-98898336D01*
X198550411Y-98243984D01*
X199010323Y-97674826D01*
X199563591Y-97202137D01*
X200193218Y-96837193D01*
X200882203Y-96591269D01*
X201613547Y-96475642D01*
X202370251Y-96501586D01*
X203135315Y-96680379D01*
X203390305Y-96776325D01*
X203800846Y-96946294D01*
X203462179Y-96651001D01*
X202812185Y-96189115D01*
X202061113Y-95835185D01*
X201249149Y-95603792D01*
X200416477Y-95509519D01*
X200312513Y-95508102D01*
X199397941Y-95587316D01*
X198534085Y-95825250D01*
X197733932Y-96216576D01*
X197010469Y-96755970D01*
X196812926Y-96943264D01*
X196230723Y-97641534D01*
X195795010Y-98420338D01*
X195511113Y-99266690D01*
X195384360Y-100167602D01*
X195377764Y-100442851D01*
X194817245Y-100442851D01*
X194813720Y-100172604D01*
X194865718Y-99503011D01*
X194978732Y-98914013D01*
X195023013Y-98766517D01*
X195408860Y-97864596D01*
X195930639Y-97057145D01*
X196576435Y-96356078D01*
X197334331Y-95773311D01*
X198192414Y-95320758D01*
X198636179Y-95153351D01*
X199190575Y-95022605D01*
X199842897Y-94952879D01*
X200533500Y-94944160D01*
X201202742Y-94996437D01*
G37*
X201202742Y-94996437D02*
X201790980Y-95109696D01*
X201938179Y-95154038D01*
X202817745Y-95526122D01*
X203595574Y-96025506D01*
X203761840Y-96159155D01*
X204368798Y-96730127D01*
X204850111Y-97336144D01*
X205239866Y-98025500D01*
X205480545Y-98594236D01*
X205588530Y-98892335D01*
X205661528Y-99143129D01*
X205706471Y-99393889D01*
X205730293Y-99691886D01*
X205739927Y-100084393D01*
X205741749Y-100375184D01*
X205739854Y-100850944D01*
X205726301Y-101205538D01*
X205694758Y-101487049D01*
X205638893Y-101743558D01*
X205552374Y-102023150D01*
X205507713Y-102152371D01*
X205181812Y-102928239D01*
X204778045Y-103594955D01*
X204263032Y-104206756D01*
X204209572Y-104261495D01*
X203598735Y-104806456D01*
X202947134Y-105230855D01*
X202195886Y-105572412D01*
X202116622Y-105602132D01*
X201754030Y-105725470D01*
X201429997Y-105805413D01*
X201081129Y-105853023D01*
X200644031Y-105879359D01*
X200498846Y-105884376D01*
X200078991Y-105889723D01*
X199685894Y-105881176D01*
X199372330Y-105860576D01*
X199228846Y-105840063D01*
X198296738Y-105554691D01*
X197441739Y-105124749D01*
X196677863Y-104562806D01*
X196019124Y-103881431D01*
X195479537Y-103093193D01*
X195073115Y-102210661D01*
X195023700Y-102068517D01*
X194892724Y-101514999D01*
X194822726Y-100863147D01*
X194817245Y-100442851D01*
X195377764Y-100442851D01*
X195460717Y-101320917D01*
X195696690Y-102156383D01*
X196071849Y-102931648D01*
X196572363Y-103629109D01*
X197184401Y-104231165D01*
X197894131Y-104720214D01*
X198687722Y-105078652D01*
X199120217Y-105205477D01*
X199632866Y-105286671D01*
X200231738Y-105315070D01*
X200842240Y-105290911D01*
X201389781Y-105214433D01*
X201463782Y-105198014D01*
X202005052Y-105023996D01*
X202577548Y-104762640D01*
X203110041Y-104450056D01*
X203462179Y-104184928D01*
X203800846Y-103890529D01*
X203415865Y-104055383D01*
X202662091Y-104293216D01*
X201907376Y-104374126D01*
X201169037Y-104309537D01*
X200464394Y-104110872D01*
X199810764Y-103789553D01*
X199225464Y-103357005D01*
X198725812Y-102824651D01*
X198633021Y-102679449D01*
X199374644Y-102679449D01*
X199416808Y-102775634D01*
X199570821Y-102920163D01*
X200211288Y-103357618D01*
X200897200Y-103647493D01*
X201606677Y-103783951D01*
X202317841Y-103761156D01*
X202555518Y-103716233D01*
X203242777Y-103473800D01*
X203869033Y-103088772D01*
X204404654Y-102584693D01*
X204820008Y-101985107D01*
X204879174Y-101869959D01*
X205004354Y-101601290D01*
X205084509Y-101379142D01*
X205129626Y-101150881D01*
X205149693Y-100863867D01*
X205154696Y-100465465D01*
X205154752Y-100417517D01*
X205150214Y-99994553D01*
X205130244Y-99689508D01*
X205086363Y-99451108D01*
X205010094Y-99228081D01*
X204927193Y-99041460D01*
X204542097Y-98403146D01*
X204052585Y-97881947D01*
X203480409Y-97483273D01*
X202847321Y-97212531D01*
X202175074Y-97075131D01*
X201485419Y-97076482D01*
X200800110Y-97221993D01*
X200140899Y-97517071D01*
X199776637Y-97760746D01*
X199512980Y-97975552D01*
X199381288Y-98115089D01*
X199384579Y-98173895D01*
X199525867Y-98146509D01*
X199573024Y-98129421D01*
X199890031Y-98063207D01*
X200296015Y-98052459D01*
X200720775Y-98094874D01*
X201066559Y-98178446D01*
X201581490Y-98438737D01*
X202010681Y-98822734D01*
X202338308Y-99299920D01*
X202548547Y-99839774D01*
X202625574Y-100411778D01*
X202553565Y-100985413D01*
X202542488Y-101025000D01*
X202305562Y-101571645D01*
X201951200Y-102036339D01*
X201506254Y-102402878D01*
X200997578Y-102655056D01*
X200452026Y-102776666D01*
X199896451Y-102751505D01*
X199741175Y-102715517D01*
X199482297Y-102659974D01*
X199374644Y-102679449D01*
X198633021Y-102679449D01*
X198329127Y-102203913D01*
X198052726Y-101506216D01*
X197913927Y-100742982D01*
X197900813Y-100417517D01*
X197929704Y-100123976D01*
X198518912Y-100123976D01*
X198522840Y-100489190D01*
X198523673Y-100504198D01*
X198607871Y-101035022D01*
X198803578Y-101451158D01*
X199126574Y-101777598D01*
X199451451Y-101973444D01*
X199929089Y-102150873D01*
X200394503Y-102184014D01*
X200824921Y-102104030D01*
X201207233Y-101918318D01*
X201553583Y-101606323D01*
X201832550Y-101211039D01*
X202012714Y-100775456D01*
X202064707Y-100407694D01*
X201984204Y-99902466D01*
X201762032Y-99450080D01*
X201423524Y-99075375D01*
X200994014Y-98803192D01*
X200498834Y-98658369D01*
X200263293Y-98641376D01*
X199710282Y-98713835D01*
X199239057Y-98933188D01*
X198858220Y-99294255D01*
X198661499Y-99605841D01*
X198561587Y-99852629D01*
X198518912Y-100123976D01*
X197929704Y-100123976D01*
X197978657Y-99626605D01*
X198200856Y-98898336D01*
X198550411Y-98243984D01*
X199010323Y-97674826D01*
X199563591Y-97202137D01*
X200193218Y-96837193D01*
X200882203Y-96591269D01*
X201613547Y-96475642D01*
X202370251Y-96501586D01*
X203135315Y-96680379D01*
X203390305Y-96776325D01*
X203800846Y-96946294D01*
X203462179Y-96651001D01*
X202812185Y-96189115D01*
X202061113Y-95835185D01*
X201249149Y-95603792D01*
X200416477Y-95509519D01*
X200312513Y-95508102D01*
X199397941Y-95587316D01*
X198534085Y-95825250D01*
X197733932Y-96216576D01*
X197010469Y-96755970D01*
X196812926Y-96943264D01*
X196230723Y-97641534D01*
X195795010Y-98420338D01*
X195511113Y-99266690D01*
X195384360Y-100167602D01*
X195377764Y-100442851D01*
X194817245Y-100442851D01*
X194813720Y-100172604D01*
X194865718Y-99503011D01*
X194978732Y-98914013D01*
X195023013Y-98766517D01*
X195408860Y-97864596D01*
X195930639Y-97057145D01*
X196576435Y-96356078D01*
X197334331Y-95773311D01*
X198192414Y-95320758D01*
X198636179Y-95153351D01*
X199190575Y-95022605D01*
X199842897Y-94952879D01*
X200533500Y-94944160D01*
X201202742Y-94996437D01*
D13*
X206186940Y-89097871D02*
X206186940Y-88097871D01*
X205853607Y-88812157D01*
X205520274Y-88097871D01*
X205520274Y-89097871D01*
X204472655Y-89002633D02*
X204520274Y-89050252D01*
X204663131Y-89097871D01*
X204758369Y-89097871D01*
X204901226Y-89050252D01*
X204996464Y-88955014D01*
X205044083Y-88859776D01*
X205091702Y-88669300D01*
X205091702Y-88526443D01*
X205044083Y-88335967D01*
X204996464Y-88240729D01*
X204901226Y-88145491D01*
X204758369Y-88097871D01*
X204663131Y-88097871D01*
X204520274Y-88145491D01*
X204472655Y-88193110D01*
X204044083Y-88097871D02*
X204044083Y-88907395D01*
X203996464Y-89002633D01*
X203948845Y-89050252D01*
X203853607Y-89097871D01*
X203663131Y-89097871D01*
X203567893Y-89050252D01*
X203520274Y-89002633D01*
X203472655Y-88907395D01*
X203472655Y-88097871D01*
X202282179Y-89050252D02*
X202139321Y-89097871D01*
X201901226Y-89097871D01*
X201805988Y-89050252D01*
X201758369Y-89002633D01*
X201710750Y-88907395D01*
X201710750Y-88812157D01*
X201758369Y-88716919D01*
X201805988Y-88669300D01*
X201901226Y-88621681D01*
X202091702Y-88574062D01*
X202186940Y-88526443D01*
X202234559Y-88478824D01*
X202282179Y-88383586D01*
X202282179Y-88288348D01*
X202234559Y-88193110D01*
X202186940Y-88145491D01*
X202091702Y-88097871D01*
X201853607Y-88097871D01*
X201710750Y-88145491D01*
X201282179Y-89097871D02*
X201282179Y-88097871D01*
X200805988Y-89097871D02*
X200805988Y-88097871D01*
X200567893Y-88097871D01*
X200425036Y-88145491D01*
X200329798Y-88240729D01*
X200282179Y-88335967D01*
X200234559Y-88526443D01*
X200234559Y-88669300D01*
X200282179Y-88859776D01*
X200329798Y-88955014D01*
X200425036Y-89050252D01*
X200567893Y-89097871D01*
X200805988Y-89097871D01*
X199805988Y-88574062D02*
X199472655Y-88574062D01*
X199329798Y-89097871D02*
X199805988Y-89097871D01*
X199805988Y-88097871D01*
X199329798Y-88097871D01*
X198139321Y-89097871D02*
X198139321Y-88097871D01*
X197901226Y-88097871D01*
X197758369Y-88145491D01*
X197663131Y-88240729D01*
X197615512Y-88335967D01*
X197567893Y-88526443D01*
X197567893Y-88669300D01*
X197615512Y-88859776D01*
X197663131Y-88955014D01*
X197758369Y-89050252D01*
X197901226Y-89097871D01*
X198139321Y-89097871D01*
X196948845Y-88097871D02*
X196758369Y-88097871D01*
X196663131Y-88145491D01*
X196567893Y-88240729D01*
X196520274Y-88431205D01*
X196520274Y-88764538D01*
X196567893Y-88955014D01*
X196663131Y-89050252D01*
X196758369Y-89097871D01*
X196948845Y-89097871D01*
X197044083Y-89050252D01*
X197139321Y-88955014D01*
X197186940Y-88764538D01*
X197186940Y-88431205D01*
X197139321Y-88240729D01*
X197044083Y-88145491D01*
X196948845Y-88097871D01*
X196186940Y-88097871D02*
X195948845Y-89097871D01*
X195758369Y-88383586D01*
X195567893Y-89097871D01*
X195329798Y-88097871D01*
X194948845Y-89097871D02*
X194948845Y-88097871D01*
X194377417Y-89097871D01*
X194377417Y-88097871D01*
X204274667Y-110585567D02*
X203703239Y-110585567D01*
X203988953Y-111585567D02*
X203988953Y-110585567D01*
X202798477Y-111585567D02*
X203131810Y-111109377D01*
X203369905Y-111585567D02*
X203369905Y-110585567D01*
X202988953Y-110585567D01*
X202893715Y-110633187D01*
X202846096Y-110680806D01*
X202798477Y-110776044D01*
X202798477Y-110918901D01*
X202846096Y-111014139D01*
X202893715Y-111061758D01*
X202988953Y-111109377D01*
X203369905Y-111109377D01*
X202417524Y-111537948D02*
X202274667Y-111585567D01*
X202036572Y-111585567D01*
X201941334Y-111537948D01*
X201893715Y-111490329D01*
X201846096Y-111395091D01*
X201846096Y-111299853D01*
X201893715Y-111204615D01*
X201941334Y-111156996D01*
X202036572Y-111109377D01*
X202227048Y-111061758D01*
X202322286Y-111014139D01*
X202369905Y-110966520D01*
X202417524Y-110871282D01*
X202417524Y-110776044D01*
X202369905Y-110680806D01*
X202322286Y-110633187D01*
X202227048Y-110585567D01*
X201988953Y-110585567D01*
X201846096Y-110633187D01*
%LPC*%
X108869425Y-133243098D02*
X109583711Y-133243098D01*
X109583711Y-131743098D01*
X108512283Y-132243098D02*
X108155140Y-133243098D01*
X107797997Y-132243098D02*
X108155140Y-133243098D01*
X108297997Y-133600241D01*
X108369425Y-133671669D01*
X108512283Y-133743098D01*
X107226568Y-133243098D02*
X107226568Y-132243098D01*
X107226568Y-132528812D02*
X107155140Y-132385955D01*
X107083711Y-132314527D01*
X106940854Y-132243098D01*
X106797997Y-132243098D01*
X105655140Y-133243098D02*
X105655140Y-132457384D01*
X105726568Y-132314527D01*
X105869425Y-132243098D01*
X106155140Y-132243098D01*
X106297997Y-132314527D01*
X105655140Y-133171669D02*
X105797997Y-133243098D01*
X106155140Y-133243098D01*
X106297997Y-133171669D01*
X106369425Y-133028812D01*
X106369425Y-132885955D01*
X106297997Y-132743098D01*
X106155140Y-132671669D01*
X105797997Y-132671669D01*
X105655140Y-132600241D01*
X103797997Y-133243098D02*
X103797997Y-132243098D01*
X103797997Y-132528812D02*
X103726568Y-132385955D01*
X103655140Y-132314527D01*
X103512283Y-132243098D01*
X103369425Y-132243098D01*
X102297997Y-133171669D02*
X102440854Y-133243098D01*
X102726568Y-133243098D01*
X102869425Y-133171669D01*
X102940854Y-133028812D01*
X102940854Y-132457384D01*
X102869425Y-132314527D01*
X102726568Y-132243098D01*
X102440854Y-132243098D01*
X102297997Y-132314527D01*
X102226568Y-132457384D01*
X102226568Y-132600241D01*
X102940854Y-132743098D01*
X101726568Y-132243098D02*
X101369425Y-133243098D01*
X101012283Y-132243098D01*
X100512283Y-131885955D02*
X100440854Y-131814527D01*
X100297997Y-131743098D01*
X99940854Y-131743098D01*
X99797997Y-131814527D01*
X99726568Y-131885955D01*
X99655140Y-132028812D01*
X99655140Y-132171669D01*
X99726568Y-132385955D01*
X100583711Y-133243098D01*
X99655140Y-133243098D01*
X99012283Y-133100241D02*
X98940854Y-133171669D01*
X99012283Y-133243098D01*
X99083711Y-133171669D01*
X99012283Y-133100241D01*
X99012283Y-133243098D01*
X98369425Y-131885955D02*
X98297997Y-131814527D01*
X98155140Y-131743098D01*
X97797997Y-131743098D01*
X97655140Y-131814527D01*
X97583711Y-131885955D01*
X97512283Y-132028812D01*
X97512283Y-132171669D01*
X97583711Y-132385955D01*
X98440854Y-133243098D01*
X97512283Y-133243098D01*
X95726568Y-133243098D02*
X95726568Y-131743098D01*
X95726568Y-132314527D02*
X95583711Y-132243098D01*
X95297997Y-132243098D01*
X95155140Y-132314527D01*
X95083711Y-132385955D01*
X95012283Y-132528812D01*
X95012283Y-132957384D01*
X95083711Y-133100241D01*
X95155140Y-133171669D01*
X95297997Y-133243098D01*
X95583711Y-133243098D01*
X95726568Y-133171669D01*
X94512283Y-132243098D02*
X94155140Y-133243098D01*
X93797997Y-132243098D02*
X94155140Y-133243098D01*
X94297997Y-133600241D01*
X94369425Y-133671669D01*
X94512283Y-133743098D01*
X91155140Y-132528812D02*
X91226568Y-132457384D01*
X91369425Y-132385955D01*
X91512283Y-132385955D01*
X91655140Y-132457384D01*
X91726568Y-132528812D01*
X91797997Y-132671669D01*
X91797997Y-132814527D01*
X91726568Y-132957384D01*
X91655140Y-133028812D01*
X91512283Y-133100241D01*
X91369425Y-133100241D01*
X91226568Y-133028812D01*
X91155140Y-132957384D01*
X91155140Y-132385955D02*
X91155140Y-132957384D01*
X91083711Y-133028812D01*
X91012283Y-133028812D01*
X90869425Y-132957384D01*
X90797997Y-132814527D01*
X90797997Y-132457384D01*
X90940854Y-132243098D01*
X91155140Y-132100241D01*
X91440854Y-132028812D01*
X91726568Y-132100241D01*
X91940854Y-132243098D01*
X92083711Y-132457384D01*
X92155140Y-132743098D01*
X92083711Y-133028812D01*
X91940854Y-133243098D01*
X91726568Y-133385955D01*
X91440854Y-133457384D01*
X91155140Y-133385955D01*
X90940854Y-133243098D01*
X90155140Y-132243098D02*
X90155140Y-133743098D01*
X90155140Y-132314527D02*
X90012283Y-132243098D01*
X89726568Y-132243098D01*
X89583711Y-132314527D01*
X89512283Y-132385955D01*
X89440854Y-132528812D01*
X89440854Y-132957384D01*
X89512283Y-133100241D01*
X89583711Y-133171669D01*
X89726568Y-133243098D01*
X90012283Y-133243098D01*
X90155140Y-133171669D01*
X88155140Y-133243098D02*
X88155140Y-132457384D01*
X88226568Y-132314527D01*
X88369425Y-132243098D01*
X88655140Y-132243098D01*
X88797997Y-132314527D01*
X88155140Y-133171669D02*
X88297997Y-133243098D01*
X88655140Y-133243098D01*
X88797997Y-133171669D01*
X88869425Y-133028812D01*
X88869425Y-132885955D01*
X88797997Y-132743098D01*
X88655140Y-132671669D01*
X88297997Y-132671669D01*
X88155140Y-132600241D01*
X87440854Y-133243098D02*
X87440854Y-132243098D01*
X87440854Y-132528812D02*
X87369425Y-132385955D01*
X87297997Y-132314527D01*
X87155140Y-132243098D01*
X87012283Y-132243098D01*
X86512283Y-133243098D02*
X86512283Y-131743098D01*
X86369425Y-132671669D02*
X85940854Y-133243098D01*
X85940854Y-132243098D02*
X86512283Y-132814527D01*
X85297997Y-133100241D02*
X85226568Y-133171669D01*
X85297997Y-133243098D01*
X85369425Y-133171669D01*
X85297997Y-133100241D01*
X85297997Y-133243098D01*
X83940854Y-133171669D02*
X84083711Y-133243098D01*
X84369425Y-133243098D01*
X84512283Y-133171669D01*
X84583711Y-133100241D01*
X84655140Y-132957384D01*
X84655140Y-132528812D01*
X84583711Y-132385955D01*
X84512283Y-132314527D01*
X84369425Y-132243098D01*
X84083711Y-132243098D01*
X83940854Y-132314527D01*
X83369425Y-133171669D02*
X83226568Y-133243098D01*
X82940854Y-133243098D01*
X82797997Y-133171669D01*
X82726568Y-133028812D01*
X82726568Y-132957384D01*
X82797997Y-132814527D01*
X82940854Y-132743098D01*
X83155140Y-132743098D01*
X83297997Y-132671669D01*
X83369425Y-132528812D01*
X83369425Y-132457384D01*
X83297997Y-132314527D01*
X83155140Y-132243098D01*
X82940854Y-132243098D01*
X82797997Y-132314527D01*
X81440854Y-132243098D02*
X81440854Y-133243098D01*
X82083711Y-132243098D02*
X82083711Y-133028812D01*
X82012283Y-133171669D01*
X81869425Y-133243098D01*
X81655140Y-133243098D01*
X81512283Y-133171669D01*
X81440854Y-133100241D01*
G36*
G01*
X113971578Y-124271467D02*
X112771578Y-124271467D01*
G75*
G02*
X112720578Y-124220467I0J51000D01*
G01*
X112720578Y-123320467D01*
G75*
G02*
X112771578Y-123269467I51000J0D01*
G01*
X113971578Y-123269467D01*
G75*
G02*
X114022578Y-123320467I0J-51000D01*
G01*
X114022578Y-124220467D01*
G75*
G02*
X113971578Y-124271467I-51000J0D01*
G01*
G37*
G36*
G01*
X113971578Y-127571467D02*
X112771578Y-127571467D01*
G75*
G02*
X112720578Y-127520467I0J51000D01*
G01*
X112720578Y-126620467D01*
G75*
G02*
X112771578Y-126569467I51000J0D01*
G01*
X113971578Y-126569467D01*
G75*
G02*
X114022578Y-126620467I0J-51000D01*
G01*
X114022578Y-127520467D01*
G75*
G02*
X113971578Y-127571467I-51000J0D01*
G01*
G37*
D14*
X113371578Y-121610467D03*
G36*
G01*
X114171578Y-130081467D02*
X112571578Y-130081467D01*
G75*
G02*
X112520578Y-130030467I0J51000D01*
G01*
X112520578Y-128430467D01*
G75*
G02*
X112571578Y-128379467I51000J0D01*
G01*
X114171578Y-128379467D01*
G75*
G02*
X114222578Y-128430467I0J-51000D01*
G01*
X114222578Y-130030467D01*
G75*
G02*
X114171578Y-130081467I-51000J0D01*
G01*
G37*
G36*
G01*
X94921578Y-124271467D02*
X93721578Y-124271467D01*
G75*
G02*
X93670578Y-124220467I0J51000D01*
G01*
X93670578Y-123320467D01*
G75*
G02*
X93721578Y-123269467I51000J0D01*
G01*
X94921578Y-123269467D01*
G75*
G02*
X94972578Y-123320467I0J-51000D01*
G01*
X94972578Y-124220467D01*
G75*
G02*
X94921578Y-124271467I-51000J0D01*
G01*
G37*
G36*
G01*
X94921578Y-127571467D02*
X93721578Y-127571467D01*
G75*
G02*
X93670578Y-127520467I0J51000D01*
G01*
X93670578Y-126620467D01*
G75*
G02*
X93721578Y-126569467I51000J0D01*
G01*
X94921578Y-126569467D01*
G75*
G02*
X94972578Y-126620467I0J-51000D01*
G01*
X94972578Y-127520467D01*
G75*
G02*
X94921578Y-127571467I-51000J0D01*
G01*
G37*
X94321578Y-121610467D03*
G36*
G01*
X95121578Y-130081467D02*
X93521578Y-130081467D01*
G75*
G02*
X93470578Y-130030467I0J51000D01*
G01*
X93470578Y-128430467D01*
G75*
G02*
X93521578Y-128379467I51000J0D01*
G01*
X95121578Y-128379467D01*
G75*
G02*
X95172578Y-128430467I0J-51000D01*
G01*
X95172578Y-130030467D01*
G75*
G02*
X95121578Y-130081467I-51000J0D01*
G01*
G37*
D15*
X102497323Y-120340747D03*
D16*
X99957323Y-125420747D03*
D15*
X108847323Y-122880747D03*
D16*
X110117323Y-125420747D03*
D17*
X105037323Y-125420747D03*
D15*
X107577323Y-120340747D03*
D17*
X105037323Y-125420747D03*
D15*
X101227323Y-122880747D03*
D16*
X99957323Y-125420747D03*
X110117323Y-125420747D03*
D15*
X83447243Y-101290667D03*
D16*
X80907243Y-106370667D03*
D15*
X89797243Y-103830667D03*
D16*
X91067243Y-106370667D03*
D17*
X85987243Y-106370667D03*
D15*
X88527243Y-101290667D03*
D17*
X85987243Y-106370667D03*
D15*
X82177243Y-103830667D03*
D16*
X80907243Y-106370667D03*
X91067243Y-106370667D03*
G36*
G01*
X191091430Y-126569467D02*
X192291430Y-126569467D01*
G75*
G02*
X192342430Y-126620467I0J-51000D01*
G01*
X192342430Y-127520467D01*
G75*
G02*
X192291430Y-127571467I-51000J0D01*
G01*
X191091430Y-127571467D01*
G75*
G02*
X191040430Y-127520467I0J51000D01*
G01*
X191040430Y-126620467D01*
G75*
G02*
X191091430Y-126569467I51000J0D01*
G01*
G37*
G36*
G01*
X191091430Y-123269467D02*
X192291430Y-123269467D01*
G75*
G02*
X192342430Y-123320467I0J-51000D01*
G01*
X192342430Y-124220467D01*
G75*
G02*
X192291430Y-124271467I-51000J0D01*
G01*
X191091430Y-124271467D01*
G75*
G02*
X191040430Y-124220467I0J51000D01*
G01*
X191040430Y-123320467D01*
G75*
G02*
X191091430Y-123269467I51000J0D01*
G01*
G37*
D14*
X191691430Y-129230467D03*
G36*
G01*
X190891430Y-120759467D02*
X192491430Y-120759467D01*
G75*
G02*
X192542430Y-120810467I0J-51000D01*
G01*
X192542430Y-122410467D01*
G75*
G02*
X192491430Y-122461467I-51000J0D01*
G01*
X190891430Y-122461467D01*
G75*
G02*
X190840430Y-122410467I0J51000D01*
G01*
X190840430Y-120810467D01*
G75*
G02*
X190891430Y-120759467I51000J0D01*
G01*
G37*
G36*
G01*
X170563203Y-115295467D02*
X170563203Y-116495467D01*
G75*
G02*
X170512203Y-116546467I-51000J0D01*
G01*
X169612203Y-116546467D01*
G75*
G02*
X169561203Y-116495467I0J51000D01*
G01*
X169561203Y-115295467D01*
G75*
G02*
X169612203Y-115244467I51000J0D01*
G01*
X170512203Y-115244467D01*
G75*
G02*
X170563203Y-115295467I0J-51000D01*
G01*
G37*
G36*
G01*
X173863203Y-115295467D02*
X173863203Y-116495467D01*
G75*
G02*
X173812203Y-116546467I-51000J0D01*
G01*
X172912203Y-116546467D01*
G75*
G02*
X172861203Y-116495467I0J51000D01*
G01*
X172861203Y-115295467D01*
G75*
G02*
X172912203Y-115244467I51000J0D01*
G01*
X173812203Y-115244467D01*
G75*
G02*
X173863203Y-115295467I0J-51000D01*
G01*
G37*
X167902203Y-115895467D03*
G36*
G01*
X176373203Y-115095467D02*
X176373203Y-116695467D01*
G75*
G02*
X176322203Y-116746467I-51000J0D01*
G01*
X174722203Y-116746467D01*
G75*
G02*
X174671203Y-116695467I0J51000D01*
G01*
X174671203Y-115095467D01*
G75*
G02*
X174722203Y-115044467I51000J0D01*
G01*
X176322203Y-115044467D01*
G75*
G02*
X176373203Y-115095467I0J-51000D01*
G01*
G37*
G36*
G01*
X153332203Y-126569467D02*
X154532203Y-126569467D01*
G75*
G02*
X154583203Y-126620467I0J-51000D01*
G01*
X154583203Y-127520467D01*
G75*
G02*
X154532203Y-127571467I-51000J0D01*
G01*
X153332203Y-127571467D01*
G75*
G02*
X153281203Y-127520467I0J51000D01*
G01*
X153281203Y-126620467D01*
G75*
G02*
X153332203Y-126569467I51000J0D01*
G01*
G37*
G36*
G01*
X153332203Y-123269467D02*
X154532203Y-123269467D01*
G75*
G02*
X154583203Y-123320467I0J-51000D01*
G01*
X154583203Y-124220467D01*
G75*
G02*
X154532203Y-124271467I-51000J0D01*
G01*
X153332203Y-124271467D01*
G75*
G02*
X153281203Y-124220467I0J51000D01*
G01*
X153281203Y-123320467D01*
G75*
G02*
X153332203Y-123269467I51000J0D01*
G01*
G37*
X153932203Y-129230467D03*
G36*
G01*
X153132203Y-120759467D02*
X154732203Y-120759467D01*
G75*
G02*
X154783203Y-120810467I0J-51000D01*
G01*
X154783203Y-122410467D01*
G75*
G02*
X154732203Y-122461467I-51000J0D01*
G01*
X153132203Y-122461467D01*
G75*
G02*
X153081203Y-122410467I0J51000D01*
G01*
X153081203Y-120810467D01*
G75*
G02*
X153132203Y-120759467I51000J0D01*
G01*
G37*
G36*
G01*
X152071578Y-124271467D02*
X150871578Y-124271467D01*
G75*
G02*
X150820578Y-124220467I0J51000D01*
G01*
X150820578Y-123320467D01*
G75*
G02*
X150871578Y-123269467I51000J0D01*
G01*
X152071578Y-123269467D01*
G75*
G02*
X152122578Y-123320467I0J-51000D01*
G01*
X152122578Y-124220467D01*
G75*
G02*
X152071578Y-124271467I-51000J0D01*
G01*
G37*
G36*
G01*
X152071578Y-127571467D02*
X150871578Y-127571467D01*
G75*
G02*
X150820578Y-127520467I0J51000D01*
G01*
X150820578Y-126620467D01*
G75*
G02*
X150871578Y-126569467I51000J0D01*
G01*
X152071578Y-126569467D01*
G75*
G02*
X152122578Y-126620467I0J-51000D01*
G01*
X152122578Y-127520467D01*
G75*
G02*
X152071578Y-127571467I-51000J0D01*
G01*
G37*
X151471578Y-121610467D03*
G36*
G01*
X152271578Y-130081467D02*
X150671578Y-130081467D01*
G75*
G02*
X150620578Y-130030467I0J51000D01*
G01*
X150620578Y-128430467D01*
G75*
G02*
X150671578Y-128379467I51000J0D01*
G01*
X152271578Y-128379467D01*
G75*
G02*
X152322578Y-128430467I0J-51000D01*
G01*
X152322578Y-130030467D01*
G75*
G02*
X152271578Y-130081467I-51000J0D01*
G01*
G37*
G36*
G01*
X133021578Y-124271467D02*
X131821578Y-124271467D01*
G75*
G02*
X131770578Y-124220467I0J51000D01*
G01*
X131770578Y-123320467D01*
G75*
G02*
X131821578Y-123269467I51000J0D01*
G01*
X133021578Y-123269467D01*
G75*
G02*
X133072578Y-123320467I0J-51000D01*
G01*
X133072578Y-124220467D01*
G75*
G02*
X133021578Y-124271467I-51000J0D01*
G01*
G37*
G36*
G01*
X133021578Y-127571467D02*
X131821578Y-127571467D01*
G75*
G02*
X131770578Y-127520467I0J51000D01*
G01*
X131770578Y-126620467D01*
G75*
G02*
X131821578Y-126569467I51000J0D01*
G01*
X133021578Y-126569467D01*
G75*
G02*
X133072578Y-126620467I0J-51000D01*
G01*
X133072578Y-127520467D01*
G75*
G02*
X133021578Y-127571467I-51000J0D01*
G01*
G37*
X132421578Y-121610467D03*
G36*
G01*
X133221578Y-130081467D02*
X131621578Y-130081467D01*
G75*
G02*
X131570578Y-130030467I0J51000D01*
G01*
X131570578Y-128430467D01*
G75*
G02*
X131621578Y-128379467I51000J0D01*
G01*
X133221578Y-128379467D01*
G75*
G02*
X133272578Y-128430467I0J-51000D01*
G01*
X133272578Y-130030467D01*
G75*
G02*
X133221578Y-130081467I-51000J0D01*
G01*
G37*
G36*
G01*
X173702781Y-111031467D02*
X172102781Y-111031467D01*
G75*
G02*
X172051781Y-110980467I0J51000D01*
G01*
X172051781Y-109380467D01*
G75*
G02*
X172102781Y-109329467I51000J0D01*
G01*
X173702781Y-109329467D01*
G75*
G02*
X173753781Y-109380467I0J-51000D01*
G01*
X173753781Y-110980467D01*
G75*
G02*
X173702781Y-111031467I-51000J0D01*
G01*
G37*
X172902781Y-102560467D03*
G36*
G01*
X173502781Y-108521467D02*
X172302781Y-108521467D01*
G75*
G02*
X172251781Y-108470467I0J51000D01*
G01*
X172251781Y-107570467D01*
G75*
G02*
X172302781Y-107519467I51000J0D01*
G01*
X173502781Y-107519467D01*
G75*
G02*
X173553781Y-107570467I0J-51000D01*
G01*
X173553781Y-108470467D01*
G75*
G02*
X173502781Y-108521467I-51000J0D01*
G01*
G37*
G36*
G01*
X173502781Y-105221467D02*
X172302781Y-105221467D01*
G75*
G02*
X172251781Y-105170467I0J51000D01*
G01*
X172251781Y-104270467D01*
G75*
G02*
X172302781Y-104219467I51000J0D01*
G01*
X173502781Y-104219467D01*
G75*
G02*
X173553781Y-104270467I0J-51000D01*
G01*
X173553781Y-105170467D01*
G75*
G02*
X173502781Y-105221467I-51000J0D01*
G01*
G37*
G36*
G01*
X171321529Y-111031467D02*
X169721529Y-111031467D01*
G75*
G02*
X169670529Y-110980467I0J51000D01*
G01*
X169670529Y-109380467D01*
G75*
G02*
X169721529Y-109329467I51000J0D01*
G01*
X171321529Y-109329467D01*
G75*
G02*
X171372529Y-109380467I0J-51000D01*
G01*
X171372529Y-110980467D01*
G75*
G02*
X171321529Y-111031467I-51000J0D01*
G01*
G37*
X170521529Y-102560467D03*
G36*
G01*
X171121529Y-108521467D02*
X169921529Y-108521467D01*
G75*
G02*
X169870529Y-108470467I0J51000D01*
G01*
X169870529Y-107570467D01*
G75*
G02*
X169921529Y-107519467I51000J0D01*
G01*
X171121529Y-107519467D01*
G75*
G02*
X171172529Y-107570467I0J-51000D01*
G01*
X171172529Y-108470467D01*
G75*
G02*
X171121529Y-108521467I-51000J0D01*
G01*
G37*
G36*
G01*
X171121529Y-105221467D02*
X169921529Y-105221467D01*
G75*
G02*
X169870529Y-105170467I0J51000D01*
G01*
X169870529Y-104270467D01*
G75*
G02*
X169921529Y-104219467I51000J0D01*
G01*
X171121529Y-104219467D01*
G75*
G02*
X171172529Y-104270467I0J-51000D01*
G01*
X171172529Y-105170467D01*
G75*
G02*
X171121529Y-105221467I-51000J0D01*
G01*
G37*
G36*
G01*
X152271578Y-111031467D02*
X150671578Y-111031467D01*
G75*
G02*
X150620578Y-110980467I0J51000D01*
G01*
X150620578Y-109380467D01*
G75*
G02*
X150671578Y-109329467I51000J0D01*
G01*
X152271578Y-109329467D01*
G75*
G02*
X152322578Y-109380467I0J-51000D01*
G01*
X152322578Y-110980467D01*
G75*
G02*
X152271578Y-111031467I-51000J0D01*
G01*
G37*
X151471578Y-102560467D03*
G36*
G01*
X152071578Y-108521467D02*
X150871578Y-108521467D01*
G75*
G02*
X150820578Y-108470467I0J51000D01*
G01*
X150820578Y-107570467D01*
G75*
G02*
X150871578Y-107519467I51000J0D01*
G01*
X152071578Y-107519467D01*
G75*
G02*
X152122578Y-107570467I0J-51000D01*
G01*
X152122578Y-108470467D01*
G75*
G02*
X152071578Y-108521467I-51000J0D01*
G01*
G37*
G36*
G01*
X152071578Y-105221467D02*
X150871578Y-105221467D01*
G75*
G02*
X150820578Y-105170467I0J51000D01*
G01*
X150820578Y-104270467D01*
G75*
G02*
X150871578Y-104219467I51000J0D01*
G01*
X152071578Y-104219467D01*
G75*
G02*
X152122578Y-104270467I0J-51000D01*
G01*
X152122578Y-105170467D01*
G75*
G02*
X152071578Y-105221467I-51000J0D01*
G01*
G37*
G36*
G01*
X133221578Y-111031467D02*
X131621578Y-111031467D01*
G75*
G02*
X131570578Y-110980467I0J51000D01*
G01*
X131570578Y-109380467D01*
G75*
G02*
X131621578Y-109329467I51000J0D01*
G01*
X133221578Y-109329467D01*
G75*
G02*
X133272578Y-109380467I0J-51000D01*
G01*
X133272578Y-110980467D01*
G75*
G02*
X133221578Y-111031467I-51000J0D01*
G01*
G37*
X132421578Y-102560467D03*
G36*
G01*
X133021578Y-108521467D02*
X131821578Y-108521467D01*
G75*
G02*
X131770578Y-108470467I0J51000D01*
G01*
X131770578Y-107570467D01*
G75*
G02*
X131821578Y-107519467I51000J0D01*
G01*
X133021578Y-107519467D01*
G75*
G02*
X133072578Y-107570467I0J-51000D01*
G01*
X133072578Y-108470467D01*
G75*
G02*
X133021578Y-108521467I-51000J0D01*
G01*
G37*
G36*
G01*
X133021578Y-105221467D02*
X131821578Y-105221467D01*
G75*
G02*
X131770578Y-105170467I0J51000D01*
G01*
X131770578Y-104270467D01*
G75*
G02*
X131821578Y-104219467I51000J0D01*
G01*
X133021578Y-104219467D01*
G75*
G02*
X133072578Y-104270467I0J-51000D01*
G01*
X133072578Y-105170467D01*
G75*
G02*
X133021578Y-105221467I-51000J0D01*
G01*
G37*
G36*
G01*
X114171578Y-111031467D02*
X112571578Y-111031467D01*
G75*
G02*
X112520578Y-110980467I0J51000D01*
G01*
X112520578Y-109380467D01*
G75*
G02*
X112571578Y-109329467I51000J0D01*
G01*
X114171578Y-109329467D01*
G75*
G02*
X114222578Y-109380467I0J-51000D01*
G01*
X114222578Y-110980467D01*
G75*
G02*
X114171578Y-111031467I-51000J0D01*
G01*
G37*
X113371578Y-102560467D03*
G36*
G01*
X113971578Y-108521467D02*
X112771578Y-108521467D01*
G75*
G02*
X112720578Y-108470467I0J51000D01*
G01*
X112720578Y-107570467D01*
G75*
G02*
X112771578Y-107519467I51000J0D01*
G01*
X113971578Y-107519467D01*
G75*
G02*
X114022578Y-107570467I0J-51000D01*
G01*
X114022578Y-108470467D01*
G75*
G02*
X113971578Y-108521467I-51000J0D01*
G01*
G37*
G36*
G01*
X113971578Y-105221467D02*
X112771578Y-105221467D01*
G75*
G02*
X112720578Y-105170467I0J51000D01*
G01*
X112720578Y-104270467D01*
G75*
G02*
X112771578Y-104219467I51000J0D01*
G01*
X113971578Y-104219467D01*
G75*
G02*
X114022578Y-104270467I0J-51000D01*
G01*
X114022578Y-105170467D01*
G75*
G02*
X113971578Y-105221467I-51000J0D01*
G01*
G37*
G36*
G01*
X95121578Y-111031467D02*
X93521578Y-111031467D01*
G75*
G02*
X93470578Y-110980467I0J51000D01*
G01*
X93470578Y-109380467D01*
G75*
G02*
X93521578Y-109329467I51000J0D01*
G01*
X95121578Y-109329467D01*
G75*
G02*
X95172578Y-109380467I0J-51000D01*
G01*
X95172578Y-110980467D01*
G75*
G02*
X95121578Y-111031467I-51000J0D01*
G01*
G37*
X94321578Y-102560467D03*
G36*
G01*
X94921578Y-108521467D02*
X93721578Y-108521467D01*
G75*
G02*
X93670578Y-108470467I0J51000D01*
G01*
X93670578Y-107570467D01*
G75*
G02*
X93721578Y-107519467I51000J0D01*
G01*
X94921578Y-107519467D01*
G75*
G02*
X94972578Y-107570467I0J-51000D01*
G01*
X94972578Y-108470467D01*
G75*
G02*
X94921578Y-108521467I-51000J0D01*
G01*
G37*
G36*
G01*
X94921578Y-105221467D02*
X93721578Y-105221467D01*
G75*
G02*
X93670578Y-105170467I0J51000D01*
G01*
X93670578Y-104270467D01*
G75*
G02*
X93721578Y-104219467I51000J0D01*
G01*
X94921578Y-104219467D01*
G75*
G02*
X94972578Y-104270467I0J-51000D01*
G01*
X94972578Y-105170467D01*
G75*
G02*
X94921578Y-105221467I-51000J0D01*
G01*
G37*
G36*
G01*
X173502828Y-86171467D02*
X172302828Y-86171467D01*
G75*
G02*
X172251828Y-86120467I0J51000D01*
G01*
X172251828Y-85220467D01*
G75*
G02*
X172302828Y-85169467I51000J0D01*
G01*
X173502828Y-85169467D01*
G75*
G02*
X173553828Y-85220467I0J-51000D01*
G01*
X173553828Y-86120467D01*
G75*
G02*
X173502828Y-86171467I-51000J0D01*
G01*
G37*
G36*
G01*
X173502828Y-89471467D02*
X172302828Y-89471467D01*
G75*
G02*
X172251828Y-89420467I0J51000D01*
G01*
X172251828Y-88520467D01*
G75*
G02*
X172302828Y-88469467I51000J0D01*
G01*
X173502828Y-88469467D01*
G75*
G02*
X173553828Y-88520467I0J-51000D01*
G01*
X173553828Y-89420467D01*
G75*
G02*
X173502828Y-89471467I-51000J0D01*
G01*
G37*
X172902828Y-83510467D03*
G36*
G01*
X173702828Y-91981467D02*
X172102828Y-91981467D01*
G75*
G02*
X172051828Y-91930467I0J51000D01*
G01*
X172051828Y-90330467D01*
G75*
G02*
X172102828Y-90279467I51000J0D01*
G01*
X173702828Y-90279467D01*
G75*
G02*
X173753828Y-90330467I0J-51000D01*
G01*
X173753828Y-91930467D01*
G75*
G02*
X173702828Y-91981467I-51000J0D01*
G01*
G37*
G36*
G01*
X171121578Y-86171467D02*
X169921578Y-86171467D01*
G75*
G02*
X169870578Y-86120467I0J51000D01*
G01*
X169870578Y-85220467D01*
G75*
G02*
X169921578Y-85169467I51000J0D01*
G01*
X171121578Y-85169467D01*
G75*
G02*
X171172578Y-85220467I0J-51000D01*
G01*
X171172578Y-86120467D01*
G75*
G02*
X171121578Y-86171467I-51000J0D01*
G01*
G37*
G36*
G01*
X171121578Y-89471467D02*
X169921578Y-89471467D01*
G75*
G02*
X169870578Y-89420467I0J51000D01*
G01*
X169870578Y-88520467D01*
G75*
G02*
X169921578Y-88469467I51000J0D01*
G01*
X171121578Y-88469467D01*
G75*
G02*
X171172578Y-88520467I0J-51000D01*
G01*
X171172578Y-89420467D01*
G75*
G02*
X171121578Y-89471467I-51000J0D01*
G01*
G37*
X170521578Y-83510467D03*
G36*
G01*
X171321578Y-91981467D02*
X169721578Y-91981467D01*
G75*
G02*
X169670578Y-91930467I0J51000D01*
G01*
X169670578Y-90330467D01*
G75*
G02*
X169721578Y-90279467I51000J0D01*
G01*
X171321578Y-90279467D01*
G75*
G02*
X171372578Y-90330467I0J-51000D01*
G01*
X171372578Y-91930467D01*
G75*
G02*
X171321578Y-91981467I-51000J0D01*
G01*
G37*
G36*
G01*
X152071578Y-86171467D02*
X150871578Y-86171467D01*
G75*
G02*
X150820578Y-86120467I0J51000D01*
G01*
X150820578Y-85220467D01*
G75*
G02*
X150871578Y-85169467I51000J0D01*
G01*
X152071578Y-85169467D01*
G75*
G02*
X152122578Y-85220467I0J-51000D01*
G01*
X152122578Y-86120467D01*
G75*
G02*
X152071578Y-86171467I-51000J0D01*
G01*
G37*
G36*
G01*
X152071578Y-89471467D02*
X150871578Y-89471467D01*
G75*
G02*
X150820578Y-89420467I0J51000D01*
G01*
X150820578Y-88520467D01*
G75*
G02*
X150871578Y-88469467I51000J0D01*
G01*
X152071578Y-88469467D01*
G75*
G02*
X152122578Y-88520467I0J-51000D01*
G01*
X152122578Y-89420467D01*
G75*
G02*
X152071578Y-89471467I-51000J0D01*
G01*
G37*
X151471578Y-83510467D03*
G36*
G01*
X152271578Y-91981467D02*
X150671578Y-91981467D01*
G75*
G02*
X150620578Y-91930467I0J51000D01*
G01*
X150620578Y-90330467D01*
G75*
G02*
X150671578Y-90279467I51000J0D01*
G01*
X152271578Y-90279467D01*
G75*
G02*
X152322578Y-90330467I0J-51000D01*
G01*
X152322578Y-91930467D01*
G75*
G02*
X152271578Y-91981467I-51000J0D01*
G01*
G37*
G36*
G01*
X133021578Y-86171467D02*
X131821578Y-86171467D01*
G75*
G02*
X131770578Y-86120467I0J51000D01*
G01*
X131770578Y-85220467D01*
G75*
G02*
X131821578Y-85169467I51000J0D01*
G01*
X133021578Y-85169467D01*
G75*
G02*
X133072578Y-85220467I0J-51000D01*
G01*
X133072578Y-86120467D01*
G75*
G02*
X133021578Y-86171467I-51000J0D01*
G01*
G37*
G36*
G01*
X133021578Y-89471467D02*
X131821578Y-89471467D01*
G75*
G02*
X131770578Y-89420467I0J51000D01*
G01*
X131770578Y-88520467D01*
G75*
G02*
X131821578Y-88469467I51000J0D01*
G01*
X133021578Y-88469467D01*
G75*
G02*
X133072578Y-88520467I0J-51000D01*
G01*
X133072578Y-89420467D01*
G75*
G02*
X133021578Y-89471467I-51000J0D01*
G01*
G37*
X132421578Y-83510467D03*
G36*
G01*
X133221578Y-91981467D02*
X131621578Y-91981467D01*
G75*
G02*
X131570578Y-91930467I0J51000D01*
G01*
X131570578Y-90330467D01*
G75*
G02*
X131621578Y-90279467I51000J0D01*
G01*
X133221578Y-90279467D01*
G75*
G02*
X133272578Y-90330467I0J-51000D01*
G01*
X133272578Y-91930467D01*
G75*
G02*
X133221578Y-91981467I-51000J0D01*
G01*
G37*
G36*
G01*
X113971576Y-86171467D02*
X112771576Y-86171467D01*
G75*
G02*
X112720576Y-86120467I0J51000D01*
G01*
X112720576Y-85220467D01*
G75*
G02*
X112771576Y-85169467I51000J0D01*
G01*
X113971576Y-85169467D01*
G75*
G02*
X114022576Y-85220467I0J-51000D01*
G01*
X114022576Y-86120467D01*
G75*
G02*
X113971576Y-86171467I-51000J0D01*
G01*
G37*
G36*
G01*
X113971576Y-89471467D02*
X112771576Y-89471467D01*
G75*
G02*
X112720576Y-89420467I0J51000D01*
G01*
X112720576Y-88520467D01*
G75*
G02*
X112771576Y-88469467I51000J0D01*
G01*
X113971576Y-88469467D01*
G75*
G02*
X114022576Y-88520467I0J-51000D01*
G01*
X114022576Y-89420467D01*
G75*
G02*
X113971576Y-89471467I-51000J0D01*
G01*
G37*
X113371576Y-83510467D03*
G36*
G01*
X114171576Y-91981467D02*
X112571576Y-91981467D01*
G75*
G02*
X112520576Y-91930467I0J51000D01*
G01*
X112520576Y-90330467D01*
G75*
G02*
X112571576Y-90279467I51000J0D01*
G01*
X114171576Y-90279467D01*
G75*
G02*
X114222576Y-90330467I0J-51000D01*
G01*
X114222576Y-91930467D01*
G75*
G02*
X114171576Y-91981467I-51000J0D01*
G01*
G37*
G36*
G01*
X94921578Y-86171467D02*
X93721578Y-86171467D01*
G75*
G02*
X93670578Y-86120467I0J51000D01*
G01*
X93670578Y-85220467D01*
G75*
G02*
X93721578Y-85169467I51000J0D01*
G01*
X94921578Y-85169467D01*
G75*
G02*
X94972578Y-85220467I0J-51000D01*
G01*
X94972578Y-86120467D01*
G75*
G02*
X94921578Y-86171467I-51000J0D01*
G01*
G37*
G36*
G01*
X94921578Y-89471467D02*
X93721578Y-89471467D01*
G75*
G02*
X93670578Y-89420467I0J51000D01*
G01*
X93670578Y-88520467D01*
G75*
G02*
X93721578Y-88469467I51000J0D01*
G01*
X94921578Y-88469467D01*
G75*
G02*
X94972578Y-88520467I0J-51000D01*
G01*
X94972578Y-89420467D01*
G75*
G02*
X94921578Y-89471467I-51000J0D01*
G01*
G37*
X94321578Y-83510467D03*
G36*
G01*
X95121578Y-91981467D02*
X93521578Y-91981467D01*
G75*
G02*
X93470578Y-91930467I0J51000D01*
G01*
X93470578Y-90330467D01*
G75*
G02*
X93521578Y-90279467I51000J0D01*
G01*
X95121578Y-90279467D01*
G75*
G02*
X95172578Y-90330467I0J-51000D01*
G01*
X95172578Y-91930467D01*
G75*
G02*
X95121578Y-91981467I-51000J0D01*
G01*
G37*
G36*
G01*
X173702828Y-72931467D02*
X172102828Y-72931467D01*
G75*
G02*
X172051828Y-72880467I0J51000D01*
G01*
X172051828Y-71280467D01*
G75*
G02*
X172102828Y-71229467I51000J0D01*
G01*
X173702828Y-71229467D01*
G75*
G02*
X173753828Y-71280467I0J-51000D01*
G01*
X173753828Y-72880467D01*
G75*
G02*
X173702828Y-72931467I-51000J0D01*
G01*
G37*
X172902828Y-64460467D03*
G36*
G01*
X173502828Y-70421467D02*
X172302828Y-70421467D01*
G75*
G02*
X172251828Y-70370467I0J51000D01*
G01*
X172251828Y-69470467D01*
G75*
G02*
X172302828Y-69419467I51000J0D01*
G01*
X173502828Y-69419467D01*
G75*
G02*
X173553828Y-69470467I0J-51000D01*
G01*
X173553828Y-70370467D01*
G75*
G02*
X173502828Y-70421467I-51000J0D01*
G01*
G37*
G36*
G01*
X173502828Y-67121467D02*
X172302828Y-67121467D01*
G75*
G02*
X172251828Y-67070467I0J51000D01*
G01*
X172251828Y-66170467D01*
G75*
G02*
X172302828Y-66119467I51000J0D01*
G01*
X173502828Y-66119467D01*
G75*
G02*
X173553828Y-66170467I0J-51000D01*
G01*
X173553828Y-67070467D01*
G75*
G02*
X173502828Y-67121467I-51000J0D01*
G01*
G37*
G36*
G01*
X171321578Y-72931467D02*
X169721578Y-72931467D01*
G75*
G02*
X169670578Y-72880467I0J51000D01*
G01*
X169670578Y-71280467D01*
G75*
G02*
X169721578Y-71229467I51000J0D01*
G01*
X171321578Y-71229467D01*
G75*
G02*
X171372578Y-71280467I0J-51000D01*
G01*
X171372578Y-72880467D01*
G75*
G02*
X171321578Y-72931467I-51000J0D01*
G01*
G37*
X170521578Y-64460467D03*
G36*
G01*
X171121578Y-70421467D02*
X169921578Y-70421467D01*
G75*
G02*
X169870578Y-70370467I0J51000D01*
G01*
X169870578Y-69470467D01*
G75*
G02*
X169921578Y-69419467I51000J0D01*
G01*
X171121578Y-69419467D01*
G75*
G02*
X171172578Y-69470467I0J-51000D01*
G01*
X171172578Y-70370467D01*
G75*
G02*
X171121578Y-70421467I-51000J0D01*
G01*
G37*
G36*
G01*
X171121578Y-67121467D02*
X169921578Y-67121467D01*
G75*
G02*
X169870578Y-67070467I0J51000D01*
G01*
X169870578Y-66170467D01*
G75*
G02*
X169921578Y-66119467I51000J0D01*
G01*
X171121578Y-66119467D01*
G75*
G02*
X171172578Y-66170467I0J-51000D01*
G01*
X171172578Y-67070467D01*
G75*
G02*
X171121578Y-67121467I-51000J0D01*
G01*
G37*
G36*
G01*
X152271578Y-72931467D02*
X150671578Y-72931467D01*
G75*
G02*
X150620578Y-72880467I0J51000D01*
G01*
X150620578Y-71280467D01*
G75*
G02*
X150671578Y-71229467I51000J0D01*
G01*
X152271578Y-71229467D01*
G75*
G02*
X152322578Y-71280467I0J-51000D01*
G01*
X152322578Y-72880467D01*
G75*
G02*
X152271578Y-72931467I-51000J0D01*
G01*
G37*
X151471578Y-64460467D03*
G36*
G01*
X152071578Y-70421467D02*
X150871578Y-70421467D01*
G75*
G02*
X150820578Y-70370467I0J51000D01*
G01*
X150820578Y-69470467D01*
G75*
G02*
X150871578Y-69419467I51000J0D01*
G01*
X152071578Y-69419467D01*
G75*
G02*
X152122578Y-69470467I0J-51000D01*
G01*
X152122578Y-70370467D01*
G75*
G02*
X152071578Y-70421467I-51000J0D01*
G01*
G37*
G36*
G01*
X152071578Y-67121467D02*
X150871578Y-67121467D01*
G75*
G02*
X150820578Y-67070467I0J51000D01*
G01*
X150820578Y-66170467D01*
G75*
G02*
X150871578Y-66119467I51000J0D01*
G01*
X152071578Y-66119467D01*
G75*
G02*
X152122578Y-66170467I0J-51000D01*
G01*
X152122578Y-67070467D01*
G75*
G02*
X152071578Y-67121467I-51000J0D01*
G01*
G37*
G36*
G01*
X133221578Y-72931467D02*
X131621578Y-72931467D01*
G75*
G02*
X131570578Y-72880467I0J51000D01*
G01*
X131570578Y-71280467D01*
G75*
G02*
X131621578Y-71229467I51000J0D01*
G01*
X133221578Y-71229467D01*
G75*
G02*
X133272578Y-71280467I0J-51000D01*
G01*
X133272578Y-72880467D01*
G75*
G02*
X133221578Y-72931467I-51000J0D01*
G01*
G37*
X132421578Y-64460467D03*
G36*
G01*
X133021578Y-70421467D02*
X131821578Y-70421467D01*
G75*
G02*
X131770578Y-70370467I0J51000D01*
G01*
X131770578Y-69470467D01*
G75*
G02*
X131821578Y-69419467I51000J0D01*
G01*
X133021578Y-69419467D01*
G75*
G02*
X133072578Y-69470467I0J-51000D01*
G01*
X133072578Y-70370467D01*
G75*
G02*
X133021578Y-70421467I-51000J0D01*
G01*
G37*
G36*
G01*
X133021578Y-67121467D02*
X131821578Y-67121467D01*
G75*
G02*
X131770578Y-67070467I0J51000D01*
G01*
X131770578Y-66170467D01*
G75*
G02*
X131821578Y-66119467I51000J0D01*
G01*
X133021578Y-66119467D01*
G75*
G02*
X133072578Y-66170467I0J-51000D01*
G01*
X133072578Y-67070467D01*
G75*
G02*
X133021578Y-67121467I-51000J0D01*
G01*
G37*
G36*
G01*
X114171578Y-72931467D02*
X112571578Y-72931467D01*
G75*
G02*
X112520578Y-72880467I0J51000D01*
G01*
X112520578Y-71280467D01*
G75*
G02*
X112571578Y-71229467I51000J0D01*
G01*
X114171578Y-71229467D01*
G75*
G02*
X114222578Y-71280467I0J-51000D01*
G01*
X114222578Y-72880467D01*
G75*
G02*
X114171578Y-72931467I-51000J0D01*
G01*
G37*
X113371578Y-64460467D03*
G36*
G01*
X113971578Y-70421467D02*
X112771578Y-70421467D01*
G75*
G02*
X112720578Y-70370467I0J51000D01*
G01*
X112720578Y-69470467D01*
G75*
G02*
X112771578Y-69419467I51000J0D01*
G01*
X113971578Y-69419467D01*
G75*
G02*
X114022578Y-69470467I0J-51000D01*
G01*
X114022578Y-70370467D01*
G75*
G02*
X113971578Y-70421467I-51000J0D01*
G01*
G37*
G36*
G01*
X113971578Y-67121467D02*
X112771578Y-67121467D01*
G75*
G02*
X112720578Y-67070467I0J51000D01*
G01*
X112720578Y-66170467D01*
G75*
G02*
X112771578Y-66119467I51000J0D01*
G01*
X113971578Y-66119467D01*
G75*
G02*
X114022578Y-66170467I0J-51000D01*
G01*
X114022578Y-67070467D01*
G75*
G02*
X113971578Y-67121467I-51000J0D01*
G01*
G37*
G36*
G01*
X95121578Y-72931467D02*
X93521578Y-72931467D01*
G75*
G02*
X93470578Y-72880467I0J51000D01*
G01*
X93470578Y-71280467D01*
G75*
G02*
X93521578Y-71229467I51000J0D01*
G01*
X95121578Y-71229467D01*
G75*
G02*
X95172578Y-71280467I0J-51000D01*
G01*
X95172578Y-72880467D01*
G75*
G02*
X95121578Y-72931467I-51000J0D01*
G01*
G37*
X94321578Y-64460467D03*
G36*
G01*
X94921578Y-70421467D02*
X93721578Y-70421467D01*
G75*
G02*
X93670578Y-70370467I0J51000D01*
G01*
X93670578Y-69470467D01*
G75*
G02*
X93721578Y-69419467I51000J0D01*
G01*
X94921578Y-69419467D01*
G75*
G02*
X94972578Y-69470467I0J-51000D01*
G01*
X94972578Y-70370467D01*
G75*
G02*
X94921578Y-70421467I-51000J0D01*
G01*
G37*
G36*
G01*
X94921578Y-67121467D02*
X93721578Y-67121467D01*
G75*
G02*
X93670578Y-67070467I0J51000D01*
G01*
X93670578Y-66170467D01*
G75*
G02*
X93721578Y-66119467I51000J0D01*
G01*
X94921578Y-66119467D01*
G75*
G02*
X94972578Y-66170467I0J-51000D01*
G01*
X94972578Y-67070467D01*
G75*
G02*
X94921578Y-67121467I-51000J0D01*
G01*
G37*
D15*
X159647203Y-101290531D03*
D16*
X157107203Y-106370531D03*
D15*
X165997203Y-103830531D03*
D16*
X167267203Y-106370531D03*
D17*
X162187203Y-106370531D03*
D15*
X164727203Y-101290531D03*
D17*
X162187203Y-106370531D03*
D15*
X158377203Y-103830531D03*
D16*
X157107203Y-106370531D03*
X167267203Y-106370531D03*
D15*
X121547403Y-82240587D03*
D16*
X119007403Y-87320587D03*
D15*
X127897403Y-84780587D03*
D16*
X129167403Y-87320587D03*
D17*
X124087403Y-87320587D03*
D15*
X126627403Y-82240587D03*
D17*
X124087403Y-87320587D03*
D15*
X120277403Y-84780587D03*
D16*
X119007403Y-87320587D03*
X129167403Y-87320587D03*
G36*
G01*
X200287187Y-119919747D02*
X200287187Y-119919747D01*
G75*
G02*
X201138187Y-120770747I0J-851000D01*
G01*
X201138187Y-121070747D01*
G75*
G02*
X200287187Y-121921747I-851000J0D01*
G01*
X200287187Y-121921747D01*
G75*
G02*
X199436187Y-121070747I0J851000D01*
G01*
X199436187Y-120770747D01*
G75*
G02*
X200287187Y-119919747I851000J0D01*
G01*
G37*
G36*
G01*
X200287187Y-128919747D02*
X200287187Y-128919747D01*
G75*
G02*
X201138187Y-129770747I0J-851000D01*
G01*
X201138187Y-130070747D01*
G75*
G02*
X200287187Y-130921747I-851000J0D01*
G01*
X200287187Y-130921747D01*
G75*
G02*
X199436187Y-130070747I0J851000D01*
G01*
X199436187Y-129770747D01*
G75*
G02*
X200287187Y-128919747I851000J0D01*
G01*
G37*
D18*
X200287187Y-125420747D03*
D19*
X202787187Y-117920747D03*
X200287187Y-117920747D03*
X197787187Y-117920747D03*
G36*
G01*
X204887187Y-123769747D02*
X206887187Y-123769747D01*
G75*
G02*
X206938187Y-123820747I0J-51000D01*
G01*
X206938187Y-127020747D01*
G75*
G02*
X206887187Y-127071747I-51000J0D01*
G01*
X204887187Y-127071747D01*
G75*
G02*
X204836187Y-127020747I0J51000D01*
G01*
X204836187Y-123820747D01*
G75*
G02*
X204887187Y-123769747I51000J0D01*
G01*
G37*
G36*
G01*
X193687187Y-123769747D02*
X195687187Y-123769747D01*
G75*
G02*
X195738187Y-123820747I0J-51000D01*
G01*
X195738187Y-127020747D01*
G75*
G02*
X195687187Y-127071747I-51000J0D01*
G01*
X193687187Y-127071747D01*
G75*
G02*
X193636187Y-127020747I0J51000D01*
G01*
X193636187Y-123820747D01*
G75*
G02*
X193687187Y-123769747I51000J0D01*
G01*
G37*
X202787187Y-132420747D03*
X197787187Y-132420747D03*
D20*
X192662179Y-63245491D03*
X192662179Y-65785491D03*
X192662179Y-68325491D03*
X192662179Y-70865491D03*
X192662179Y-73405491D03*
X192662179Y-75945491D03*
X192662179Y-78485491D03*
X192662179Y-81025491D03*
X192662179Y-83565491D03*
X192662179Y-86105491D03*
X192662179Y-88645491D03*
X192662179Y-91185491D03*
X207902179Y-91185491D03*
X207902179Y-88645491D03*
X207902179Y-86105491D03*
X207902179Y-83565491D03*
X207902179Y-81025491D03*
X207902179Y-78485491D03*
X207902179Y-75945491D03*
X207902179Y-73405491D03*
X207902179Y-70865491D03*
X207902179Y-68325491D03*
X207902179Y-65785491D03*
X207902179Y-63245491D03*
D21*
X206012763Y-111133187D03*
X200012763Y-111133187D03*
D22*
X206012763Y-108733187D03*
X206012763Y-113533187D03*
X204012763Y-108733187D03*
X204012763Y-113533187D03*
X199012763Y-113533187D03*
X199012763Y-108733187D03*
D23*
X190762683Y-115895707D03*
X187190793Y-77795547D03*
X95512283Y-115895707D03*
X95512283Y-77795547D03*
D15*
X169172203Y-120340467D03*
D16*
X166632203Y-125420467D03*
D15*
X175522203Y-122880467D03*
D16*
X176792203Y-125420467D03*
D17*
X171712203Y-125420467D03*
D15*
X174252203Y-120340467D03*
D17*
X171712203Y-125420467D03*
D15*
X167902203Y-122880467D03*
D16*
X166632203Y-125420467D03*
X176792203Y-125420467D03*
D24*
X159805953Y-132405467D03*
X183618453Y-132405467D03*
D17*
X159805953Y-117165467D03*
X183618453Y-117165467D03*
D15*
X183777203Y-130500467D03*
D16*
X186317203Y-125420467D03*
D15*
X177427203Y-127960467D03*
D16*
X176157203Y-125420467D03*
D17*
X181237203Y-125420467D03*
D15*
X178697203Y-130500467D03*
D17*
X181237203Y-125420467D03*
D15*
X185047203Y-127960467D03*
D16*
X186317203Y-125420467D03*
X176157203Y-125420467D03*
D15*
X164727203Y-130500467D03*
D16*
X167267203Y-125420467D03*
D15*
X158377203Y-127960467D03*
D16*
X157107203Y-125420467D03*
D17*
X162187203Y-125420467D03*
D15*
X159647203Y-130500467D03*
D17*
X162187203Y-125420467D03*
D15*
X165997203Y-127960467D03*
D16*
X167267203Y-125420467D03*
X157107203Y-125420467D03*
D15*
X140597483Y-120340747D03*
D16*
X138057483Y-125420747D03*
D15*
X146947483Y-122880747D03*
D16*
X148217483Y-125420747D03*
D17*
X143137483Y-125420747D03*
D15*
X145677483Y-120340747D03*
D17*
X143137483Y-125420747D03*
D15*
X139327483Y-122880747D03*
D16*
X138057483Y-125420747D03*
X148217483Y-125420747D03*
D15*
X121547403Y-120340747D03*
D16*
X119007403Y-125420747D03*
D15*
X127897403Y-122880747D03*
D16*
X129167403Y-125420747D03*
D17*
X124087403Y-125420747D03*
D15*
X126627403Y-120340747D03*
D17*
X124087403Y-125420747D03*
D15*
X120277403Y-122880747D03*
D16*
X119007403Y-125420747D03*
X129167403Y-125420747D03*
D15*
X83447243Y-120340747D03*
D16*
X80907243Y-125420747D03*
D15*
X89797243Y-122880747D03*
D16*
X91067243Y-125420747D03*
D17*
X85987243Y-125420747D03*
D15*
X88527243Y-120340747D03*
D17*
X85987243Y-125420747D03*
D15*
X82177243Y-122880747D03*
D16*
X80907243Y-125420747D03*
X91067243Y-125420747D03*
D15*
X178697643Y-101290667D03*
D16*
X176157643Y-106370667D03*
D15*
X185047643Y-103830667D03*
D16*
X186317643Y-106370667D03*
D17*
X181237643Y-106370667D03*
D15*
X183777643Y-101290667D03*
D17*
X181237643Y-106370667D03*
D15*
X177427643Y-103830667D03*
D16*
X176157643Y-106370667D03*
X186317643Y-106370667D03*
D15*
X140597483Y-101290667D03*
D16*
X138057483Y-106370667D03*
D15*
X146947483Y-103830667D03*
D16*
X148217483Y-106370667D03*
D17*
X143137483Y-106370667D03*
D15*
X145677483Y-101290667D03*
D17*
X143137483Y-106370667D03*
D15*
X139327483Y-103830667D03*
D16*
X138057483Y-106370667D03*
X148217483Y-106370667D03*
D15*
X121547403Y-101290667D03*
D16*
X119007403Y-106370667D03*
D15*
X127897403Y-103830667D03*
D16*
X129167403Y-106370667D03*
D17*
X124087403Y-106370667D03*
D15*
X126627403Y-101290667D03*
D17*
X124087403Y-106370667D03*
D15*
X120277403Y-103830667D03*
D16*
X119007403Y-106370667D03*
X129167403Y-106370667D03*
D15*
X102497323Y-101290667D03*
D16*
X99957323Y-106370667D03*
D15*
X108847323Y-103830667D03*
D16*
X110117323Y-106370667D03*
D17*
X105037323Y-106370667D03*
D15*
X107577323Y-101290667D03*
D17*
X105037323Y-106370667D03*
D15*
X101227323Y-103830667D03*
D16*
X99957323Y-106370667D03*
X110117323Y-106370667D03*
D15*
X178697643Y-82240587D03*
D16*
X176157643Y-87320587D03*
D15*
X185047643Y-84780587D03*
D16*
X186317643Y-87320587D03*
D17*
X181237643Y-87320587D03*
D15*
X183777643Y-82240587D03*
D17*
X181237643Y-87320587D03*
D15*
X177427643Y-84780587D03*
D16*
X176157643Y-87320587D03*
X186317643Y-87320587D03*
D15*
X159647563Y-82240587D03*
D16*
X157107563Y-87320587D03*
D15*
X165997563Y-84780587D03*
D16*
X167267563Y-87320587D03*
D17*
X162187563Y-87320587D03*
D15*
X164727563Y-82240587D03*
D17*
X162187563Y-87320587D03*
D15*
X158377563Y-84780587D03*
D16*
X157107563Y-87320587D03*
X167267563Y-87320587D03*
D15*
X140597483Y-82240587D03*
D16*
X138057483Y-87320587D03*
D15*
X146947483Y-84780587D03*
D16*
X148217483Y-87320587D03*
D17*
X143137483Y-87320587D03*
D15*
X145677483Y-82240587D03*
D17*
X143137483Y-87320587D03*
D15*
X139327483Y-84780587D03*
D16*
X138057483Y-87320587D03*
X148217483Y-87320587D03*
D15*
X102497323Y-82240587D03*
D16*
X99957323Y-87320587D03*
D15*
X108847323Y-84780587D03*
D16*
X110117323Y-87320587D03*
D17*
X105037323Y-87320587D03*
D15*
X107577323Y-82240587D03*
D17*
X105037323Y-87320587D03*
D15*
X101227323Y-84780587D03*
D16*
X99957323Y-87320587D03*
X110117323Y-87320587D03*
D15*
X83447243Y-82240587D03*
D16*
X80907243Y-87320587D03*
D15*
X89797243Y-84780587D03*
D16*
X91067243Y-87320587D03*
D17*
X85987243Y-87320587D03*
D15*
X88527243Y-82240587D03*
D17*
X85987243Y-87320587D03*
D15*
X82177243Y-84780587D03*
D16*
X80907243Y-87320587D03*
X91067243Y-87320587D03*
D15*
X178697603Y-63190467D03*
D16*
X176157603Y-68270467D03*
D15*
X185047603Y-65730467D03*
D16*
X186317603Y-68270467D03*
D17*
X181237603Y-68270467D03*
D15*
X183777603Y-63190467D03*
D17*
X181237603Y-68270467D03*
D15*
X177427603Y-65730467D03*
D16*
X176157603Y-68270467D03*
X186317603Y-68270467D03*
D15*
X159647523Y-63190467D03*
D16*
X157107523Y-68270467D03*
D15*
X165997523Y-65730467D03*
D16*
X167267523Y-68270467D03*
D17*
X162187523Y-68270467D03*
D15*
X164727523Y-63190467D03*
D17*
X162187523Y-68270467D03*
D15*
X158377523Y-65730467D03*
D16*
X157107523Y-68270467D03*
X167267523Y-68270467D03*
D15*
X140597443Y-63190467D03*
D16*
X138057443Y-68270467D03*
D15*
X146947443Y-65730467D03*
D16*
X148217443Y-68270467D03*
D17*
X143137443Y-68270467D03*
D15*
X145677443Y-63190467D03*
D17*
X143137443Y-68270467D03*
D15*
X139327443Y-65730467D03*
D16*
X138057443Y-68270467D03*
X148217443Y-68270467D03*
D15*
X121547363Y-63190467D03*
D16*
X119007363Y-68270467D03*
D15*
X127897363Y-65730467D03*
D16*
X129167363Y-68270467D03*
D17*
X124087363Y-68270467D03*
D15*
X126627363Y-63190467D03*
D17*
X124087363Y-68270467D03*
D15*
X120277363Y-65730467D03*
D16*
X119007363Y-68270467D03*
X129167363Y-68270467D03*
D15*
X102497283Y-63190467D03*
D16*
X99957283Y-68270467D03*
D15*
X108847283Y-65730467D03*
D16*
X110117283Y-68270467D03*
D17*
X105037283Y-68270467D03*
D15*
X107577283Y-63190467D03*
D17*
X105037283Y-68270467D03*
D15*
X101227283Y-65730467D03*
D16*
X99957283Y-68270467D03*
X110117283Y-68270467D03*
D15*
X83447203Y-63190467D03*
D16*
X80907203Y-68270467D03*
D15*
X89797203Y-65730467D03*
D16*
X91067203Y-68270467D03*
D17*
X85987203Y-68270467D03*
D15*
X88527203Y-63190467D03*
D17*
X85987203Y-68270467D03*
D15*
X82177203Y-65730467D03*
D16*
X80907203Y-68270467D03*
X91067203Y-68270467D03*
M02*
