M48
; DRILL file {KiCad (5.99.0-13181-gc0a6014114)} date Fri Nov 12 19:27:19 2021
; FORMAT={-:-/ absolute / inch / decimal}
; #@! TF.CreationDate,2021-11-12T19:27:19+09:00
; #@! TF.GenerationSoftware,Kicad,Pcbnew,(5.99.0-13181-gc0a6014114)
; #@! TF.FileFunction,Plated,1,2,PTH
FMAT,2
INCH
; #@! TA.AperFunction,Plated,PTH,ViaDrill
T1C0.0157
; #@! TA.AperFunction,Plated,PTH,ComponentDrill
T2C0.0315
; #@! TA.AperFunction,Plated,PTH,ComponentDrill
T3C0.0320
; #@! TA.AperFunction,Plated,PTH,ComponentDrill
T4C0.0394
; #@! TA.AperFunction,Plated,PTH,ComponentDrill
T5C0.0579
; #@! TA.AperFunction,Plated,PTH,ComponentDrill
T6C0.0591
%
G90
G05
T1
X3.2353Y-3.6742
X3.9853Y-3.7078
X4.7353Y-3.7255
X5.4853Y-3.7432
X6.2353Y-3.761
X6.985Y-3.7787
X7.5953Y-4.3378
T2
X3.7134Y-2.5378
X3.7134Y-2.8378
X3.7134Y-3.2878
X3.7134Y-3.5878
X3.7134Y-4.0378
X3.7134Y-4.3378
X3.7134Y-4.7878
X3.7134Y-5.0878
X4.4634Y-3.2878
X4.4634Y-3.5878
X4.4634Y-2.5378
X4.4634Y-2.8378
X4.4634Y-4.0378
X4.4634Y-4.3378
X4.4634Y-4.7878
X4.4634Y-5.0878
X5.2134Y-2.5378
X5.2134Y-2.8378
X5.2134Y-3.2878
X5.2134Y-3.5878
X5.2134Y-4.0378
X5.2134Y-4.3378
X5.2134Y-4.7878
X5.2134Y-5.0878
X5.9634Y-2.5378
X5.9634Y-2.8378
X5.9634Y-3.2878
X5.9634Y-3.5878
X5.9634Y-4.0378
X5.9634Y-4.3378
X5.9634Y-4.7878
X5.9634Y-5.0878
X6.0603Y-4.7878
X6.0603Y-5.0878
X6.6103Y-4.5628
X6.7134Y-4.0378
X6.7134Y-4.3378
X6.7134Y-2.5378
X6.7134Y-2.8378
X6.7134Y-3.2878
X6.7134Y-3.5878
X6.8072Y-4.0378
X6.8072Y-4.3378
X6.8072Y-2.5378
X6.8072Y-2.8378
X6.8072Y-3.2878
X6.8072Y-3.5878
X6.9103Y-4.5628
X7.5572Y-4.7878
X7.5572Y-5.0878
T3
X7.5851Y-2.49
X7.5851Y-2.59
X7.5851Y-2.69
X7.5851Y-2.79
X7.5851Y-2.89
X7.5851Y-2.99
X7.5851Y-3.09
X7.5851Y-3.19
X7.5851Y-3.29
X7.5851Y-3.39
X7.5851Y-3.49
X7.5851Y-3.59
X8.1851Y-2.49
X8.1851Y-2.59
X8.1851Y-2.69
X8.1851Y-2.79
X8.1851Y-2.89
X8.1851Y-2.99
X8.1851Y-3.09
X8.1851Y-3.19
X8.1851Y-3.29
X8.1851Y-3.39
X8.1851Y-3.49
X8.1851Y-3.59
T4
X7.7869Y-4.6425
X7.7869Y-5.2134
X7.8853Y-4.6425
X7.9837Y-4.6425
X7.9837Y-5.2134
T5
X3.2353Y-2.5878
X3.2353Y-3.3378
X3.2353Y-4.0878
X3.2353Y-4.8378
X3.2853Y-2.4878
X3.2853Y-3.2378
X3.2853Y-3.9878
X3.2853Y-4.7378
X3.4853Y-2.4878
X3.4853Y-3.2378
X3.4853Y-3.9878
X3.4853Y-4.7378
X3.5353Y-2.5878
X3.5353Y-3.3378
X3.5353Y-4.0878
X3.5353Y-4.8378
X3.9853Y-2.5878
X3.9853Y-3.3378
X3.9853Y-4.0878
X3.9853Y-4.8378
X4.0353Y-2.4878
X4.0353Y-3.2378
X4.0353Y-3.9878
X4.0353Y-4.7378
X4.2353Y-2.4878
X4.2353Y-3.2378
X4.2353Y-3.9878
X4.2353Y-4.7378
X4.2853Y-2.5878
X4.2853Y-3.3378
X4.2853Y-4.0878
X4.2853Y-4.8378
X4.7353Y-2.5878
X4.7353Y-3.3378
X4.7353Y-4.0878
X4.7353Y-4.8378
X4.7853Y-2.4878
X4.7853Y-3.2378
X4.7853Y-3.9878
X4.7853Y-4.7378
X4.9853Y-2.4878
X4.9853Y-3.2378
X4.9853Y-3.9878
X4.9853Y-4.7378
X5.0353Y-2.5878
X5.0353Y-3.3378
X5.0353Y-4.0878
X5.0353Y-4.8378
X5.4853Y-2.5878
X5.4853Y-3.3378
X5.4853Y-4.0878
X5.4853Y-4.8378
X5.5353Y-2.4878
X5.5353Y-3.2378
X5.5353Y-3.9878
X5.5353Y-4.7378
X5.7353Y-2.4878
X5.7353Y-3.2378
X5.7353Y-3.9878
X5.7353Y-4.7378
X5.7853Y-2.5878
X5.7853Y-3.3378
X5.7853Y-4.0878
X5.7853Y-4.8378
X6.2353Y-4.0878
X6.2353Y-5.0378
X6.2353Y-2.5878
X6.2353Y-3.3378
X6.2853Y-3.9878
X6.2853Y-5.1378
X6.2853Y-2.4878
X6.2853Y-3.2378
X6.4853Y-3.9878
X6.4853Y-5.1378
X6.4853Y-2.4878
X6.4853Y-3.2378
X6.5353Y-4.0878
X6.5353Y-5.0378
X6.5353Y-2.5878
X6.5353Y-3.3378
X6.6103Y-4.8378
X6.6603Y-4.7378
X6.8603Y-4.7378
X6.9103Y-4.8378
X6.9853Y-5.0378
X6.9853Y-2.5878
X6.9853Y-3.3378
X6.9853Y-4.0878
X7.0353Y-5.1378
X7.0353Y-2.4878
X7.0353Y-3.2378
X7.0353Y-3.9878
X7.2353Y-5.1378
X7.2353Y-2.4878
X7.2353Y-3.2378
X7.2353Y-3.9878
X7.2853Y-5.0378
X7.2853Y-2.5878
X7.2853Y-3.3378
X7.2853Y-4.0878
T2
G00X7.8391Y-4.2808
M15
G01X7.8312Y-4.2808
M16
G05
G00X7.8391Y-4.4698
M15
G01X7.8312Y-4.4698
M16
G05
G00X8.0359Y-4.2808
M15
G01X8.0281Y-4.2808
M16
G05
G00X8.0359Y-4.4698
M15
G01X8.0281Y-4.4698
M16
G05
G00X8.1147Y-4.2808
M15
G01X8.1068Y-4.2808
M16
G05
G00X8.1147Y-4.4698
M15
G01X8.1068Y-4.4698
M16
G05
T6
G00X7.6648Y-4.9122
M15
G01X7.6648Y-4.9634
M16
G05
G00X8.1058Y-4.9122
M15
G01X8.1058Y-4.9634
M16
G05
T0
M30
