G04 #@! TF.GenerationSoftware,KiCad,Pcbnew,(5.1.10)-1*
G04 #@! TF.CreationDate,2021-08-16T14:27:04+09:00*
G04 #@! TF.ProjectId,Lyra,4c797261-2e6b-4696-9361-645f70636258,rev?*
G04 #@! TF.SameCoordinates,Original*
G04 #@! TF.FileFunction,Soldermask,Bot*
G04 #@! TF.FilePolarity,Negative*
%FSLAX46Y46*%
G04 Gerber Fmt 4.6, Leading zero omitted, Abs format (unit mm)*
G04 Created by KiCad (PCBNEW (5.1.10)-1) date 2021-08-16 14:27:04*
%MOMM*%
%LPD*%
G01*
G04 APERTURE LIST*
%ADD10C,2.352000*%
%ADD11C,1.852000*%
%ADD12C,4.089800*%
%ADD13C,2.202000*%
%ADD14C,2.102000*%
%ADD15C,1.626000*%
%ADD16C,0.902000*%
%ADD17O,1.902000X1.302000*%
%ADD18C,2.302000*%
%ADD19C,3.150000*%
%ADD20O,1.702000X1.702000*%
%ADD21C,0.100000*%
G04 APERTURE END LIST*
D10*
X159647203Y-101290531D03*
D11*
X157107203Y-106370531D03*
D10*
X165997203Y-103830531D03*
D11*
X167267203Y-106370531D03*
D12*
X162187203Y-106370531D03*
D10*
X164727203Y-101290531D03*
D12*
X162187203Y-106370531D03*
D10*
X158377203Y-103830531D03*
D11*
X157107203Y-106370531D03*
X167267203Y-106370531D03*
G36*
G01*
X200287187Y-119919747D02*
X200287187Y-119919747D01*
G75*
G02*
X201138187Y-120770747I0J-851000D01*
G01*
X201138187Y-121070747D01*
G75*
G02*
X200287187Y-121921747I-851000J0D01*
G01*
X200287187Y-121921747D01*
G75*
G02*
X199436187Y-121070747I0J851000D01*
G01*
X199436187Y-120770747D01*
G75*
G02*
X200287187Y-119919747I851000J0D01*
G01*
G37*
G36*
G01*
X200287187Y-128919747D02*
X200287187Y-128919747D01*
G75*
G02*
X201138187Y-129770747I0J-851000D01*
G01*
X201138187Y-130070747D01*
G75*
G02*
X200287187Y-130921747I-851000J0D01*
G01*
X200287187Y-130921747D01*
G75*
G02*
X199436187Y-130070747I0J851000D01*
G01*
X199436187Y-129770747D01*
G75*
G02*
X200287187Y-128919747I851000J0D01*
G01*
G37*
D13*
X200287187Y-125420747D03*
D14*
X202787187Y-117920747D03*
X200287187Y-117920747D03*
X197787187Y-117920747D03*
G36*
G01*
X204887187Y-123769747D02*
X206887187Y-123769747D01*
G75*
G02*
X206938187Y-123820747I0J-51000D01*
G01*
X206938187Y-127020747D01*
G75*
G02*
X206887187Y-127071747I-51000J0D01*
G01*
X204887187Y-127071747D01*
G75*
G02*
X204836187Y-127020747I0J51000D01*
G01*
X204836187Y-123820747D01*
G75*
G02*
X204887187Y-123769747I51000J0D01*
G01*
G37*
G36*
G01*
X193687187Y-123769747D02*
X195687187Y-123769747D01*
G75*
G02*
X195738187Y-123820747I0J-51000D01*
G01*
X195738187Y-127020747D01*
G75*
G02*
X195687187Y-127071747I-51000J0D01*
G01*
X193687187Y-127071747D01*
G75*
G02*
X193636187Y-127020747I0J51000D01*
G01*
X193636187Y-123820747D01*
G75*
G02*
X193687187Y-123769747I51000J0D01*
G01*
G37*
X202787187Y-132420747D03*
X197787187Y-132420747D03*
D15*
X192662179Y-63245491D03*
X192662179Y-65785491D03*
X192662179Y-68325491D03*
X192662179Y-70865491D03*
X192662179Y-73405491D03*
X192662179Y-75945491D03*
X192662179Y-78485491D03*
X192662179Y-81025491D03*
X192662179Y-83565491D03*
X192662179Y-86105491D03*
X192662179Y-88645491D03*
X192662179Y-91185491D03*
X207902179Y-91185491D03*
X207902179Y-88645491D03*
X207902179Y-86105491D03*
X207902179Y-83565491D03*
X207902179Y-81025491D03*
X207902179Y-78485491D03*
X207902179Y-75945491D03*
X207902179Y-73405491D03*
X207902179Y-70865491D03*
X207902179Y-68325491D03*
X207902179Y-65785491D03*
X207902179Y-63245491D03*
D16*
X206012763Y-111133187D03*
X200012763Y-111133187D03*
D17*
X206012763Y-108733187D03*
X206012763Y-113533187D03*
X204012763Y-108733187D03*
X204012763Y-113533187D03*
X199012763Y-113533187D03*
X199012763Y-108733187D03*
D18*
X190762683Y-115895707D03*
X187190793Y-77795547D03*
X95512283Y-115895707D03*
X95512283Y-77795547D03*
D10*
X169172203Y-120340467D03*
D11*
X166632203Y-125420467D03*
D10*
X175522203Y-122880467D03*
D11*
X176792203Y-125420467D03*
D12*
X171712203Y-125420467D03*
D10*
X174252203Y-120340467D03*
D12*
X171712203Y-125420467D03*
D10*
X167902203Y-122880467D03*
D11*
X166632203Y-125420467D03*
X176792203Y-125420467D03*
D19*
X159805953Y-132405467D03*
X183618453Y-132405467D03*
D12*
X159805953Y-117165467D03*
X183618453Y-117165467D03*
D10*
X183777203Y-130500467D03*
D11*
X186317203Y-125420467D03*
D10*
X177427203Y-127960467D03*
D11*
X176157203Y-125420467D03*
D12*
X181237203Y-125420467D03*
D10*
X178697203Y-130500467D03*
D12*
X181237203Y-125420467D03*
D10*
X185047203Y-127960467D03*
D11*
X186317203Y-125420467D03*
X176157203Y-125420467D03*
D10*
X164727203Y-130500467D03*
D11*
X167267203Y-125420467D03*
D10*
X158377203Y-127960467D03*
D11*
X157107203Y-125420467D03*
D12*
X162187203Y-125420467D03*
D10*
X159647203Y-130500467D03*
D12*
X162187203Y-125420467D03*
D10*
X165997203Y-127960467D03*
D11*
X167267203Y-125420467D03*
X157107203Y-125420467D03*
D10*
X140597483Y-120340747D03*
D11*
X138057483Y-125420747D03*
D10*
X146947483Y-122880747D03*
D11*
X148217483Y-125420747D03*
D12*
X143137483Y-125420747D03*
D10*
X145677483Y-120340747D03*
D12*
X143137483Y-125420747D03*
D10*
X139327483Y-122880747D03*
D11*
X138057483Y-125420747D03*
X148217483Y-125420747D03*
D10*
X121547403Y-120340747D03*
D11*
X119007403Y-125420747D03*
D10*
X127897403Y-122880747D03*
D11*
X129167403Y-125420747D03*
D12*
X124087403Y-125420747D03*
D10*
X126627403Y-120340747D03*
D12*
X124087403Y-125420747D03*
D10*
X120277403Y-122880747D03*
D11*
X119007403Y-125420747D03*
X129167403Y-125420747D03*
D10*
X102497323Y-120340747D03*
D11*
X99957323Y-125420747D03*
D10*
X108847323Y-122880747D03*
D11*
X110117323Y-125420747D03*
D12*
X105037323Y-125420747D03*
D10*
X107577323Y-120340747D03*
D12*
X105037323Y-125420747D03*
D10*
X101227323Y-122880747D03*
D11*
X99957323Y-125420747D03*
X110117323Y-125420747D03*
D10*
X83447243Y-120340747D03*
D11*
X80907243Y-125420747D03*
D10*
X89797243Y-122880747D03*
D11*
X91067243Y-125420747D03*
D12*
X85987243Y-125420747D03*
D10*
X88527243Y-120340747D03*
D12*
X85987243Y-125420747D03*
D10*
X82177243Y-122880747D03*
D11*
X80907243Y-125420747D03*
X91067243Y-125420747D03*
D10*
X178697643Y-101290667D03*
D11*
X176157643Y-106370667D03*
D10*
X185047643Y-103830667D03*
D11*
X186317643Y-106370667D03*
D12*
X181237643Y-106370667D03*
D10*
X183777643Y-101290667D03*
D12*
X181237643Y-106370667D03*
D10*
X177427643Y-103830667D03*
D11*
X176157643Y-106370667D03*
X186317643Y-106370667D03*
D10*
X140597483Y-101290667D03*
D11*
X138057483Y-106370667D03*
D10*
X146947483Y-103830667D03*
D11*
X148217483Y-106370667D03*
D12*
X143137483Y-106370667D03*
D10*
X145677483Y-101290667D03*
D12*
X143137483Y-106370667D03*
D10*
X139327483Y-103830667D03*
D11*
X138057483Y-106370667D03*
X148217483Y-106370667D03*
D10*
X121547403Y-101290667D03*
D11*
X119007403Y-106370667D03*
D10*
X127897403Y-103830667D03*
D11*
X129167403Y-106370667D03*
D12*
X124087403Y-106370667D03*
D10*
X126627403Y-101290667D03*
D12*
X124087403Y-106370667D03*
D10*
X120277403Y-103830667D03*
D11*
X119007403Y-106370667D03*
X129167403Y-106370667D03*
D10*
X102497323Y-101290667D03*
D11*
X99957323Y-106370667D03*
D10*
X108847323Y-103830667D03*
D11*
X110117323Y-106370667D03*
D12*
X105037323Y-106370667D03*
D10*
X107577323Y-101290667D03*
D12*
X105037323Y-106370667D03*
D10*
X101227323Y-103830667D03*
D11*
X99957323Y-106370667D03*
X110117323Y-106370667D03*
D10*
X83447243Y-101290667D03*
D11*
X80907243Y-106370667D03*
D10*
X89797243Y-103830667D03*
D11*
X91067243Y-106370667D03*
D12*
X85987243Y-106370667D03*
D10*
X88527243Y-101290667D03*
D12*
X85987243Y-106370667D03*
D10*
X82177243Y-103830667D03*
D11*
X80907243Y-106370667D03*
X91067243Y-106370667D03*
D10*
X178697643Y-82240587D03*
D11*
X176157643Y-87320587D03*
D10*
X185047643Y-84780587D03*
D11*
X186317643Y-87320587D03*
D12*
X181237643Y-87320587D03*
D10*
X183777643Y-82240587D03*
D12*
X181237643Y-87320587D03*
D10*
X177427643Y-84780587D03*
D11*
X176157643Y-87320587D03*
X186317643Y-87320587D03*
D10*
X159647563Y-82240587D03*
D11*
X157107563Y-87320587D03*
D10*
X165997563Y-84780587D03*
D11*
X167267563Y-87320587D03*
D12*
X162187563Y-87320587D03*
D10*
X164727563Y-82240587D03*
D12*
X162187563Y-87320587D03*
D10*
X158377563Y-84780587D03*
D11*
X157107563Y-87320587D03*
X167267563Y-87320587D03*
D10*
X140597483Y-82240587D03*
D11*
X138057483Y-87320587D03*
D10*
X146947483Y-84780587D03*
D11*
X148217483Y-87320587D03*
D12*
X143137483Y-87320587D03*
D10*
X145677483Y-82240587D03*
D12*
X143137483Y-87320587D03*
D10*
X139327483Y-84780587D03*
D11*
X138057483Y-87320587D03*
X148217483Y-87320587D03*
D10*
X121547403Y-82240587D03*
D11*
X119007403Y-87320587D03*
D10*
X127897403Y-84780587D03*
D11*
X129167403Y-87320587D03*
D12*
X124087403Y-87320587D03*
D10*
X126627403Y-82240587D03*
D12*
X124087403Y-87320587D03*
D10*
X120277403Y-84780587D03*
D11*
X119007403Y-87320587D03*
X129167403Y-87320587D03*
D10*
X102497323Y-82240587D03*
D11*
X99957323Y-87320587D03*
D10*
X108847323Y-84780587D03*
D11*
X110117323Y-87320587D03*
D12*
X105037323Y-87320587D03*
D10*
X107577323Y-82240587D03*
D12*
X105037323Y-87320587D03*
D10*
X101227323Y-84780587D03*
D11*
X99957323Y-87320587D03*
X110117323Y-87320587D03*
D10*
X83447243Y-82240587D03*
D11*
X80907243Y-87320587D03*
D10*
X89797243Y-84780587D03*
D11*
X91067243Y-87320587D03*
D12*
X85987243Y-87320587D03*
D10*
X88527243Y-82240587D03*
D12*
X85987243Y-87320587D03*
D10*
X82177243Y-84780587D03*
D11*
X80907243Y-87320587D03*
X91067243Y-87320587D03*
D10*
X178697603Y-63190467D03*
D11*
X176157603Y-68270467D03*
D10*
X185047603Y-65730467D03*
D11*
X186317603Y-68270467D03*
D12*
X181237603Y-68270467D03*
D10*
X183777603Y-63190467D03*
D12*
X181237603Y-68270467D03*
D10*
X177427603Y-65730467D03*
D11*
X176157603Y-68270467D03*
X186317603Y-68270467D03*
D10*
X159647523Y-63190467D03*
D11*
X157107523Y-68270467D03*
D10*
X165997523Y-65730467D03*
D11*
X167267523Y-68270467D03*
D12*
X162187523Y-68270467D03*
D10*
X164727523Y-63190467D03*
D12*
X162187523Y-68270467D03*
D10*
X158377523Y-65730467D03*
D11*
X157107523Y-68270467D03*
X167267523Y-68270467D03*
D10*
X140597443Y-63190467D03*
D11*
X138057443Y-68270467D03*
D10*
X146947443Y-65730467D03*
D11*
X148217443Y-68270467D03*
D12*
X143137443Y-68270467D03*
D10*
X145677443Y-63190467D03*
D12*
X143137443Y-68270467D03*
D10*
X139327443Y-65730467D03*
D11*
X138057443Y-68270467D03*
X148217443Y-68270467D03*
D10*
X121547363Y-63190467D03*
D11*
X119007363Y-68270467D03*
D10*
X127897363Y-65730467D03*
D11*
X129167363Y-68270467D03*
D12*
X124087363Y-68270467D03*
D10*
X126627363Y-63190467D03*
D12*
X124087363Y-68270467D03*
D10*
X120277363Y-65730467D03*
D11*
X119007363Y-68270467D03*
X129167363Y-68270467D03*
D10*
X102497283Y-63190467D03*
D11*
X99957283Y-68270467D03*
D10*
X108847283Y-65730467D03*
D11*
X110117283Y-68270467D03*
D12*
X105037283Y-68270467D03*
D10*
X107577283Y-63190467D03*
D12*
X105037283Y-68270467D03*
D10*
X101227283Y-65730467D03*
D11*
X99957283Y-68270467D03*
X110117283Y-68270467D03*
D10*
X83447203Y-63190467D03*
D11*
X80907203Y-68270467D03*
D10*
X89797203Y-65730467D03*
D11*
X91067203Y-68270467D03*
D12*
X85987203Y-68270467D03*
D10*
X88527203Y-63190467D03*
D12*
X85987203Y-68270467D03*
D10*
X82177203Y-65730467D03*
D11*
X80907203Y-68270467D03*
X91067203Y-68270467D03*
D20*
X191691430Y-129468857D03*
G36*
G01*
X190891430Y-120997857D02*
X192491430Y-120997857D01*
G75*
G02*
X192542430Y-121048857I0J-51000D01*
G01*
X192542430Y-122648857D01*
G75*
G02*
X192491430Y-122699857I-51000J0D01*
G01*
X190891430Y-122699857D01*
G75*
G02*
X190840430Y-122648857I0J51000D01*
G01*
X190840430Y-121048857D01*
G75*
G02*
X190891430Y-120997857I51000J0D01*
G01*
G37*
G36*
G01*
X176301500Y-115095467D02*
X176301500Y-116695467D01*
G75*
G02*
X176250500Y-116746467I-51000J0D01*
G01*
X174650500Y-116746467D01*
G75*
G02*
X174599500Y-116695467I0J51000D01*
G01*
X174599500Y-115095467D01*
G75*
G02*
X174650500Y-115044467I51000J0D01*
G01*
X176250500Y-115044467D01*
G75*
G02*
X176301500Y-115095467I0J-51000D01*
G01*
G37*
X167830500Y-115895467D03*
X153852828Y-129468592D03*
G36*
G01*
X153052828Y-120997592D02*
X154652828Y-120997592D01*
G75*
G02*
X154703828Y-121048592I0J-51000D01*
G01*
X154703828Y-122648592D01*
G75*
G02*
X154652828Y-122699592I-51000J0D01*
G01*
X153052828Y-122699592D01*
G75*
G02*
X153001828Y-122648592I0J51000D01*
G01*
X153001828Y-121048592D01*
G75*
G02*
X153052828Y-120997592I51000J0D01*
G01*
G37*
X151471578Y-121848656D03*
G36*
G01*
X152271578Y-130319656D02*
X150671578Y-130319656D01*
G75*
G02*
X150620578Y-130268656I0J51000D01*
G01*
X150620578Y-128668656D01*
G75*
G02*
X150671578Y-128617656I51000J0D01*
G01*
X152271578Y-128617656D01*
G75*
G02*
X152322578Y-128668656I0J-51000D01*
G01*
X152322578Y-130268656D01*
G75*
G02*
X152271578Y-130319656I-51000J0D01*
G01*
G37*
X132421578Y-121848656D03*
G36*
G01*
X133221578Y-130319656D02*
X131621578Y-130319656D01*
G75*
G02*
X131570578Y-130268656I0J51000D01*
G01*
X131570578Y-128668656D01*
G75*
G02*
X131621578Y-128617656I51000J0D01*
G01*
X133221578Y-128617656D01*
G75*
G02*
X133272578Y-128668656I0J-51000D01*
G01*
X133272578Y-130268656D01*
G75*
G02*
X133221578Y-130319656I-51000J0D01*
G01*
G37*
X113371578Y-121848656D03*
G36*
G01*
X114171578Y-130319656D02*
X112571578Y-130319656D01*
G75*
G02*
X112520578Y-130268656I0J51000D01*
G01*
X112520578Y-128668656D01*
G75*
G02*
X112571578Y-128617656I51000J0D01*
G01*
X114171578Y-128617656D01*
G75*
G02*
X114222578Y-128668656I0J-51000D01*
G01*
X114222578Y-130268656D01*
G75*
G02*
X114171578Y-130319656I-51000J0D01*
G01*
G37*
X94321578Y-121848656D03*
G36*
G01*
X95121578Y-130319656D02*
X93521578Y-130319656D01*
G75*
G02*
X93470578Y-130268656I0J51000D01*
G01*
X93470578Y-128668656D01*
G75*
G02*
X93521578Y-128617656I51000J0D01*
G01*
X95121578Y-128617656D01*
G75*
G02*
X95172578Y-128668656I0J-51000D01*
G01*
X95172578Y-130268656D01*
G75*
G02*
X95121578Y-130319656I-51000J0D01*
G01*
G37*
X172902781Y-102917722D03*
G36*
G01*
X173702781Y-111388722D02*
X172102781Y-111388722D01*
G75*
G02*
X172051781Y-111337722I0J51000D01*
G01*
X172051781Y-109737722D01*
G75*
G02*
X172102781Y-109686722I51000J0D01*
G01*
X173702781Y-109686722D01*
G75*
G02*
X173753781Y-109737722I0J-51000D01*
G01*
X173753781Y-111337722D01*
G75*
G02*
X173702781Y-111388722I-51000J0D01*
G01*
G37*
X170521529Y-102917722D03*
G36*
G01*
X171321529Y-111388722D02*
X169721529Y-111388722D01*
G75*
G02*
X169670529Y-111337722I0J51000D01*
G01*
X169670529Y-109737722D01*
G75*
G02*
X169721529Y-109686722I51000J0D01*
G01*
X171321529Y-109686722D01*
G75*
G02*
X171372529Y-109737722I0J-51000D01*
G01*
X171372529Y-111337722D01*
G75*
G02*
X171321529Y-111388722I-51000J0D01*
G01*
G37*
X151471578Y-102798656D03*
G36*
G01*
X152271578Y-111269656D02*
X150671578Y-111269656D01*
G75*
G02*
X150620578Y-111218656I0J51000D01*
G01*
X150620578Y-109618656D01*
G75*
G02*
X150671578Y-109567656I51000J0D01*
G01*
X152271578Y-109567656D01*
G75*
G02*
X152322578Y-109618656I0J-51000D01*
G01*
X152322578Y-111218656D01*
G75*
G02*
X152271578Y-111269656I-51000J0D01*
G01*
G37*
X132421578Y-102798656D03*
G36*
G01*
X133221578Y-111269656D02*
X131621578Y-111269656D01*
G75*
G02*
X131570578Y-111218656I0J51000D01*
G01*
X131570578Y-109618656D01*
G75*
G02*
X131621578Y-109567656I51000J0D01*
G01*
X133221578Y-109567656D01*
G75*
G02*
X133272578Y-109618656I0J-51000D01*
G01*
X133272578Y-111218656D01*
G75*
G02*
X133221578Y-111269656I-51000J0D01*
G01*
G37*
X113371578Y-102798656D03*
G36*
G01*
X114171578Y-111269656D02*
X112571578Y-111269656D01*
G75*
G02*
X112520578Y-111218656I0J51000D01*
G01*
X112520578Y-109618656D01*
G75*
G02*
X112571578Y-109567656I51000J0D01*
G01*
X114171578Y-109567656D01*
G75*
G02*
X114222578Y-109618656I0J-51000D01*
G01*
X114222578Y-111218656D01*
G75*
G02*
X114171578Y-111269656I-51000J0D01*
G01*
G37*
X94321578Y-102798656D03*
G36*
G01*
X95121578Y-111269656D02*
X93521578Y-111269656D01*
G75*
G02*
X93470578Y-111218656I0J51000D01*
G01*
X93470578Y-109618656D01*
G75*
G02*
X93521578Y-109567656I51000J0D01*
G01*
X95121578Y-109567656D01*
G75*
G02*
X95172578Y-109618656I0J-51000D01*
G01*
X95172578Y-111218656D01*
G75*
G02*
X95121578Y-111269656I-51000J0D01*
G01*
G37*
X172902828Y-83748656D03*
G36*
G01*
X173702828Y-92219656D02*
X172102828Y-92219656D01*
G75*
G02*
X172051828Y-92168656I0J51000D01*
G01*
X172051828Y-90568656D01*
G75*
G02*
X172102828Y-90517656I51000J0D01*
G01*
X173702828Y-90517656D01*
G75*
G02*
X173753828Y-90568656I0J-51000D01*
G01*
X173753828Y-92168656D01*
G75*
G02*
X173702828Y-92219656I-51000J0D01*
G01*
G37*
X170521578Y-83748656D03*
G36*
G01*
X171321578Y-92219656D02*
X169721578Y-92219656D01*
G75*
G02*
X169670578Y-92168656I0J51000D01*
G01*
X169670578Y-90568656D01*
G75*
G02*
X169721578Y-90517656I51000J0D01*
G01*
X171321578Y-90517656D01*
G75*
G02*
X171372578Y-90568656I0J-51000D01*
G01*
X171372578Y-92168656D01*
G75*
G02*
X171321578Y-92219656I-51000J0D01*
G01*
G37*
X151471578Y-83748656D03*
G36*
G01*
X152271578Y-92219656D02*
X150671578Y-92219656D01*
G75*
G02*
X150620578Y-92168656I0J51000D01*
G01*
X150620578Y-90568656D01*
G75*
G02*
X150671578Y-90517656I51000J0D01*
G01*
X152271578Y-90517656D01*
G75*
G02*
X152322578Y-90568656I0J-51000D01*
G01*
X152322578Y-92168656D01*
G75*
G02*
X152271578Y-92219656I-51000J0D01*
G01*
G37*
X132421578Y-83748656D03*
G36*
G01*
X133221578Y-92219656D02*
X131621578Y-92219656D01*
G75*
G02*
X131570578Y-92168656I0J51000D01*
G01*
X131570578Y-90568656D01*
G75*
G02*
X131621578Y-90517656I51000J0D01*
G01*
X133221578Y-90517656D01*
G75*
G02*
X133272578Y-90568656I0J-51000D01*
G01*
X133272578Y-92168656D01*
G75*
G02*
X133221578Y-92219656I-51000J0D01*
G01*
G37*
X113371576Y-83748656D03*
G36*
G01*
X114171576Y-92219656D02*
X112571576Y-92219656D01*
G75*
G02*
X112520576Y-92168656I0J51000D01*
G01*
X112520576Y-90568656D01*
G75*
G02*
X112571576Y-90517656I51000J0D01*
G01*
X114171576Y-90517656D01*
G75*
G02*
X114222576Y-90568656I0J-51000D01*
G01*
X114222576Y-92168656D01*
G75*
G02*
X114171576Y-92219656I-51000J0D01*
G01*
G37*
X94321578Y-83748656D03*
G36*
G01*
X95121578Y-92219656D02*
X93521578Y-92219656D01*
G75*
G02*
X93470578Y-92168656I0J51000D01*
G01*
X93470578Y-90568656D01*
G75*
G02*
X93521578Y-90517656I51000J0D01*
G01*
X95121578Y-90517656D01*
G75*
G02*
X95172578Y-90568656I0J-51000D01*
G01*
X95172578Y-92168656D01*
G75*
G02*
X95121578Y-92219656I-51000J0D01*
G01*
G37*
X172902828Y-64698656D03*
G36*
G01*
X173702828Y-73169656D02*
X172102828Y-73169656D01*
G75*
G02*
X172051828Y-73118656I0J51000D01*
G01*
X172051828Y-71518656D01*
G75*
G02*
X172102828Y-71467656I51000J0D01*
G01*
X173702828Y-71467656D01*
G75*
G02*
X173753828Y-71518656I0J-51000D01*
G01*
X173753828Y-73118656D01*
G75*
G02*
X173702828Y-73169656I-51000J0D01*
G01*
G37*
X170521578Y-64698656D03*
G36*
G01*
X171321578Y-73169656D02*
X169721578Y-73169656D01*
G75*
G02*
X169670578Y-73118656I0J51000D01*
G01*
X169670578Y-71518656D01*
G75*
G02*
X169721578Y-71467656I51000J0D01*
G01*
X171321578Y-71467656D01*
G75*
G02*
X171372578Y-71518656I0J-51000D01*
G01*
X171372578Y-73118656D01*
G75*
G02*
X171321578Y-73169656I-51000J0D01*
G01*
G37*
X151471578Y-64698656D03*
G36*
G01*
X152271578Y-73169656D02*
X150671578Y-73169656D01*
G75*
G02*
X150620578Y-73118656I0J51000D01*
G01*
X150620578Y-71518656D01*
G75*
G02*
X150671578Y-71467656I51000J0D01*
G01*
X152271578Y-71467656D01*
G75*
G02*
X152322578Y-71518656I0J-51000D01*
G01*
X152322578Y-73118656D01*
G75*
G02*
X152271578Y-73169656I-51000J0D01*
G01*
G37*
X132421578Y-64698656D03*
G36*
G01*
X133221578Y-73169656D02*
X131621578Y-73169656D01*
G75*
G02*
X131570578Y-73118656I0J51000D01*
G01*
X131570578Y-71518656D01*
G75*
G02*
X131621578Y-71467656I51000J0D01*
G01*
X133221578Y-71467656D01*
G75*
G02*
X133272578Y-71518656I0J-51000D01*
G01*
X133272578Y-73118656D01*
G75*
G02*
X133221578Y-73169656I-51000J0D01*
G01*
G37*
X113371576Y-64698656D03*
G36*
G01*
X114171576Y-73169656D02*
X112571576Y-73169656D01*
G75*
G02*
X112520576Y-73118656I0J51000D01*
G01*
X112520576Y-71518656D01*
G75*
G02*
X112571576Y-71467656I51000J0D01*
G01*
X114171576Y-71467656D01*
G75*
G02*
X114222576Y-71518656I0J-51000D01*
G01*
X114222576Y-73118656D01*
G75*
G02*
X114171576Y-73169656I-51000J0D01*
G01*
G37*
X94321578Y-64698656D03*
G36*
G01*
X95121578Y-73169656D02*
X93521578Y-73169656D01*
G75*
G02*
X93470578Y-73118656I0J51000D01*
G01*
X93470578Y-71518656D01*
G75*
G02*
X93521578Y-71467656I51000J0D01*
G01*
X95121578Y-71467656D01*
G75*
G02*
X95172578Y-71518656I0J-51000D01*
G01*
X95172578Y-73118656D01*
G75*
G02*
X95121578Y-73169656I-51000J0D01*
G01*
G37*
D21*
G36*
X204907597Y-113267467D02*
G01*
X204917692Y-113282576D01*
X204934739Y-113299623D01*
X204954786Y-113313017D01*
X204977060Y-113322244D01*
X205000710Y-113326948D01*
X205024816Y-113326948D01*
X205048466Y-113322244D01*
X205070740Y-113313017D01*
X205090788Y-113299622D01*
X205107835Y-113282575D01*
X205117929Y-113267467D01*
X205119723Y-113266582D01*
X205121386Y-113267693D01*
X205121356Y-113269521D01*
X205113174Y-113284829D01*
X205076242Y-113406578D01*
X205063772Y-113533187D01*
X205076242Y-113659796D01*
X205113174Y-113781545D01*
X205121356Y-113796853D01*
X205121290Y-113798852D01*
X205119527Y-113799795D01*
X205117929Y-113798907D01*
X205107834Y-113783798D01*
X205090787Y-113766751D01*
X205070740Y-113753357D01*
X205048466Y-113744130D01*
X205024816Y-113739426D01*
X205000710Y-113739426D01*
X204977060Y-113744130D01*
X204954786Y-113753357D01*
X204934738Y-113766752D01*
X204917691Y-113783799D01*
X204907597Y-113798907D01*
X204905803Y-113799792D01*
X204904140Y-113798681D01*
X204904170Y-113796853D01*
X204912352Y-113781545D01*
X204949284Y-113659796D01*
X204961754Y-113533187D01*
X204949284Y-113406578D01*
X204912352Y-113284829D01*
X204904170Y-113269521D01*
X204904236Y-113267522D01*
X204905999Y-113266579D01*
X204907597Y-113267467D01*
G37*
G36*
X204907597Y-108467467D02*
G01*
X204917692Y-108482576D01*
X204934739Y-108499623D01*
X204954786Y-108513017D01*
X204977060Y-108522244D01*
X205000710Y-108526948D01*
X205024816Y-108526948D01*
X205048466Y-108522244D01*
X205070740Y-108513017D01*
X205090788Y-108499622D01*
X205107835Y-108482575D01*
X205117929Y-108467467D01*
X205119723Y-108466582D01*
X205121386Y-108467693D01*
X205121356Y-108469521D01*
X205113174Y-108484829D01*
X205076242Y-108606578D01*
X205063772Y-108733187D01*
X205076242Y-108859796D01*
X205113174Y-108981545D01*
X205121356Y-108996853D01*
X205121290Y-108998852D01*
X205119527Y-108999795D01*
X205117929Y-108998907D01*
X205107834Y-108983798D01*
X205090787Y-108966751D01*
X205070740Y-108953357D01*
X205048466Y-108944130D01*
X205024816Y-108939426D01*
X205000710Y-108939426D01*
X204977060Y-108944130D01*
X204954786Y-108953357D01*
X204934738Y-108966752D01*
X204917691Y-108983799D01*
X204907597Y-108998907D01*
X204905803Y-108999792D01*
X204904140Y-108998681D01*
X204904170Y-108996853D01*
X204912352Y-108981545D01*
X204949284Y-108859796D01*
X204961754Y-108733187D01*
X204949284Y-108606578D01*
X204912352Y-108484829D01*
X204904170Y-108469521D01*
X204904236Y-108467522D01*
X204905999Y-108466579D01*
X204907597Y-108467467D01*
G37*
M02*
