G04 #@! TF.GenerationSoftware,KiCad,Pcbnew,(5.1.10)-1*
G04 #@! TF.CreationDate,2021-08-15T11:16:39+09:00*
G04 #@! TF.ProjectId,Lyra,4c797261-2e6b-4696-9361-645f70636258,rev?*
G04 #@! TF.SameCoordinates,Original*
G04 #@! TF.FileFunction,Legend,Top*
G04 #@! TF.FilePolarity,Positive*
%FSLAX46Y46*%
G04 Gerber Fmt 4.6, Leading zero omitted, Abs format (unit mm)*
G04 Created by KiCad (PCBNEW (5.1.10)-1) date 2021-08-15 11:16:39*
%MOMM*%
%LPD*%
G01*
G04 APERTURE LIST*
%ADD10C,0.150000*%
%ADD11C,0.120000*%
%ADD12C,0.010000*%
%ADD13C,2.352000*%
%ADD14C,1.852000*%
%ADD15C,4.089800*%
%ADD16C,2.202000*%
%ADD17C,2.102000*%
%ADD18C,1.626000*%
%ADD19C,0.902000*%
%ADD20O,1.902000X1.302000*%
%ADD21C,2.302000*%
%ADD22C,3.150000*%
%ADD23O,1.702000X1.702000*%
G04 APERTURE END LIST*
D10*
X82155140Y-133243098D02*
X81440854Y-133243098D01*
X81440854Y-131743098D01*
X82512283Y-132243098D02*
X82869425Y-133243098D01*
X83226568Y-132243098D02*
X82869425Y-133243098D01*
X82726568Y-133600241D01*
X82655140Y-133671669D01*
X82512283Y-133743098D01*
X83797997Y-133243098D02*
X83797997Y-132243098D01*
X83797997Y-132528812D02*
X83869425Y-132385955D01*
X83940854Y-132314527D01*
X84083711Y-132243098D01*
X84226568Y-132243098D01*
X85369425Y-133243098D02*
X85369425Y-132457384D01*
X85297997Y-132314527D01*
X85155140Y-132243098D01*
X84869425Y-132243098D01*
X84726568Y-132314527D01*
X85369425Y-133171669D02*
X85226568Y-133243098D01*
X84869425Y-133243098D01*
X84726568Y-133171669D01*
X84655140Y-133028812D01*
X84655140Y-132885955D01*
X84726568Y-132743098D01*
X84869425Y-132671669D01*
X85226568Y-132671669D01*
X85369425Y-132600241D01*
X87226568Y-133243098D02*
X87226568Y-132243098D01*
X87226568Y-132528812D02*
X87297997Y-132385955D01*
X87369425Y-132314527D01*
X87512283Y-132243098D01*
X87655140Y-132243098D01*
X88726568Y-133171669D02*
X88583711Y-133243098D01*
X88297997Y-133243098D01*
X88155140Y-133171669D01*
X88083711Y-133028812D01*
X88083711Y-132457384D01*
X88155140Y-132314527D01*
X88297997Y-132243098D01*
X88583711Y-132243098D01*
X88726568Y-132314527D01*
X88797997Y-132457384D01*
X88797997Y-132600241D01*
X88083711Y-132743098D01*
X89297997Y-132243098D02*
X89655140Y-133243098D01*
X90012283Y-132243098D01*
X90512283Y-131885955D02*
X90583711Y-131814527D01*
X90726568Y-131743098D01*
X91083711Y-131743098D01*
X91226568Y-131814527D01*
X91297997Y-131885955D01*
X91369425Y-132028812D01*
X91369425Y-132171669D01*
X91297997Y-132385955D01*
X90440854Y-133243098D01*
X91369425Y-133243098D01*
X92012283Y-133100241D02*
X92083711Y-133171669D01*
X92012283Y-133243098D01*
X91940854Y-133171669D01*
X92012283Y-133100241D01*
X92012283Y-133243098D01*
X92655140Y-131885955D02*
X92726568Y-131814527D01*
X92869425Y-131743098D01*
X93226568Y-131743098D01*
X93369425Y-131814527D01*
X93440854Y-131885955D01*
X93512283Y-132028812D01*
X93512283Y-132171669D01*
X93440854Y-132385955D01*
X92583711Y-133243098D01*
X93512283Y-133243098D01*
X95297997Y-133243098D02*
X95297997Y-131743098D01*
X95297997Y-132314527D02*
X95440854Y-132243098D01*
X95726568Y-132243098D01*
X95869425Y-132314527D01*
X95940854Y-132385955D01*
X96012283Y-132528812D01*
X96012283Y-132957384D01*
X95940854Y-133100241D01*
X95869425Y-133171669D01*
X95726568Y-133243098D01*
X95440854Y-133243098D01*
X95297997Y-133171669D01*
X96512283Y-132243098D02*
X96869425Y-133243098D01*
X97226568Y-132243098D02*
X96869425Y-133243098D01*
X96726568Y-133600241D01*
X96655140Y-133671669D01*
X96512283Y-133743098D01*
X99869425Y-132528812D02*
X99797997Y-132457384D01*
X99655140Y-132385955D01*
X99512283Y-132385955D01*
X99369425Y-132457384D01*
X99297997Y-132528812D01*
X99226568Y-132671669D01*
X99226568Y-132814527D01*
X99297997Y-132957384D01*
X99369425Y-133028812D01*
X99512283Y-133100241D01*
X99655140Y-133100241D01*
X99797997Y-133028812D01*
X99869425Y-132957384D01*
X99869425Y-132385955D02*
X99869425Y-132957384D01*
X99940854Y-133028812D01*
X100012283Y-133028812D01*
X100155140Y-132957384D01*
X100226568Y-132814527D01*
X100226568Y-132457384D01*
X100083711Y-132243098D01*
X99869425Y-132100241D01*
X99583711Y-132028812D01*
X99297997Y-132100241D01*
X99083711Y-132243098D01*
X98940854Y-132457384D01*
X98869425Y-132743098D01*
X98940854Y-133028812D01*
X99083711Y-133243098D01*
X99297997Y-133385955D01*
X99583711Y-133457384D01*
X99869425Y-133385955D01*
X100083711Y-133243098D01*
X100869425Y-132243098D02*
X100869425Y-133743098D01*
X100869425Y-132314527D02*
X101012283Y-132243098D01*
X101297997Y-132243098D01*
X101440854Y-132314527D01*
X101512283Y-132385955D01*
X101583711Y-132528812D01*
X101583711Y-132957384D01*
X101512283Y-133100241D01*
X101440854Y-133171669D01*
X101297997Y-133243098D01*
X101012283Y-133243098D01*
X100869425Y-133171669D01*
X102869425Y-133243098D02*
X102869425Y-132457384D01*
X102797997Y-132314527D01*
X102655140Y-132243098D01*
X102369425Y-132243098D01*
X102226568Y-132314527D01*
X102869425Y-133171669D02*
X102726568Y-133243098D01*
X102369425Y-133243098D01*
X102226568Y-133171669D01*
X102155140Y-133028812D01*
X102155140Y-132885955D01*
X102226568Y-132743098D01*
X102369425Y-132671669D01*
X102726568Y-132671669D01*
X102869425Y-132600241D01*
X103583711Y-133243098D02*
X103583711Y-132243098D01*
X103583711Y-132528812D02*
X103655140Y-132385955D01*
X103726568Y-132314527D01*
X103869425Y-132243098D01*
X104012283Y-132243098D01*
X104512283Y-133243098D02*
X104512283Y-131743098D01*
X104655140Y-132671669D02*
X105083711Y-133243098D01*
X105083711Y-132243098D02*
X104512283Y-132814527D01*
X105726568Y-133100241D02*
X105797997Y-133171669D01*
X105726568Y-133243098D01*
X105655140Y-133171669D01*
X105726568Y-133100241D01*
X105726568Y-133243098D01*
X107083711Y-133171669D02*
X106940854Y-133243098D01*
X106655140Y-133243098D01*
X106512283Y-133171669D01*
X106440854Y-133100241D01*
X106369425Y-132957384D01*
X106369425Y-132528812D01*
X106440854Y-132385955D01*
X106512283Y-132314527D01*
X106655140Y-132243098D01*
X106940854Y-132243098D01*
X107083711Y-132314527D01*
X107655140Y-133171669D02*
X107797997Y-133243098D01*
X108083711Y-133243098D01*
X108226568Y-133171669D01*
X108297997Y-133028812D01*
X108297997Y-132957384D01*
X108226568Y-132814527D01*
X108083711Y-132743098D01*
X107869425Y-132743098D01*
X107726568Y-132671669D01*
X107655140Y-132528812D01*
X107655140Y-132457384D01*
X107726568Y-132314527D01*
X107869425Y-132243098D01*
X108083711Y-132243098D01*
X108226568Y-132314527D01*
X109583711Y-132243098D02*
X109583711Y-133243098D01*
X108940854Y-132243098D02*
X108940854Y-133028812D01*
X109012283Y-133171669D01*
X109155140Y-133243098D01*
X109369425Y-133243098D01*
X109512283Y-133171669D01*
X109583711Y-133100241D01*
D11*
X194499187Y-131429747D02*
X194499187Y-119429747D01*
X206099187Y-131429747D02*
X194499187Y-131429747D01*
X204999187Y-119429747D02*
X206099187Y-120429747D01*
X194499187Y-119429747D02*
X204999187Y-119429747D01*
X206099187Y-120429747D02*
X206099187Y-131429747D01*
X199162162Y-60995550D02*
X199162162Y-59745617D01*
X201412095Y-59745617D02*
X201911966Y-59745617D01*
X195202048Y-73405482D02*
X195202048Y-68325483D01*
X197162167Y-59245491D02*
X197662039Y-59745617D01*
X198662037Y-59745617D02*
X198662037Y-60995550D01*
X201911966Y-59745617D02*
X201911966Y-60995550D01*
X201412095Y-60995550D02*
X201412095Y-59745617D01*
X202911964Y-62245485D02*
X202911964Y-59245491D01*
X199162162Y-59745617D02*
X198662037Y-59745617D01*
X201911966Y-60995550D02*
X201412095Y-60995550D01*
X197911974Y-62495421D02*
X197911974Y-62245485D01*
X209412079Y-92745550D02*
X191162179Y-92745550D01*
X197911974Y-62245485D02*
X198162165Y-62245485D01*
X198162165Y-62245485D02*
X198162165Y-62495421D01*
X202662029Y-62495421D02*
X202911964Y-62245485D01*
X197742049Y-73405482D02*
X195202048Y-73405482D01*
X209412079Y-59245491D02*
X209412079Y-92745550D01*
X197662039Y-62245485D02*
X197911974Y-62495421D01*
X197911974Y-62495421D02*
X202662029Y-62495421D01*
X202911964Y-59745617D02*
X203412090Y-59245491D01*
X191162179Y-59245491D02*
X209412079Y-59245491D01*
X191162179Y-92745550D02*
X191162179Y-59245491D01*
X197662039Y-59245491D02*
X197662039Y-62245485D01*
X198662037Y-60995550D02*
X199162162Y-60995550D01*
X200282048Y-73585490D02*
X205362049Y-78665491D01*
X200282048Y-83745491D02*
X195202048Y-78665491D01*
X202162156Y-62745611D02*
X202162156Y-62495421D01*
X198412100Y-62495421D02*
X198412100Y-62745611D01*
X205362049Y-68325483D02*
X205362049Y-73405482D01*
X202662029Y-62245485D02*
X202662029Y-62495421D01*
X205362049Y-73405482D02*
X202822049Y-73405482D01*
X195202048Y-78665491D02*
X200282048Y-73585490D01*
X202822049Y-68325483D02*
X205362049Y-68325483D01*
X205362049Y-78665491D02*
X200282048Y-83745491D01*
X198412100Y-62745611D02*
X202162156Y-62745611D01*
X202412093Y-62245485D02*
X202662029Y-62245485D01*
X202822049Y-73405482D02*
X202822049Y-68325483D01*
X202412093Y-62495421D02*
X202412093Y-62245485D01*
X195202048Y-68325483D02*
X197742049Y-68325483D01*
X197742049Y-68325483D02*
X197742049Y-73405482D01*
X196812763Y-108133187D02*
X196812763Y-114133187D01*
X208112763Y-114133187D02*
X208112763Y-108133187D01*
X208112763Y-108133187D02*
X196812763Y-108133187D01*
X196812763Y-114133187D02*
X208112763Y-114133187D01*
D12*
G36*
X201202742Y-94996437D02*
G01*
X201790980Y-95109696D01*
X201938179Y-95154038D01*
X202817745Y-95526122D01*
X203595574Y-96025506D01*
X203761840Y-96159155D01*
X204368798Y-96730127D01*
X204850111Y-97336144D01*
X205239866Y-98025500D01*
X205480545Y-98594236D01*
X205588530Y-98892335D01*
X205661528Y-99143129D01*
X205706471Y-99393889D01*
X205730293Y-99691886D01*
X205739927Y-100084393D01*
X205741749Y-100375184D01*
X205739854Y-100850944D01*
X205726301Y-101205538D01*
X205694758Y-101487049D01*
X205638893Y-101743558D01*
X205552374Y-102023150D01*
X205507713Y-102152371D01*
X205181812Y-102928239D01*
X204778045Y-103594955D01*
X204263032Y-104206756D01*
X204209572Y-104261495D01*
X203598735Y-104806456D01*
X202947134Y-105230855D01*
X202195886Y-105572412D01*
X202116622Y-105602132D01*
X201754030Y-105725470D01*
X201429997Y-105805413D01*
X201081129Y-105853023D01*
X200644031Y-105879359D01*
X200498846Y-105884376D01*
X200078991Y-105889723D01*
X199685894Y-105881176D01*
X199372330Y-105860576D01*
X199228846Y-105840063D01*
X198296738Y-105554691D01*
X197441739Y-105124749D01*
X196677863Y-104562806D01*
X196019124Y-103881431D01*
X195479537Y-103093193D01*
X195073115Y-102210661D01*
X195023700Y-102068517D01*
X194892724Y-101514999D01*
X194822726Y-100863147D01*
X194817245Y-100442851D01*
X195377764Y-100442851D01*
X195460717Y-101320917D01*
X195696690Y-102156383D01*
X196071849Y-102931648D01*
X196572363Y-103629109D01*
X197184401Y-104231165D01*
X197894131Y-104720214D01*
X198687722Y-105078652D01*
X199120217Y-105205477D01*
X199632866Y-105286671D01*
X200231738Y-105315070D01*
X200842240Y-105290911D01*
X201389781Y-105214433D01*
X201463782Y-105198014D01*
X202005052Y-105023996D01*
X202577548Y-104762640D01*
X203110041Y-104450056D01*
X203462179Y-104184928D01*
X203800846Y-103890529D01*
X203415865Y-104055383D01*
X202662091Y-104293216D01*
X201907376Y-104374126D01*
X201169037Y-104309537D01*
X200464394Y-104110872D01*
X199810764Y-103789553D01*
X199225464Y-103357005D01*
X198725812Y-102824651D01*
X198633021Y-102679449D01*
X199374644Y-102679449D01*
X199416808Y-102775634D01*
X199570821Y-102920163D01*
X200211288Y-103357618D01*
X200897200Y-103647493D01*
X201606677Y-103783951D01*
X202317841Y-103761156D01*
X202555518Y-103716233D01*
X203242777Y-103473800D01*
X203869033Y-103088772D01*
X204404654Y-102584693D01*
X204820008Y-101985107D01*
X204879174Y-101869959D01*
X205004354Y-101601290D01*
X205084509Y-101379142D01*
X205129626Y-101150881D01*
X205149693Y-100863867D01*
X205154696Y-100465465D01*
X205154752Y-100417517D01*
X205150214Y-99994553D01*
X205130244Y-99689508D01*
X205086363Y-99451108D01*
X205010094Y-99228081D01*
X204927193Y-99041460D01*
X204542097Y-98403146D01*
X204052585Y-97881947D01*
X203480409Y-97483273D01*
X202847321Y-97212531D01*
X202175074Y-97075131D01*
X201485419Y-97076482D01*
X200800110Y-97221993D01*
X200140899Y-97517071D01*
X199776637Y-97760746D01*
X199512980Y-97975552D01*
X199381288Y-98115089D01*
X199384579Y-98173895D01*
X199525867Y-98146509D01*
X199573024Y-98129421D01*
X199890031Y-98063207D01*
X200296015Y-98052459D01*
X200720775Y-98094874D01*
X201066559Y-98178446D01*
X201581490Y-98438737D01*
X202010681Y-98822734D01*
X202338308Y-99299920D01*
X202548547Y-99839774D01*
X202625574Y-100411778D01*
X202553565Y-100985413D01*
X202542488Y-101025000D01*
X202305562Y-101571645D01*
X201951200Y-102036339D01*
X201506254Y-102402878D01*
X200997578Y-102655056D01*
X200452026Y-102776666D01*
X199896451Y-102751505D01*
X199741175Y-102715517D01*
X199482297Y-102659974D01*
X199374644Y-102679449D01*
X198633021Y-102679449D01*
X198329127Y-102203913D01*
X198052726Y-101506216D01*
X197913927Y-100742982D01*
X197900813Y-100417517D01*
X197929704Y-100123976D01*
X198518912Y-100123976D01*
X198522840Y-100489190D01*
X198523673Y-100504198D01*
X198607871Y-101035022D01*
X198803578Y-101451158D01*
X199126574Y-101777598D01*
X199451451Y-101973444D01*
X199929089Y-102150873D01*
X200394503Y-102184014D01*
X200824921Y-102104030D01*
X201207233Y-101918318D01*
X201553583Y-101606323D01*
X201832550Y-101211039D01*
X202012714Y-100775456D01*
X202064707Y-100407694D01*
X201984204Y-99902466D01*
X201762032Y-99450080D01*
X201423524Y-99075375D01*
X200994014Y-98803192D01*
X200498834Y-98658369D01*
X200263293Y-98641376D01*
X199710282Y-98713835D01*
X199239057Y-98933188D01*
X198858220Y-99294255D01*
X198661499Y-99605841D01*
X198561587Y-99852629D01*
X198518912Y-100123976D01*
X197929704Y-100123976D01*
X197978657Y-99626605D01*
X198200856Y-98898336D01*
X198550411Y-98243984D01*
X199010323Y-97674826D01*
X199563591Y-97202137D01*
X200193218Y-96837193D01*
X200882203Y-96591269D01*
X201613547Y-96475642D01*
X202370251Y-96501586D01*
X203135315Y-96680379D01*
X203390305Y-96776325D01*
X203800846Y-96946294D01*
X203462179Y-96651001D01*
X202812185Y-96189115D01*
X202061113Y-95835185D01*
X201249149Y-95603792D01*
X200416477Y-95509519D01*
X200312513Y-95508102D01*
X199397941Y-95587316D01*
X198534085Y-95825250D01*
X197733932Y-96216576D01*
X197010469Y-96755970D01*
X196812926Y-96943264D01*
X196230723Y-97641534D01*
X195795010Y-98420338D01*
X195511113Y-99266690D01*
X195384360Y-100167602D01*
X195377764Y-100442851D01*
X194817245Y-100442851D01*
X194813720Y-100172604D01*
X194865718Y-99503011D01*
X194978732Y-98914013D01*
X195023013Y-98766517D01*
X195408860Y-97864596D01*
X195930639Y-97057145D01*
X196576435Y-96356078D01*
X197334331Y-95773311D01*
X198192414Y-95320758D01*
X198636179Y-95153351D01*
X199190575Y-95022605D01*
X199842897Y-94952879D01*
X200533500Y-94944160D01*
X201202742Y-94996437D01*
G37*
X201202742Y-94996437D02*
X201790980Y-95109696D01*
X201938179Y-95154038D01*
X202817745Y-95526122D01*
X203595574Y-96025506D01*
X203761840Y-96159155D01*
X204368798Y-96730127D01*
X204850111Y-97336144D01*
X205239866Y-98025500D01*
X205480545Y-98594236D01*
X205588530Y-98892335D01*
X205661528Y-99143129D01*
X205706471Y-99393889D01*
X205730293Y-99691886D01*
X205739927Y-100084393D01*
X205741749Y-100375184D01*
X205739854Y-100850944D01*
X205726301Y-101205538D01*
X205694758Y-101487049D01*
X205638893Y-101743558D01*
X205552374Y-102023150D01*
X205507713Y-102152371D01*
X205181812Y-102928239D01*
X204778045Y-103594955D01*
X204263032Y-104206756D01*
X204209572Y-104261495D01*
X203598735Y-104806456D01*
X202947134Y-105230855D01*
X202195886Y-105572412D01*
X202116622Y-105602132D01*
X201754030Y-105725470D01*
X201429997Y-105805413D01*
X201081129Y-105853023D01*
X200644031Y-105879359D01*
X200498846Y-105884376D01*
X200078991Y-105889723D01*
X199685894Y-105881176D01*
X199372330Y-105860576D01*
X199228846Y-105840063D01*
X198296738Y-105554691D01*
X197441739Y-105124749D01*
X196677863Y-104562806D01*
X196019124Y-103881431D01*
X195479537Y-103093193D01*
X195073115Y-102210661D01*
X195023700Y-102068517D01*
X194892724Y-101514999D01*
X194822726Y-100863147D01*
X194817245Y-100442851D01*
X195377764Y-100442851D01*
X195460717Y-101320917D01*
X195696690Y-102156383D01*
X196071849Y-102931648D01*
X196572363Y-103629109D01*
X197184401Y-104231165D01*
X197894131Y-104720214D01*
X198687722Y-105078652D01*
X199120217Y-105205477D01*
X199632866Y-105286671D01*
X200231738Y-105315070D01*
X200842240Y-105290911D01*
X201389781Y-105214433D01*
X201463782Y-105198014D01*
X202005052Y-105023996D01*
X202577548Y-104762640D01*
X203110041Y-104450056D01*
X203462179Y-104184928D01*
X203800846Y-103890529D01*
X203415865Y-104055383D01*
X202662091Y-104293216D01*
X201907376Y-104374126D01*
X201169037Y-104309537D01*
X200464394Y-104110872D01*
X199810764Y-103789553D01*
X199225464Y-103357005D01*
X198725812Y-102824651D01*
X198633021Y-102679449D01*
X199374644Y-102679449D01*
X199416808Y-102775634D01*
X199570821Y-102920163D01*
X200211288Y-103357618D01*
X200897200Y-103647493D01*
X201606677Y-103783951D01*
X202317841Y-103761156D01*
X202555518Y-103716233D01*
X203242777Y-103473800D01*
X203869033Y-103088772D01*
X204404654Y-102584693D01*
X204820008Y-101985107D01*
X204879174Y-101869959D01*
X205004354Y-101601290D01*
X205084509Y-101379142D01*
X205129626Y-101150881D01*
X205149693Y-100863867D01*
X205154696Y-100465465D01*
X205154752Y-100417517D01*
X205150214Y-99994553D01*
X205130244Y-99689508D01*
X205086363Y-99451108D01*
X205010094Y-99228081D01*
X204927193Y-99041460D01*
X204542097Y-98403146D01*
X204052585Y-97881947D01*
X203480409Y-97483273D01*
X202847321Y-97212531D01*
X202175074Y-97075131D01*
X201485419Y-97076482D01*
X200800110Y-97221993D01*
X200140899Y-97517071D01*
X199776637Y-97760746D01*
X199512980Y-97975552D01*
X199381288Y-98115089D01*
X199384579Y-98173895D01*
X199525867Y-98146509D01*
X199573024Y-98129421D01*
X199890031Y-98063207D01*
X200296015Y-98052459D01*
X200720775Y-98094874D01*
X201066559Y-98178446D01*
X201581490Y-98438737D01*
X202010681Y-98822734D01*
X202338308Y-99299920D01*
X202548547Y-99839774D01*
X202625574Y-100411778D01*
X202553565Y-100985413D01*
X202542488Y-101025000D01*
X202305562Y-101571645D01*
X201951200Y-102036339D01*
X201506254Y-102402878D01*
X200997578Y-102655056D01*
X200452026Y-102776666D01*
X199896451Y-102751505D01*
X199741175Y-102715517D01*
X199482297Y-102659974D01*
X199374644Y-102679449D01*
X198633021Y-102679449D01*
X198329127Y-102203913D01*
X198052726Y-101506216D01*
X197913927Y-100742982D01*
X197900813Y-100417517D01*
X197929704Y-100123976D01*
X198518912Y-100123976D01*
X198522840Y-100489190D01*
X198523673Y-100504198D01*
X198607871Y-101035022D01*
X198803578Y-101451158D01*
X199126574Y-101777598D01*
X199451451Y-101973444D01*
X199929089Y-102150873D01*
X200394503Y-102184014D01*
X200824921Y-102104030D01*
X201207233Y-101918318D01*
X201553583Y-101606323D01*
X201832550Y-101211039D01*
X202012714Y-100775456D01*
X202064707Y-100407694D01*
X201984204Y-99902466D01*
X201762032Y-99450080D01*
X201423524Y-99075375D01*
X200994014Y-98803192D01*
X200498834Y-98658369D01*
X200263293Y-98641376D01*
X199710282Y-98713835D01*
X199239057Y-98933188D01*
X198858220Y-99294255D01*
X198661499Y-99605841D01*
X198561587Y-99852629D01*
X198518912Y-100123976D01*
X197929704Y-100123976D01*
X197978657Y-99626605D01*
X198200856Y-98898336D01*
X198550411Y-98243984D01*
X199010323Y-97674826D01*
X199563591Y-97202137D01*
X200193218Y-96837193D01*
X200882203Y-96591269D01*
X201613547Y-96475642D01*
X202370251Y-96501586D01*
X203135315Y-96680379D01*
X203390305Y-96776325D01*
X203800846Y-96946294D01*
X203462179Y-96651001D01*
X202812185Y-96189115D01*
X202061113Y-95835185D01*
X201249149Y-95603792D01*
X200416477Y-95509519D01*
X200312513Y-95508102D01*
X199397941Y-95587316D01*
X198534085Y-95825250D01*
X197733932Y-96216576D01*
X197010469Y-96755970D01*
X196812926Y-96943264D01*
X196230723Y-97641534D01*
X195795010Y-98420338D01*
X195511113Y-99266690D01*
X195384360Y-100167602D01*
X195377764Y-100442851D01*
X194817245Y-100442851D01*
X194813720Y-100172604D01*
X194865718Y-99503011D01*
X194978732Y-98914013D01*
X195023013Y-98766517D01*
X195408860Y-97864596D01*
X195930639Y-97057145D01*
X196576435Y-96356078D01*
X197334331Y-95773311D01*
X198192414Y-95320758D01*
X198636179Y-95153351D01*
X199190575Y-95022605D01*
X199842897Y-94952879D01*
X200533500Y-94944160D01*
X201202742Y-94996437D01*
D11*
X190571430Y-124258857D02*
X192811430Y-124258857D01*
X190571430Y-124378857D02*
X192811430Y-124378857D01*
X190571430Y-124138857D02*
X192811430Y-124138857D01*
X190571430Y-123538857D02*
X190571430Y-127778857D01*
X192811430Y-123538857D02*
X190571430Y-123538857D01*
X192811430Y-127778857D02*
X192811430Y-123538857D01*
X190571430Y-127778857D02*
X192811430Y-127778857D01*
X191691430Y-122888857D02*
X191691430Y-123538857D01*
X191691430Y-128428857D02*
X191691430Y-127778857D01*
X168870500Y-115895467D02*
X169520500Y-115895467D01*
X174410500Y-115895467D02*
X173760500Y-115895467D01*
X169520500Y-114775467D02*
X169520500Y-117015467D01*
X169520500Y-117015467D02*
X173760500Y-117015467D01*
X173760500Y-117015467D02*
X173760500Y-114775467D01*
X173760500Y-114775467D02*
X169520500Y-114775467D01*
X173160500Y-114775467D02*
X173160500Y-117015467D01*
X172920500Y-114775467D02*
X172920500Y-117015467D01*
X173040500Y-114775467D02*
X173040500Y-117015467D01*
X152732828Y-124258592D02*
X154972828Y-124258592D01*
X152732828Y-124378592D02*
X154972828Y-124378592D01*
X152732828Y-124138592D02*
X154972828Y-124138592D01*
X152732828Y-123538592D02*
X152732828Y-127778592D01*
X154972828Y-123538592D02*
X152732828Y-123538592D01*
X154972828Y-127778592D02*
X154972828Y-123538592D01*
X152732828Y-127778592D02*
X154972828Y-127778592D01*
X153852828Y-122888592D02*
X153852828Y-123538592D01*
X153852828Y-128428592D02*
X153852828Y-127778592D01*
X152591578Y-127058656D02*
X150351578Y-127058656D01*
X152591578Y-126938656D02*
X150351578Y-126938656D01*
X152591578Y-127178656D02*
X150351578Y-127178656D01*
X152591578Y-127778656D02*
X152591578Y-123538656D01*
X150351578Y-127778656D02*
X152591578Y-127778656D01*
X150351578Y-123538656D02*
X150351578Y-127778656D01*
X152591578Y-123538656D02*
X150351578Y-123538656D01*
X151471578Y-128428656D02*
X151471578Y-127778656D01*
X151471578Y-122888656D02*
X151471578Y-123538656D01*
X133541578Y-127058656D02*
X131301578Y-127058656D01*
X133541578Y-126938656D02*
X131301578Y-126938656D01*
X133541578Y-127178656D02*
X131301578Y-127178656D01*
X133541578Y-127778656D02*
X133541578Y-123538656D01*
X131301578Y-127778656D02*
X133541578Y-127778656D01*
X131301578Y-123538656D02*
X131301578Y-127778656D01*
X133541578Y-123538656D02*
X131301578Y-123538656D01*
X132421578Y-128428656D02*
X132421578Y-127778656D01*
X132421578Y-122888656D02*
X132421578Y-123538656D01*
X114491578Y-127058656D02*
X112251578Y-127058656D01*
X114491578Y-126938656D02*
X112251578Y-126938656D01*
X114491578Y-127178656D02*
X112251578Y-127178656D01*
X114491578Y-127778656D02*
X114491578Y-123538656D01*
X112251578Y-127778656D02*
X114491578Y-127778656D01*
X112251578Y-123538656D02*
X112251578Y-127778656D01*
X114491578Y-123538656D02*
X112251578Y-123538656D01*
X113371578Y-128428656D02*
X113371578Y-127778656D01*
X113371578Y-122888656D02*
X113371578Y-123538656D01*
X95441578Y-127058656D02*
X93201578Y-127058656D01*
X95441578Y-126938656D02*
X93201578Y-126938656D01*
X95441578Y-127178656D02*
X93201578Y-127178656D01*
X95441578Y-127778656D02*
X95441578Y-123538656D01*
X93201578Y-127778656D02*
X95441578Y-127778656D01*
X93201578Y-123538656D02*
X93201578Y-127778656D01*
X95441578Y-123538656D02*
X93201578Y-123538656D01*
X94321578Y-128428656D02*
X94321578Y-127778656D01*
X94321578Y-122888656D02*
X94321578Y-123538656D01*
X174022781Y-108127722D02*
X171782781Y-108127722D01*
X174022781Y-108007722D02*
X171782781Y-108007722D01*
X174022781Y-108247722D02*
X171782781Y-108247722D01*
X174022781Y-108847722D02*
X174022781Y-104607722D01*
X171782781Y-108847722D02*
X174022781Y-108847722D01*
X171782781Y-104607722D02*
X171782781Y-108847722D01*
X174022781Y-104607722D02*
X171782781Y-104607722D01*
X172902781Y-109497722D02*
X172902781Y-108847722D01*
X172902781Y-103957722D02*
X172902781Y-104607722D01*
X171641529Y-108127722D02*
X169401529Y-108127722D01*
X171641529Y-108007722D02*
X169401529Y-108007722D01*
X171641529Y-108247722D02*
X169401529Y-108247722D01*
X171641529Y-108847722D02*
X171641529Y-104607722D01*
X169401529Y-108847722D02*
X171641529Y-108847722D01*
X169401529Y-104607722D02*
X169401529Y-108847722D01*
X171641529Y-104607722D02*
X169401529Y-104607722D01*
X170521529Y-109497722D02*
X170521529Y-108847722D01*
X170521529Y-103957722D02*
X170521529Y-104607722D01*
X152591578Y-108008656D02*
X150351578Y-108008656D01*
X152591578Y-107888656D02*
X150351578Y-107888656D01*
X152591578Y-108128656D02*
X150351578Y-108128656D01*
X152591578Y-108728656D02*
X152591578Y-104488656D01*
X150351578Y-108728656D02*
X152591578Y-108728656D01*
X150351578Y-104488656D02*
X150351578Y-108728656D01*
X152591578Y-104488656D02*
X150351578Y-104488656D01*
X151471578Y-109378656D02*
X151471578Y-108728656D01*
X151471578Y-103838656D02*
X151471578Y-104488656D01*
X133541578Y-108008656D02*
X131301578Y-108008656D01*
X133541578Y-107888656D02*
X131301578Y-107888656D01*
X133541578Y-108128656D02*
X131301578Y-108128656D01*
X133541578Y-108728656D02*
X133541578Y-104488656D01*
X131301578Y-108728656D02*
X133541578Y-108728656D01*
X131301578Y-104488656D02*
X131301578Y-108728656D01*
X133541578Y-104488656D02*
X131301578Y-104488656D01*
X132421578Y-109378656D02*
X132421578Y-108728656D01*
X132421578Y-103838656D02*
X132421578Y-104488656D01*
X114491578Y-108008656D02*
X112251578Y-108008656D01*
X114491578Y-107888656D02*
X112251578Y-107888656D01*
X114491578Y-108128656D02*
X112251578Y-108128656D01*
X114491578Y-108728656D02*
X114491578Y-104488656D01*
X112251578Y-108728656D02*
X114491578Y-108728656D01*
X112251578Y-104488656D02*
X112251578Y-108728656D01*
X114491578Y-104488656D02*
X112251578Y-104488656D01*
X113371578Y-109378656D02*
X113371578Y-108728656D01*
X113371578Y-103838656D02*
X113371578Y-104488656D01*
X95441578Y-108008656D02*
X93201578Y-108008656D01*
X95441578Y-107888656D02*
X93201578Y-107888656D01*
X95441578Y-108128656D02*
X93201578Y-108128656D01*
X95441578Y-108728656D02*
X95441578Y-104488656D01*
X93201578Y-108728656D02*
X95441578Y-108728656D01*
X93201578Y-104488656D02*
X93201578Y-108728656D01*
X95441578Y-104488656D02*
X93201578Y-104488656D01*
X94321578Y-109378656D02*
X94321578Y-108728656D01*
X94321578Y-103838656D02*
X94321578Y-104488656D01*
X174022828Y-88958656D02*
X171782828Y-88958656D01*
X174022828Y-88838656D02*
X171782828Y-88838656D01*
X174022828Y-89078656D02*
X171782828Y-89078656D01*
X174022828Y-89678656D02*
X174022828Y-85438656D01*
X171782828Y-89678656D02*
X174022828Y-89678656D01*
X171782828Y-85438656D02*
X171782828Y-89678656D01*
X174022828Y-85438656D02*
X171782828Y-85438656D01*
X172902828Y-90328656D02*
X172902828Y-89678656D01*
X172902828Y-84788656D02*
X172902828Y-85438656D01*
X171641578Y-88958656D02*
X169401578Y-88958656D01*
X171641578Y-88838656D02*
X169401578Y-88838656D01*
X171641578Y-89078656D02*
X169401578Y-89078656D01*
X171641578Y-89678656D02*
X171641578Y-85438656D01*
X169401578Y-89678656D02*
X171641578Y-89678656D01*
X169401578Y-85438656D02*
X169401578Y-89678656D01*
X171641578Y-85438656D02*
X169401578Y-85438656D01*
X170521578Y-90328656D02*
X170521578Y-89678656D01*
X170521578Y-84788656D02*
X170521578Y-85438656D01*
X152591578Y-88958656D02*
X150351578Y-88958656D01*
X152591578Y-88838656D02*
X150351578Y-88838656D01*
X152591578Y-89078656D02*
X150351578Y-89078656D01*
X152591578Y-89678656D02*
X152591578Y-85438656D01*
X150351578Y-89678656D02*
X152591578Y-89678656D01*
X150351578Y-85438656D02*
X150351578Y-89678656D01*
X152591578Y-85438656D02*
X150351578Y-85438656D01*
X151471578Y-90328656D02*
X151471578Y-89678656D01*
X151471578Y-84788656D02*
X151471578Y-85438656D01*
X133541578Y-88958656D02*
X131301578Y-88958656D01*
X133541578Y-88838656D02*
X131301578Y-88838656D01*
X133541578Y-89078656D02*
X131301578Y-89078656D01*
X133541578Y-89678656D02*
X133541578Y-85438656D01*
X131301578Y-89678656D02*
X133541578Y-89678656D01*
X131301578Y-85438656D02*
X131301578Y-89678656D01*
X133541578Y-85438656D02*
X131301578Y-85438656D01*
X132421578Y-90328656D02*
X132421578Y-89678656D01*
X132421578Y-84788656D02*
X132421578Y-85438656D01*
X114491576Y-88958656D02*
X112251576Y-88958656D01*
X114491576Y-88838656D02*
X112251576Y-88838656D01*
X114491576Y-89078656D02*
X112251576Y-89078656D01*
X114491576Y-89678656D02*
X114491576Y-85438656D01*
X112251576Y-89678656D02*
X114491576Y-89678656D01*
X112251576Y-85438656D02*
X112251576Y-89678656D01*
X114491576Y-85438656D02*
X112251576Y-85438656D01*
X113371576Y-90328656D02*
X113371576Y-89678656D01*
X113371576Y-84788656D02*
X113371576Y-85438656D01*
X95441578Y-88958656D02*
X93201578Y-88958656D01*
X95441578Y-88838656D02*
X93201578Y-88838656D01*
X95441578Y-89078656D02*
X93201578Y-89078656D01*
X95441578Y-89678656D02*
X95441578Y-85438656D01*
X93201578Y-89678656D02*
X95441578Y-89678656D01*
X93201578Y-85438656D02*
X93201578Y-89678656D01*
X95441578Y-85438656D02*
X93201578Y-85438656D01*
X94321578Y-90328656D02*
X94321578Y-89678656D01*
X94321578Y-84788656D02*
X94321578Y-85438656D01*
X174022828Y-69908656D02*
X171782828Y-69908656D01*
X174022828Y-69788656D02*
X171782828Y-69788656D01*
X174022828Y-70028656D02*
X171782828Y-70028656D01*
X174022828Y-70628656D02*
X174022828Y-66388656D01*
X171782828Y-70628656D02*
X174022828Y-70628656D01*
X171782828Y-66388656D02*
X171782828Y-70628656D01*
X174022828Y-66388656D02*
X171782828Y-66388656D01*
X172902828Y-71278656D02*
X172902828Y-70628656D01*
X172902828Y-65738656D02*
X172902828Y-66388656D01*
X171641578Y-69908656D02*
X169401578Y-69908656D01*
X171641578Y-69788656D02*
X169401578Y-69788656D01*
X171641578Y-70028656D02*
X169401578Y-70028656D01*
X171641578Y-70628656D02*
X171641578Y-66388656D01*
X169401578Y-70628656D02*
X171641578Y-70628656D01*
X169401578Y-66388656D02*
X169401578Y-70628656D01*
X171641578Y-66388656D02*
X169401578Y-66388656D01*
X170521578Y-71278656D02*
X170521578Y-70628656D01*
X170521578Y-65738656D02*
X170521578Y-66388656D01*
X152591578Y-69908656D02*
X150351578Y-69908656D01*
X152591578Y-69788656D02*
X150351578Y-69788656D01*
X152591578Y-70028656D02*
X150351578Y-70028656D01*
X152591578Y-70628656D02*
X152591578Y-66388656D01*
X150351578Y-70628656D02*
X152591578Y-70628656D01*
X150351578Y-66388656D02*
X150351578Y-70628656D01*
X152591578Y-66388656D02*
X150351578Y-66388656D01*
X151471578Y-71278656D02*
X151471578Y-70628656D01*
X151471578Y-65738656D02*
X151471578Y-66388656D01*
X133541578Y-69908656D02*
X131301578Y-69908656D01*
X133541578Y-69788656D02*
X131301578Y-69788656D01*
X133541578Y-70028656D02*
X131301578Y-70028656D01*
X133541578Y-70628656D02*
X133541578Y-66388656D01*
X131301578Y-70628656D02*
X133541578Y-70628656D01*
X131301578Y-66388656D02*
X131301578Y-70628656D01*
X133541578Y-66388656D02*
X131301578Y-66388656D01*
X132421578Y-71278656D02*
X132421578Y-70628656D01*
X132421578Y-65738656D02*
X132421578Y-66388656D01*
X114491576Y-69908656D02*
X112251576Y-69908656D01*
X114491576Y-69788656D02*
X112251576Y-69788656D01*
X114491576Y-70028656D02*
X112251576Y-70028656D01*
X114491576Y-70628656D02*
X114491576Y-66388656D01*
X112251576Y-70628656D02*
X114491576Y-70628656D01*
X112251576Y-66388656D02*
X112251576Y-70628656D01*
X114491576Y-66388656D02*
X112251576Y-66388656D01*
X113371576Y-71278656D02*
X113371576Y-70628656D01*
X113371576Y-65738656D02*
X113371576Y-66388656D01*
X95441578Y-69908656D02*
X93201578Y-69908656D01*
X95441578Y-69788656D02*
X93201578Y-69788656D01*
X95441578Y-70028656D02*
X93201578Y-70028656D01*
X95441578Y-70628656D02*
X95441578Y-66388656D01*
X93201578Y-70628656D02*
X95441578Y-70628656D01*
X93201578Y-66388656D02*
X93201578Y-70628656D01*
X95441578Y-66388656D02*
X93201578Y-66388656D01*
X94321578Y-71278656D02*
X94321578Y-70628656D01*
X94321578Y-65738656D02*
X94321578Y-66388656D01*
D10*
X195472655Y-89097871D02*
X195472655Y-88097871D01*
X195805988Y-88812157D01*
X196139321Y-88097871D01*
X196139321Y-89097871D01*
X197186940Y-89002633D02*
X197139321Y-89050252D01*
X196996464Y-89097871D01*
X196901226Y-89097871D01*
X196758369Y-89050252D01*
X196663131Y-88955014D01*
X196615512Y-88859776D01*
X196567893Y-88669300D01*
X196567893Y-88526443D01*
X196615512Y-88335967D01*
X196663131Y-88240729D01*
X196758369Y-88145491D01*
X196901226Y-88097871D01*
X196996464Y-88097871D01*
X197139321Y-88145491D01*
X197186940Y-88193110D01*
X197615512Y-88097871D02*
X197615512Y-88907395D01*
X197663131Y-89002633D01*
X197710750Y-89050252D01*
X197805988Y-89097871D01*
X197996464Y-89097871D01*
X198091702Y-89050252D01*
X198139321Y-89002633D01*
X198186940Y-88907395D01*
X198186940Y-88097871D01*
X199377417Y-89050252D02*
X199520274Y-89097871D01*
X199758369Y-89097871D01*
X199853607Y-89050252D01*
X199901226Y-89002633D01*
X199948845Y-88907395D01*
X199948845Y-88812157D01*
X199901226Y-88716919D01*
X199853607Y-88669300D01*
X199758369Y-88621681D01*
X199567893Y-88574062D01*
X199472655Y-88526443D01*
X199425036Y-88478824D01*
X199377417Y-88383586D01*
X199377417Y-88288348D01*
X199425036Y-88193110D01*
X199472655Y-88145491D01*
X199567893Y-88097871D01*
X199805988Y-88097871D01*
X199948845Y-88145491D01*
X200377417Y-89097871D02*
X200377417Y-88097871D01*
X200853607Y-89097871D02*
X200853607Y-88097871D01*
X201091702Y-88097871D01*
X201234559Y-88145491D01*
X201329798Y-88240729D01*
X201377417Y-88335967D01*
X201425036Y-88526443D01*
X201425036Y-88669300D01*
X201377417Y-88859776D01*
X201329798Y-88955014D01*
X201234559Y-89050252D01*
X201091702Y-89097871D01*
X200853607Y-89097871D01*
X201853607Y-88574062D02*
X202186940Y-88574062D01*
X202329798Y-89097871D02*
X201853607Y-89097871D01*
X201853607Y-88097871D01*
X202329798Y-88097871D01*
X203520274Y-88097871D02*
X203520274Y-88907395D01*
X203567893Y-89002633D01*
X203615512Y-89050252D01*
X203710750Y-89097871D01*
X203901226Y-89097871D01*
X203996464Y-89050252D01*
X204044083Y-89002633D01*
X204091702Y-88907395D01*
X204091702Y-88097871D01*
X204567893Y-89097871D02*
X204567893Y-88097871D01*
X204948845Y-88097871D01*
X205044083Y-88145491D01*
X205091702Y-88193110D01*
X205139321Y-88288348D01*
X205139321Y-88431205D01*
X205091702Y-88526443D01*
X205044083Y-88574062D01*
X204948845Y-88621681D01*
X204567893Y-88621681D01*
X201750858Y-110585567D02*
X202322286Y-110585567D01*
X202036572Y-111585567D02*
X202036572Y-110585567D01*
X203227048Y-111585567D02*
X202893715Y-111109377D01*
X202655620Y-111585567D02*
X202655620Y-110585567D01*
X203036572Y-110585567D01*
X203131810Y-110633187D01*
X203179429Y-110680806D01*
X203227048Y-110776044D01*
X203227048Y-110918901D01*
X203179429Y-111014139D01*
X203131810Y-111061758D01*
X203036572Y-111109377D01*
X202655620Y-111109377D01*
X203608001Y-111537948D02*
X203750858Y-111585567D01*
X203988953Y-111585567D01*
X204084191Y-111537948D01*
X204131810Y-111490329D01*
X204179429Y-111395091D01*
X204179429Y-111299853D01*
X204131810Y-111204615D01*
X204084191Y-111156996D01*
X203988953Y-111109377D01*
X203798477Y-111061758D01*
X203703239Y-111014139D01*
X203655620Y-110966520D01*
X203608001Y-110871282D01*
X203608001Y-110776044D01*
X203655620Y-110680806D01*
X203703239Y-110633187D01*
X203798477Y-110585567D01*
X204036572Y-110585567D01*
X204179429Y-110633187D01*
D11*
X192053334Y-126930285D02*
X191253334Y-126930285D01*
X191253334Y-126739809D01*
X191291430Y-126625523D01*
X191367620Y-126549333D01*
X191443810Y-126511237D01*
X191596191Y-126473142D01*
X191710477Y-126473142D01*
X191862858Y-126511237D01*
X191939049Y-126549333D01*
X192015239Y-126625523D01*
X192053334Y-126739809D01*
X192053334Y-126930285D01*
X191329525Y-126168380D02*
X191291430Y-126130285D01*
X191253334Y-126054095D01*
X191253334Y-125863618D01*
X191291430Y-125787428D01*
X191329525Y-125749333D01*
X191405715Y-125711237D01*
X191481906Y-125711237D01*
X191596191Y-125749333D01*
X192053334Y-126206476D01*
X192053334Y-125711237D01*
X191253334Y-124987428D02*
X191253334Y-125368380D01*
X191634287Y-125406476D01*
X191596191Y-125368380D01*
X191558096Y-125292190D01*
X191558096Y-125101714D01*
X191596191Y-125025523D01*
X191634287Y-124987428D01*
X191710477Y-124949333D01*
X191900953Y-124949333D01*
X191977144Y-124987428D01*
X192015239Y-125025523D01*
X192053334Y-125101714D01*
X192053334Y-125292190D01*
X192015239Y-125368380D01*
X191977144Y-125406476D01*
X170369071Y-116257371D02*
X170369071Y-115457371D01*
X170559547Y-115457371D01*
X170673833Y-115495467D01*
X170750023Y-115571657D01*
X170788119Y-115647847D01*
X170826214Y-115800228D01*
X170826214Y-115914514D01*
X170788119Y-116066895D01*
X170750023Y-116143086D01*
X170673833Y-116219276D01*
X170559547Y-116257371D01*
X170369071Y-116257371D01*
X171130976Y-115533562D02*
X171169071Y-115495467D01*
X171245261Y-115457371D01*
X171435738Y-115457371D01*
X171511928Y-115495467D01*
X171550023Y-115533562D01*
X171588119Y-115609752D01*
X171588119Y-115685943D01*
X171550023Y-115800228D01*
X171092880Y-116257371D01*
X171588119Y-116257371D01*
X172273833Y-115724038D02*
X172273833Y-116257371D01*
X172083357Y-115419276D02*
X171892880Y-115990705D01*
X172388119Y-115990705D01*
X154214732Y-126930020D02*
X153414732Y-126930020D01*
X153414732Y-126739544D01*
X153452828Y-126625258D01*
X153529018Y-126549068D01*
X153605208Y-126510972D01*
X153757589Y-126472877D01*
X153871875Y-126472877D01*
X154024256Y-126510972D01*
X154100447Y-126549068D01*
X154176637Y-126625258D01*
X154214732Y-126739544D01*
X154214732Y-126930020D01*
X153490923Y-126168115D02*
X153452828Y-126130020D01*
X153414732Y-126053830D01*
X153414732Y-125863353D01*
X153452828Y-125787163D01*
X153490923Y-125749068D01*
X153567113Y-125710972D01*
X153643304Y-125710972D01*
X153757589Y-125749068D01*
X154214732Y-126206211D01*
X154214732Y-125710972D01*
X153414732Y-125444306D02*
X153414732Y-124949068D01*
X153719494Y-125215734D01*
X153719494Y-125101449D01*
X153757589Y-125025258D01*
X153795685Y-124987163D01*
X153871875Y-124949068D01*
X154062351Y-124949068D01*
X154138542Y-124987163D01*
X154176637Y-125025258D01*
X154214732Y-125101449D01*
X154214732Y-125330020D01*
X154176637Y-125406211D01*
X154138542Y-125444306D01*
X151833482Y-126330084D02*
X151033482Y-126330084D01*
X151033482Y-126139608D01*
X151071578Y-126025322D01*
X151147768Y-125949132D01*
X151223958Y-125911036D01*
X151376339Y-125872941D01*
X151490625Y-125872941D01*
X151643006Y-125911036D01*
X151719197Y-125949132D01*
X151795387Y-126025322D01*
X151833482Y-126139608D01*
X151833482Y-126330084D01*
X151109673Y-125568179D02*
X151071578Y-125530084D01*
X151033482Y-125453894D01*
X151033482Y-125263417D01*
X151071578Y-125187227D01*
X151109673Y-125149132D01*
X151185863Y-125111036D01*
X151262054Y-125111036D01*
X151376339Y-125149132D01*
X151833482Y-125606275D01*
X151833482Y-125111036D01*
X151109673Y-124806275D02*
X151071578Y-124768179D01*
X151033482Y-124691989D01*
X151033482Y-124501513D01*
X151071578Y-124425322D01*
X151109673Y-124387227D01*
X151185863Y-124349132D01*
X151262054Y-124349132D01*
X151376339Y-124387227D01*
X151833482Y-124844370D01*
X151833482Y-124349132D01*
X132783482Y-126330084D02*
X131983482Y-126330084D01*
X131983482Y-126139608D01*
X132021578Y-126025322D01*
X132097768Y-125949132D01*
X132173958Y-125911036D01*
X132326339Y-125872941D01*
X132440625Y-125872941D01*
X132593006Y-125911036D01*
X132669197Y-125949132D01*
X132745387Y-126025322D01*
X132783482Y-126139608D01*
X132783482Y-126330084D01*
X132059673Y-125568179D02*
X132021578Y-125530084D01*
X131983482Y-125453894D01*
X131983482Y-125263417D01*
X132021578Y-125187227D01*
X132059673Y-125149132D01*
X132135863Y-125111036D01*
X132212054Y-125111036D01*
X132326339Y-125149132D01*
X132783482Y-125606275D01*
X132783482Y-125111036D01*
X132783482Y-124349132D02*
X132783482Y-124806275D01*
X132783482Y-124577703D02*
X131983482Y-124577703D01*
X132097768Y-124653894D01*
X132173958Y-124730084D01*
X132212054Y-124806275D01*
X113733482Y-126330084D02*
X112933482Y-126330084D01*
X112933482Y-126139608D01*
X112971578Y-126025322D01*
X113047768Y-125949132D01*
X113123958Y-125911036D01*
X113276339Y-125872941D01*
X113390625Y-125872941D01*
X113543006Y-125911036D01*
X113619197Y-125949132D01*
X113695387Y-126025322D01*
X113733482Y-126139608D01*
X113733482Y-126330084D01*
X113009673Y-125568179D02*
X112971578Y-125530084D01*
X112933482Y-125453894D01*
X112933482Y-125263417D01*
X112971578Y-125187227D01*
X113009673Y-125149132D01*
X113085863Y-125111036D01*
X113162054Y-125111036D01*
X113276339Y-125149132D01*
X113733482Y-125606275D01*
X113733482Y-125111036D01*
X112933482Y-124615798D02*
X112933482Y-124539608D01*
X112971578Y-124463417D01*
X113009673Y-124425322D01*
X113085863Y-124387227D01*
X113238244Y-124349132D01*
X113428720Y-124349132D01*
X113581101Y-124387227D01*
X113657292Y-124425322D01*
X113695387Y-124463417D01*
X113733482Y-124539608D01*
X113733482Y-124615798D01*
X113695387Y-124691989D01*
X113657292Y-124730084D01*
X113581101Y-124768179D01*
X113428720Y-124806275D01*
X113238244Y-124806275D01*
X113085863Y-124768179D01*
X113009673Y-124730084D01*
X112971578Y-124691989D01*
X112933482Y-124615798D01*
X94683482Y-126330084D02*
X93883482Y-126330084D01*
X93883482Y-126139608D01*
X93921578Y-126025322D01*
X93997768Y-125949132D01*
X94073958Y-125911036D01*
X94226339Y-125872941D01*
X94340625Y-125872941D01*
X94493006Y-125911036D01*
X94569197Y-125949132D01*
X94645387Y-126025322D01*
X94683482Y-126139608D01*
X94683482Y-126330084D01*
X94683482Y-125111036D02*
X94683482Y-125568179D01*
X94683482Y-125339608D02*
X93883482Y-125339608D01*
X93997768Y-125415798D01*
X94073958Y-125491989D01*
X94112054Y-125568179D01*
X94683482Y-124730084D02*
X94683482Y-124577703D01*
X94645387Y-124501513D01*
X94607292Y-124463417D01*
X94493006Y-124387227D01*
X94340625Y-124349132D01*
X94035863Y-124349132D01*
X93959673Y-124387227D01*
X93921578Y-124425322D01*
X93883482Y-124501513D01*
X93883482Y-124653894D01*
X93921578Y-124730084D01*
X93959673Y-124768179D01*
X94035863Y-124806275D01*
X94226339Y-124806275D01*
X94302530Y-124768179D01*
X94340625Y-124730084D01*
X94378720Y-124653894D01*
X94378720Y-124501513D01*
X94340625Y-124425322D01*
X94302530Y-124387227D01*
X94226339Y-124349132D01*
X173264685Y-107399150D02*
X172464685Y-107399150D01*
X172464685Y-107208674D01*
X172502781Y-107094388D01*
X172578971Y-107018198D01*
X172655161Y-106980102D01*
X172807542Y-106942007D01*
X172921828Y-106942007D01*
X173074209Y-106980102D01*
X173150400Y-107018198D01*
X173226590Y-107094388D01*
X173264685Y-107208674D01*
X173264685Y-107399150D01*
X173264685Y-106180102D02*
X173264685Y-106637245D01*
X173264685Y-106408674D02*
X172464685Y-106408674D01*
X172578971Y-106484864D01*
X172655161Y-106561055D01*
X172693257Y-106637245D01*
X172807542Y-105722960D02*
X172769447Y-105799150D01*
X172731352Y-105837245D01*
X172655161Y-105875341D01*
X172617066Y-105875341D01*
X172540876Y-105837245D01*
X172502781Y-105799150D01*
X172464685Y-105722960D01*
X172464685Y-105570579D01*
X172502781Y-105494388D01*
X172540876Y-105456293D01*
X172617066Y-105418198D01*
X172655161Y-105418198D01*
X172731352Y-105456293D01*
X172769447Y-105494388D01*
X172807542Y-105570579D01*
X172807542Y-105722960D01*
X172845638Y-105799150D01*
X172883733Y-105837245D01*
X172959923Y-105875341D01*
X173112304Y-105875341D01*
X173188495Y-105837245D01*
X173226590Y-105799150D01*
X173264685Y-105722960D01*
X173264685Y-105570579D01*
X173226590Y-105494388D01*
X173188495Y-105456293D01*
X173112304Y-105418198D01*
X172959923Y-105418198D01*
X172883733Y-105456293D01*
X172845638Y-105494388D01*
X172807542Y-105570579D01*
X170883433Y-107399150D02*
X170083433Y-107399150D01*
X170083433Y-107208674D01*
X170121529Y-107094388D01*
X170197719Y-107018198D01*
X170273909Y-106980102D01*
X170426290Y-106942007D01*
X170540576Y-106942007D01*
X170692957Y-106980102D01*
X170769148Y-107018198D01*
X170845338Y-107094388D01*
X170883433Y-107208674D01*
X170883433Y-107399150D01*
X170883433Y-106180102D02*
X170883433Y-106637245D01*
X170883433Y-106408674D02*
X170083433Y-106408674D01*
X170197719Y-106484864D01*
X170273909Y-106561055D01*
X170312005Y-106637245D01*
X170083433Y-105913436D02*
X170083433Y-105380102D01*
X170883433Y-105722960D01*
X151833482Y-107280084D02*
X151033482Y-107280084D01*
X151033482Y-107089608D01*
X151071578Y-106975322D01*
X151147768Y-106899132D01*
X151223958Y-106861036D01*
X151376339Y-106822941D01*
X151490625Y-106822941D01*
X151643006Y-106861036D01*
X151719197Y-106899132D01*
X151795387Y-106975322D01*
X151833482Y-107089608D01*
X151833482Y-107280084D01*
X151833482Y-106061036D02*
X151833482Y-106518179D01*
X151833482Y-106289608D02*
X151033482Y-106289608D01*
X151147768Y-106365798D01*
X151223958Y-106441989D01*
X151262054Y-106518179D01*
X151033482Y-105375322D02*
X151033482Y-105527703D01*
X151071578Y-105603894D01*
X151109673Y-105641989D01*
X151223958Y-105718179D01*
X151376339Y-105756275D01*
X151681101Y-105756275D01*
X151757292Y-105718179D01*
X151795387Y-105680084D01*
X151833482Y-105603894D01*
X151833482Y-105451513D01*
X151795387Y-105375322D01*
X151757292Y-105337227D01*
X151681101Y-105299132D01*
X151490625Y-105299132D01*
X151414435Y-105337227D01*
X151376339Y-105375322D01*
X151338244Y-105451513D01*
X151338244Y-105603894D01*
X151376339Y-105680084D01*
X151414435Y-105718179D01*
X151490625Y-105756275D01*
X132783482Y-107280084D02*
X131983482Y-107280084D01*
X131983482Y-107089608D01*
X132021578Y-106975322D01*
X132097768Y-106899132D01*
X132173958Y-106861036D01*
X132326339Y-106822941D01*
X132440625Y-106822941D01*
X132593006Y-106861036D01*
X132669197Y-106899132D01*
X132745387Y-106975322D01*
X132783482Y-107089608D01*
X132783482Y-107280084D01*
X132783482Y-106061036D02*
X132783482Y-106518179D01*
X132783482Y-106289608D02*
X131983482Y-106289608D01*
X132097768Y-106365798D01*
X132173958Y-106441989D01*
X132212054Y-106518179D01*
X131983482Y-105337227D02*
X131983482Y-105718179D01*
X132364435Y-105756275D01*
X132326339Y-105718179D01*
X132288244Y-105641989D01*
X132288244Y-105451513D01*
X132326339Y-105375322D01*
X132364435Y-105337227D01*
X132440625Y-105299132D01*
X132631101Y-105299132D01*
X132707292Y-105337227D01*
X132745387Y-105375322D01*
X132783482Y-105451513D01*
X132783482Y-105641989D01*
X132745387Y-105718179D01*
X132707292Y-105756275D01*
X113733482Y-107280084D02*
X112933482Y-107280084D01*
X112933482Y-107089608D01*
X112971578Y-106975322D01*
X113047768Y-106899132D01*
X113123958Y-106861036D01*
X113276339Y-106822941D01*
X113390625Y-106822941D01*
X113543006Y-106861036D01*
X113619197Y-106899132D01*
X113695387Y-106975322D01*
X113733482Y-107089608D01*
X113733482Y-107280084D01*
X113733482Y-106061036D02*
X113733482Y-106518179D01*
X113733482Y-106289608D02*
X112933482Y-106289608D01*
X113047768Y-106365798D01*
X113123958Y-106441989D01*
X113162054Y-106518179D01*
X113200149Y-105375322D02*
X113733482Y-105375322D01*
X112895387Y-105565798D02*
X113466816Y-105756275D01*
X113466816Y-105261036D01*
X94683482Y-107280084D02*
X93883482Y-107280084D01*
X93883482Y-107089608D01*
X93921578Y-106975322D01*
X93997768Y-106899132D01*
X94073958Y-106861036D01*
X94226339Y-106822941D01*
X94340625Y-106822941D01*
X94493006Y-106861036D01*
X94569197Y-106899132D01*
X94645387Y-106975322D01*
X94683482Y-107089608D01*
X94683482Y-107280084D01*
X94683482Y-106061036D02*
X94683482Y-106518179D01*
X94683482Y-106289608D02*
X93883482Y-106289608D01*
X93997768Y-106365798D01*
X94073958Y-106441989D01*
X94112054Y-106518179D01*
X93883482Y-105794370D02*
X93883482Y-105299132D01*
X94188244Y-105565798D01*
X94188244Y-105451513D01*
X94226339Y-105375322D01*
X94264435Y-105337227D01*
X94340625Y-105299132D01*
X94531101Y-105299132D01*
X94607292Y-105337227D01*
X94645387Y-105375322D01*
X94683482Y-105451513D01*
X94683482Y-105680084D01*
X94645387Y-105756275D01*
X94607292Y-105794370D01*
X173264732Y-88230084D02*
X172464732Y-88230084D01*
X172464732Y-88039608D01*
X172502828Y-87925322D01*
X172579018Y-87849132D01*
X172655208Y-87811036D01*
X172807589Y-87772941D01*
X172921875Y-87772941D01*
X173074256Y-87811036D01*
X173150447Y-87849132D01*
X173226637Y-87925322D01*
X173264732Y-88039608D01*
X173264732Y-88230084D01*
X173264732Y-87011036D02*
X173264732Y-87468179D01*
X173264732Y-87239608D02*
X172464732Y-87239608D01*
X172579018Y-87315798D01*
X172655208Y-87391989D01*
X172693304Y-87468179D01*
X172540923Y-86706275D02*
X172502828Y-86668179D01*
X172464732Y-86591989D01*
X172464732Y-86401513D01*
X172502828Y-86325322D01*
X172540923Y-86287227D01*
X172617113Y-86249132D01*
X172693304Y-86249132D01*
X172807589Y-86287227D01*
X173264732Y-86744370D01*
X173264732Y-86249132D01*
X170883482Y-88230084D02*
X170083482Y-88230084D01*
X170083482Y-88039608D01*
X170121578Y-87925322D01*
X170197768Y-87849132D01*
X170273958Y-87811036D01*
X170426339Y-87772941D01*
X170540625Y-87772941D01*
X170693006Y-87811036D01*
X170769197Y-87849132D01*
X170845387Y-87925322D01*
X170883482Y-88039608D01*
X170883482Y-88230084D01*
X170883482Y-87011036D02*
X170883482Y-87468179D01*
X170883482Y-87239608D02*
X170083482Y-87239608D01*
X170197768Y-87315798D01*
X170273958Y-87391989D01*
X170312054Y-87468179D01*
X170883482Y-86249132D02*
X170883482Y-86706275D01*
X170883482Y-86477703D02*
X170083482Y-86477703D01*
X170197768Y-86553894D01*
X170273958Y-86630084D01*
X170312054Y-86706275D01*
X151833482Y-88230084D02*
X151033482Y-88230084D01*
X151033482Y-88039608D01*
X151071578Y-87925322D01*
X151147768Y-87849132D01*
X151223958Y-87811036D01*
X151376339Y-87772941D01*
X151490625Y-87772941D01*
X151643006Y-87811036D01*
X151719197Y-87849132D01*
X151795387Y-87925322D01*
X151833482Y-88039608D01*
X151833482Y-88230084D01*
X151833482Y-87011036D02*
X151833482Y-87468179D01*
X151833482Y-87239608D02*
X151033482Y-87239608D01*
X151147768Y-87315798D01*
X151223958Y-87391989D01*
X151262054Y-87468179D01*
X151033482Y-86515798D02*
X151033482Y-86439608D01*
X151071578Y-86363417D01*
X151109673Y-86325322D01*
X151185863Y-86287227D01*
X151338244Y-86249132D01*
X151528720Y-86249132D01*
X151681101Y-86287227D01*
X151757292Y-86325322D01*
X151795387Y-86363417D01*
X151833482Y-86439608D01*
X151833482Y-86515798D01*
X151795387Y-86591989D01*
X151757292Y-86630084D01*
X151681101Y-86668179D01*
X151528720Y-86706275D01*
X151338244Y-86706275D01*
X151185863Y-86668179D01*
X151109673Y-86630084D01*
X151071578Y-86591989D01*
X151033482Y-86515798D01*
X132783482Y-87849132D02*
X131983482Y-87849132D01*
X131983482Y-87658656D01*
X132021578Y-87544370D01*
X132097768Y-87468179D01*
X132173958Y-87430084D01*
X132326339Y-87391989D01*
X132440625Y-87391989D01*
X132593006Y-87430084D01*
X132669197Y-87468179D01*
X132745387Y-87544370D01*
X132783482Y-87658656D01*
X132783482Y-87849132D01*
X132783482Y-87011036D02*
X132783482Y-86858656D01*
X132745387Y-86782465D01*
X132707292Y-86744370D01*
X132593006Y-86668179D01*
X132440625Y-86630084D01*
X132135863Y-86630084D01*
X132059673Y-86668179D01*
X132021578Y-86706275D01*
X131983482Y-86782465D01*
X131983482Y-86934846D01*
X132021578Y-87011036D01*
X132059673Y-87049132D01*
X132135863Y-87087227D01*
X132326339Y-87087227D01*
X132402530Y-87049132D01*
X132440625Y-87011036D01*
X132478720Y-86934846D01*
X132478720Y-86782465D01*
X132440625Y-86706275D01*
X132402530Y-86668179D01*
X132326339Y-86630084D01*
X113733480Y-87849132D02*
X112933480Y-87849132D01*
X112933480Y-87658656D01*
X112971576Y-87544370D01*
X113047766Y-87468179D01*
X113123956Y-87430084D01*
X113276337Y-87391989D01*
X113390623Y-87391989D01*
X113543004Y-87430084D01*
X113619195Y-87468179D01*
X113695385Y-87544370D01*
X113733480Y-87658656D01*
X113733480Y-87849132D01*
X113276337Y-86934846D02*
X113238242Y-87011036D01*
X113200147Y-87049132D01*
X113123956Y-87087227D01*
X113085861Y-87087227D01*
X113009671Y-87049132D01*
X112971576Y-87011036D01*
X112933480Y-86934846D01*
X112933480Y-86782465D01*
X112971576Y-86706275D01*
X113009671Y-86668179D01*
X113085861Y-86630084D01*
X113123956Y-86630084D01*
X113200147Y-86668179D01*
X113238242Y-86706275D01*
X113276337Y-86782465D01*
X113276337Y-86934846D01*
X113314433Y-87011036D01*
X113352528Y-87049132D01*
X113428718Y-87087227D01*
X113581099Y-87087227D01*
X113657290Y-87049132D01*
X113695385Y-87011036D01*
X113733480Y-86934846D01*
X113733480Y-86782465D01*
X113695385Y-86706275D01*
X113657290Y-86668179D01*
X113581099Y-86630084D01*
X113428718Y-86630084D01*
X113352528Y-86668179D01*
X113314433Y-86706275D01*
X113276337Y-86782465D01*
X94683482Y-87849132D02*
X93883482Y-87849132D01*
X93883482Y-87658656D01*
X93921578Y-87544370D01*
X93997768Y-87468179D01*
X94073958Y-87430084D01*
X94226339Y-87391989D01*
X94340625Y-87391989D01*
X94493006Y-87430084D01*
X94569197Y-87468179D01*
X94645387Y-87544370D01*
X94683482Y-87658656D01*
X94683482Y-87849132D01*
X93883482Y-87125322D02*
X93883482Y-86591989D01*
X94683482Y-86934846D01*
X173264732Y-68799132D02*
X172464732Y-68799132D01*
X172464732Y-68608656D01*
X172502828Y-68494370D01*
X172579018Y-68418179D01*
X172655208Y-68380084D01*
X172807589Y-68341989D01*
X172921875Y-68341989D01*
X173074256Y-68380084D01*
X173150447Y-68418179D01*
X173226637Y-68494370D01*
X173264732Y-68608656D01*
X173264732Y-68799132D01*
X172464732Y-67656275D02*
X172464732Y-67808656D01*
X172502828Y-67884846D01*
X172540923Y-67922941D01*
X172655208Y-67999132D01*
X172807589Y-68037227D01*
X173112351Y-68037227D01*
X173188542Y-67999132D01*
X173226637Y-67961036D01*
X173264732Y-67884846D01*
X173264732Y-67732465D01*
X173226637Y-67656275D01*
X173188542Y-67618179D01*
X173112351Y-67580084D01*
X172921875Y-67580084D01*
X172845685Y-67618179D01*
X172807589Y-67656275D01*
X172769494Y-67732465D01*
X172769494Y-67884846D01*
X172807589Y-67961036D01*
X172845685Y-67999132D01*
X172921875Y-68037227D01*
X170883482Y-68799132D02*
X170083482Y-68799132D01*
X170083482Y-68608656D01*
X170121578Y-68494370D01*
X170197768Y-68418179D01*
X170273958Y-68380084D01*
X170426339Y-68341989D01*
X170540625Y-68341989D01*
X170693006Y-68380084D01*
X170769197Y-68418179D01*
X170845387Y-68494370D01*
X170883482Y-68608656D01*
X170883482Y-68799132D01*
X170083482Y-67618179D02*
X170083482Y-67999132D01*
X170464435Y-68037227D01*
X170426339Y-67999132D01*
X170388244Y-67922941D01*
X170388244Y-67732465D01*
X170426339Y-67656275D01*
X170464435Y-67618179D01*
X170540625Y-67580084D01*
X170731101Y-67580084D01*
X170807292Y-67618179D01*
X170845387Y-67656275D01*
X170883482Y-67732465D01*
X170883482Y-67922941D01*
X170845387Y-67999132D01*
X170807292Y-68037227D01*
X151833482Y-68799132D02*
X151033482Y-68799132D01*
X151033482Y-68608656D01*
X151071578Y-68494370D01*
X151147768Y-68418179D01*
X151223958Y-68380084D01*
X151376339Y-68341989D01*
X151490625Y-68341989D01*
X151643006Y-68380084D01*
X151719197Y-68418179D01*
X151795387Y-68494370D01*
X151833482Y-68608656D01*
X151833482Y-68799132D01*
X151300149Y-67656275D02*
X151833482Y-67656275D01*
X150995387Y-67846751D02*
X151566816Y-68037227D01*
X151566816Y-67541989D01*
X132783482Y-68799132D02*
X131983482Y-68799132D01*
X131983482Y-68608656D01*
X132021578Y-68494370D01*
X132097768Y-68418179D01*
X132173958Y-68380084D01*
X132326339Y-68341989D01*
X132440625Y-68341989D01*
X132593006Y-68380084D01*
X132669197Y-68418179D01*
X132745387Y-68494370D01*
X132783482Y-68608656D01*
X132783482Y-68799132D01*
X131983482Y-68075322D02*
X131983482Y-67580084D01*
X132288244Y-67846751D01*
X132288244Y-67732465D01*
X132326339Y-67656275D01*
X132364435Y-67618179D01*
X132440625Y-67580084D01*
X132631101Y-67580084D01*
X132707292Y-67618179D01*
X132745387Y-67656275D01*
X132783482Y-67732465D01*
X132783482Y-67961036D01*
X132745387Y-68037227D01*
X132707292Y-68075322D01*
X113733480Y-68799132D02*
X112933480Y-68799132D01*
X112933480Y-68608656D01*
X112971576Y-68494370D01*
X113047766Y-68418179D01*
X113123956Y-68380084D01*
X113276337Y-68341989D01*
X113390623Y-68341989D01*
X113543004Y-68380084D01*
X113619195Y-68418179D01*
X113695385Y-68494370D01*
X113733480Y-68608656D01*
X113733480Y-68799132D01*
X113009671Y-68037227D02*
X112971576Y-67999132D01*
X112933480Y-67922941D01*
X112933480Y-67732465D01*
X112971576Y-67656275D01*
X113009671Y-67618179D01*
X113085861Y-67580084D01*
X113162052Y-67580084D01*
X113276337Y-67618179D01*
X113733480Y-68075322D01*
X113733480Y-67580084D01*
X94683482Y-68799132D02*
X93883482Y-68799132D01*
X93883482Y-68608656D01*
X93921578Y-68494370D01*
X93997768Y-68418179D01*
X94073958Y-68380084D01*
X94226339Y-68341989D01*
X94340625Y-68341989D01*
X94493006Y-68380084D01*
X94569197Y-68418179D01*
X94645387Y-68494370D01*
X94683482Y-68608656D01*
X94683482Y-68799132D01*
X94683482Y-67580084D02*
X94683482Y-68037227D01*
X94683482Y-67808656D02*
X93883482Y-67808656D01*
X93997768Y-67884846D01*
X94073958Y-67961036D01*
X94112054Y-68037227D01*
%LPC*%
D13*
X159647203Y-101290531D03*
D14*
X157107203Y-106370531D03*
D13*
X165997203Y-103830531D03*
D14*
X167267203Y-106370531D03*
D15*
X162187203Y-106370531D03*
D13*
X164727203Y-101290531D03*
D15*
X162187203Y-106370531D03*
D13*
X158377203Y-103830531D03*
D14*
X157107203Y-106370531D03*
X167267203Y-106370531D03*
G36*
G01*
X200287187Y-119919747D02*
X200287187Y-119919747D01*
G75*
G02*
X201138187Y-120770747I0J-851000D01*
G01*
X201138187Y-121070747D01*
G75*
G02*
X200287187Y-121921747I-851000J0D01*
G01*
X200287187Y-121921747D01*
G75*
G02*
X199436187Y-121070747I0J851000D01*
G01*
X199436187Y-120770747D01*
G75*
G02*
X200287187Y-119919747I851000J0D01*
G01*
G37*
G36*
G01*
X200287187Y-128919747D02*
X200287187Y-128919747D01*
G75*
G02*
X201138187Y-129770747I0J-851000D01*
G01*
X201138187Y-130070747D01*
G75*
G02*
X200287187Y-130921747I-851000J0D01*
G01*
X200287187Y-130921747D01*
G75*
G02*
X199436187Y-130070747I0J851000D01*
G01*
X199436187Y-129770747D01*
G75*
G02*
X200287187Y-128919747I851000J0D01*
G01*
G37*
D16*
X200287187Y-125420747D03*
D17*
X202787187Y-117920747D03*
X200287187Y-117920747D03*
X197787187Y-117920747D03*
G36*
G01*
X204887187Y-123769747D02*
X206887187Y-123769747D01*
G75*
G02*
X206938187Y-123820747I0J-51000D01*
G01*
X206938187Y-127020747D01*
G75*
G02*
X206887187Y-127071747I-51000J0D01*
G01*
X204887187Y-127071747D01*
G75*
G02*
X204836187Y-127020747I0J51000D01*
G01*
X204836187Y-123820747D01*
G75*
G02*
X204887187Y-123769747I51000J0D01*
G01*
G37*
G36*
G01*
X193687187Y-123769747D02*
X195687187Y-123769747D01*
G75*
G02*
X195738187Y-123820747I0J-51000D01*
G01*
X195738187Y-127020747D01*
G75*
G02*
X195687187Y-127071747I-51000J0D01*
G01*
X193687187Y-127071747D01*
G75*
G02*
X193636187Y-127020747I0J51000D01*
G01*
X193636187Y-123820747D01*
G75*
G02*
X193687187Y-123769747I51000J0D01*
G01*
G37*
X202787187Y-132420747D03*
X197787187Y-132420747D03*
D18*
X192662179Y-63245491D03*
X192662179Y-65785491D03*
X192662179Y-68325491D03*
X192662179Y-70865491D03*
X192662179Y-73405491D03*
X192662179Y-75945491D03*
X192662179Y-78485491D03*
X192662179Y-81025491D03*
X192662179Y-83565491D03*
X192662179Y-86105491D03*
X192662179Y-88645491D03*
X192662179Y-91185491D03*
X207902179Y-91185491D03*
X207902179Y-88645491D03*
X207902179Y-86105491D03*
X207902179Y-83565491D03*
X207902179Y-81025491D03*
X207902179Y-78485491D03*
X207902179Y-75945491D03*
X207902179Y-73405491D03*
X207902179Y-70865491D03*
X207902179Y-68325491D03*
X207902179Y-65785491D03*
X207902179Y-63245491D03*
D19*
X206012763Y-111133187D03*
X200012763Y-111133187D03*
D20*
X206012763Y-108733187D03*
X206012763Y-113533187D03*
X204012763Y-108733187D03*
X204012763Y-113533187D03*
X199012763Y-113533187D03*
X199012763Y-108733187D03*
D21*
X190762683Y-115895707D03*
X187190793Y-77795547D03*
X95512283Y-115895707D03*
X95512283Y-77795547D03*
D13*
X169172203Y-120340467D03*
D14*
X166632203Y-125420467D03*
D13*
X175522203Y-122880467D03*
D14*
X176792203Y-125420467D03*
D15*
X171712203Y-125420467D03*
D13*
X174252203Y-120340467D03*
D15*
X171712203Y-125420467D03*
D13*
X167902203Y-122880467D03*
D14*
X166632203Y-125420467D03*
X176792203Y-125420467D03*
D22*
X159805953Y-132405467D03*
X183618453Y-132405467D03*
D15*
X159805953Y-117165467D03*
X183618453Y-117165467D03*
D13*
X183777203Y-130500467D03*
D14*
X186317203Y-125420467D03*
D13*
X177427203Y-127960467D03*
D14*
X176157203Y-125420467D03*
D15*
X181237203Y-125420467D03*
D13*
X178697203Y-130500467D03*
D15*
X181237203Y-125420467D03*
D13*
X185047203Y-127960467D03*
D14*
X186317203Y-125420467D03*
X176157203Y-125420467D03*
D13*
X164727203Y-130500467D03*
D14*
X167267203Y-125420467D03*
D13*
X158377203Y-127960467D03*
D14*
X157107203Y-125420467D03*
D15*
X162187203Y-125420467D03*
D13*
X159647203Y-130500467D03*
D15*
X162187203Y-125420467D03*
D13*
X165997203Y-127960467D03*
D14*
X167267203Y-125420467D03*
X157107203Y-125420467D03*
D13*
X140597483Y-120340747D03*
D14*
X138057483Y-125420747D03*
D13*
X146947483Y-122880747D03*
D14*
X148217483Y-125420747D03*
D15*
X143137483Y-125420747D03*
D13*
X145677483Y-120340747D03*
D15*
X143137483Y-125420747D03*
D13*
X139327483Y-122880747D03*
D14*
X138057483Y-125420747D03*
X148217483Y-125420747D03*
D13*
X121547403Y-120340747D03*
D14*
X119007403Y-125420747D03*
D13*
X127897403Y-122880747D03*
D14*
X129167403Y-125420747D03*
D15*
X124087403Y-125420747D03*
D13*
X126627403Y-120340747D03*
D15*
X124087403Y-125420747D03*
D13*
X120277403Y-122880747D03*
D14*
X119007403Y-125420747D03*
X129167403Y-125420747D03*
D13*
X102497323Y-120340747D03*
D14*
X99957323Y-125420747D03*
D13*
X108847323Y-122880747D03*
D14*
X110117323Y-125420747D03*
D15*
X105037323Y-125420747D03*
D13*
X107577323Y-120340747D03*
D15*
X105037323Y-125420747D03*
D13*
X101227323Y-122880747D03*
D14*
X99957323Y-125420747D03*
X110117323Y-125420747D03*
D13*
X83447243Y-120340747D03*
D14*
X80907243Y-125420747D03*
D13*
X89797243Y-122880747D03*
D14*
X91067243Y-125420747D03*
D15*
X85987243Y-125420747D03*
D13*
X88527243Y-120340747D03*
D15*
X85987243Y-125420747D03*
D13*
X82177243Y-122880747D03*
D14*
X80907243Y-125420747D03*
X91067243Y-125420747D03*
D13*
X178697643Y-101290667D03*
D14*
X176157643Y-106370667D03*
D13*
X185047643Y-103830667D03*
D14*
X186317643Y-106370667D03*
D15*
X181237643Y-106370667D03*
D13*
X183777643Y-101290667D03*
D15*
X181237643Y-106370667D03*
D13*
X177427643Y-103830667D03*
D14*
X176157643Y-106370667D03*
X186317643Y-106370667D03*
D13*
X140597483Y-101290667D03*
D14*
X138057483Y-106370667D03*
D13*
X146947483Y-103830667D03*
D14*
X148217483Y-106370667D03*
D15*
X143137483Y-106370667D03*
D13*
X145677483Y-101290667D03*
D15*
X143137483Y-106370667D03*
D13*
X139327483Y-103830667D03*
D14*
X138057483Y-106370667D03*
X148217483Y-106370667D03*
D13*
X121547403Y-101290667D03*
D14*
X119007403Y-106370667D03*
D13*
X127897403Y-103830667D03*
D14*
X129167403Y-106370667D03*
D15*
X124087403Y-106370667D03*
D13*
X126627403Y-101290667D03*
D15*
X124087403Y-106370667D03*
D13*
X120277403Y-103830667D03*
D14*
X119007403Y-106370667D03*
X129167403Y-106370667D03*
D13*
X102497323Y-101290667D03*
D14*
X99957323Y-106370667D03*
D13*
X108847323Y-103830667D03*
D14*
X110117323Y-106370667D03*
D15*
X105037323Y-106370667D03*
D13*
X107577323Y-101290667D03*
D15*
X105037323Y-106370667D03*
D13*
X101227323Y-103830667D03*
D14*
X99957323Y-106370667D03*
X110117323Y-106370667D03*
D13*
X83447243Y-101290667D03*
D14*
X80907243Y-106370667D03*
D13*
X89797243Y-103830667D03*
D14*
X91067243Y-106370667D03*
D15*
X85987243Y-106370667D03*
D13*
X88527243Y-101290667D03*
D15*
X85987243Y-106370667D03*
D13*
X82177243Y-103830667D03*
D14*
X80907243Y-106370667D03*
X91067243Y-106370667D03*
D13*
X178697643Y-82240587D03*
D14*
X176157643Y-87320587D03*
D13*
X185047643Y-84780587D03*
D14*
X186317643Y-87320587D03*
D15*
X181237643Y-87320587D03*
D13*
X183777643Y-82240587D03*
D15*
X181237643Y-87320587D03*
D13*
X177427643Y-84780587D03*
D14*
X176157643Y-87320587D03*
X186317643Y-87320587D03*
D13*
X159647563Y-82240587D03*
D14*
X157107563Y-87320587D03*
D13*
X165997563Y-84780587D03*
D14*
X167267563Y-87320587D03*
D15*
X162187563Y-87320587D03*
D13*
X164727563Y-82240587D03*
D15*
X162187563Y-87320587D03*
D13*
X158377563Y-84780587D03*
D14*
X157107563Y-87320587D03*
X167267563Y-87320587D03*
D13*
X140597483Y-82240587D03*
D14*
X138057483Y-87320587D03*
D13*
X146947483Y-84780587D03*
D14*
X148217483Y-87320587D03*
D15*
X143137483Y-87320587D03*
D13*
X145677483Y-82240587D03*
D15*
X143137483Y-87320587D03*
D13*
X139327483Y-84780587D03*
D14*
X138057483Y-87320587D03*
X148217483Y-87320587D03*
D13*
X121547403Y-82240587D03*
D14*
X119007403Y-87320587D03*
D13*
X127897403Y-84780587D03*
D14*
X129167403Y-87320587D03*
D15*
X124087403Y-87320587D03*
D13*
X126627403Y-82240587D03*
D15*
X124087403Y-87320587D03*
D13*
X120277403Y-84780587D03*
D14*
X119007403Y-87320587D03*
X129167403Y-87320587D03*
D13*
X102497323Y-82240587D03*
D14*
X99957323Y-87320587D03*
D13*
X108847323Y-84780587D03*
D14*
X110117323Y-87320587D03*
D15*
X105037323Y-87320587D03*
D13*
X107577323Y-82240587D03*
D15*
X105037323Y-87320587D03*
D13*
X101227323Y-84780587D03*
D14*
X99957323Y-87320587D03*
X110117323Y-87320587D03*
D13*
X83447243Y-82240587D03*
D14*
X80907243Y-87320587D03*
D13*
X89797243Y-84780587D03*
D14*
X91067243Y-87320587D03*
D15*
X85987243Y-87320587D03*
D13*
X88527243Y-82240587D03*
D15*
X85987243Y-87320587D03*
D13*
X82177243Y-84780587D03*
D14*
X80907243Y-87320587D03*
X91067243Y-87320587D03*
D13*
X178697603Y-63190467D03*
D14*
X176157603Y-68270467D03*
D13*
X185047603Y-65730467D03*
D14*
X186317603Y-68270467D03*
D15*
X181237603Y-68270467D03*
D13*
X183777603Y-63190467D03*
D15*
X181237603Y-68270467D03*
D13*
X177427603Y-65730467D03*
D14*
X176157603Y-68270467D03*
X186317603Y-68270467D03*
D13*
X159647523Y-63190467D03*
D14*
X157107523Y-68270467D03*
D13*
X165997523Y-65730467D03*
D14*
X167267523Y-68270467D03*
D15*
X162187523Y-68270467D03*
D13*
X164727523Y-63190467D03*
D15*
X162187523Y-68270467D03*
D13*
X158377523Y-65730467D03*
D14*
X157107523Y-68270467D03*
X167267523Y-68270467D03*
D13*
X140597443Y-63190467D03*
D14*
X138057443Y-68270467D03*
D13*
X146947443Y-65730467D03*
D14*
X148217443Y-68270467D03*
D15*
X143137443Y-68270467D03*
D13*
X145677443Y-63190467D03*
D15*
X143137443Y-68270467D03*
D13*
X139327443Y-65730467D03*
D14*
X138057443Y-68270467D03*
X148217443Y-68270467D03*
D13*
X121547363Y-63190467D03*
D14*
X119007363Y-68270467D03*
D13*
X127897363Y-65730467D03*
D14*
X129167363Y-68270467D03*
D15*
X124087363Y-68270467D03*
D13*
X126627363Y-63190467D03*
D15*
X124087363Y-68270467D03*
D13*
X120277363Y-65730467D03*
D14*
X119007363Y-68270467D03*
X129167363Y-68270467D03*
D13*
X102497283Y-63190467D03*
D14*
X99957283Y-68270467D03*
D13*
X108847283Y-65730467D03*
D14*
X110117283Y-68270467D03*
D15*
X105037283Y-68270467D03*
D13*
X107577283Y-63190467D03*
D15*
X105037283Y-68270467D03*
D13*
X101227283Y-65730467D03*
D14*
X99957283Y-68270467D03*
X110117283Y-68270467D03*
D13*
X83447203Y-63190467D03*
D14*
X80907203Y-68270467D03*
D13*
X89797203Y-65730467D03*
D14*
X91067203Y-68270467D03*
D15*
X85987203Y-68270467D03*
D13*
X88527203Y-63190467D03*
D15*
X85987203Y-68270467D03*
D13*
X82177203Y-65730467D03*
D14*
X80907203Y-68270467D03*
X91067203Y-68270467D03*
D23*
X191691430Y-129468857D03*
G36*
G01*
X190891430Y-120997857D02*
X192491430Y-120997857D01*
G75*
G02*
X192542430Y-121048857I0J-51000D01*
G01*
X192542430Y-122648857D01*
G75*
G02*
X192491430Y-122699857I-51000J0D01*
G01*
X190891430Y-122699857D01*
G75*
G02*
X190840430Y-122648857I0J51000D01*
G01*
X190840430Y-121048857D01*
G75*
G02*
X190891430Y-120997857I51000J0D01*
G01*
G37*
G36*
G01*
X176301500Y-115095467D02*
X176301500Y-116695467D01*
G75*
G02*
X176250500Y-116746467I-51000J0D01*
G01*
X174650500Y-116746467D01*
G75*
G02*
X174599500Y-116695467I0J51000D01*
G01*
X174599500Y-115095467D01*
G75*
G02*
X174650500Y-115044467I51000J0D01*
G01*
X176250500Y-115044467D01*
G75*
G02*
X176301500Y-115095467I0J-51000D01*
G01*
G37*
X167830500Y-115895467D03*
X153852828Y-129468592D03*
G36*
G01*
X153052828Y-120997592D02*
X154652828Y-120997592D01*
G75*
G02*
X154703828Y-121048592I0J-51000D01*
G01*
X154703828Y-122648592D01*
G75*
G02*
X154652828Y-122699592I-51000J0D01*
G01*
X153052828Y-122699592D01*
G75*
G02*
X153001828Y-122648592I0J51000D01*
G01*
X153001828Y-121048592D01*
G75*
G02*
X153052828Y-120997592I51000J0D01*
G01*
G37*
X151471578Y-121848656D03*
G36*
G01*
X152271578Y-130319656D02*
X150671578Y-130319656D01*
G75*
G02*
X150620578Y-130268656I0J51000D01*
G01*
X150620578Y-128668656D01*
G75*
G02*
X150671578Y-128617656I51000J0D01*
G01*
X152271578Y-128617656D01*
G75*
G02*
X152322578Y-128668656I0J-51000D01*
G01*
X152322578Y-130268656D01*
G75*
G02*
X152271578Y-130319656I-51000J0D01*
G01*
G37*
X132421578Y-121848656D03*
G36*
G01*
X133221578Y-130319656D02*
X131621578Y-130319656D01*
G75*
G02*
X131570578Y-130268656I0J51000D01*
G01*
X131570578Y-128668656D01*
G75*
G02*
X131621578Y-128617656I51000J0D01*
G01*
X133221578Y-128617656D01*
G75*
G02*
X133272578Y-128668656I0J-51000D01*
G01*
X133272578Y-130268656D01*
G75*
G02*
X133221578Y-130319656I-51000J0D01*
G01*
G37*
X113371578Y-121848656D03*
G36*
G01*
X114171578Y-130319656D02*
X112571578Y-130319656D01*
G75*
G02*
X112520578Y-130268656I0J51000D01*
G01*
X112520578Y-128668656D01*
G75*
G02*
X112571578Y-128617656I51000J0D01*
G01*
X114171578Y-128617656D01*
G75*
G02*
X114222578Y-128668656I0J-51000D01*
G01*
X114222578Y-130268656D01*
G75*
G02*
X114171578Y-130319656I-51000J0D01*
G01*
G37*
X94321578Y-121848656D03*
G36*
G01*
X95121578Y-130319656D02*
X93521578Y-130319656D01*
G75*
G02*
X93470578Y-130268656I0J51000D01*
G01*
X93470578Y-128668656D01*
G75*
G02*
X93521578Y-128617656I51000J0D01*
G01*
X95121578Y-128617656D01*
G75*
G02*
X95172578Y-128668656I0J-51000D01*
G01*
X95172578Y-130268656D01*
G75*
G02*
X95121578Y-130319656I-51000J0D01*
G01*
G37*
X172902781Y-102917722D03*
G36*
G01*
X173702781Y-111388722D02*
X172102781Y-111388722D01*
G75*
G02*
X172051781Y-111337722I0J51000D01*
G01*
X172051781Y-109737722D01*
G75*
G02*
X172102781Y-109686722I51000J0D01*
G01*
X173702781Y-109686722D01*
G75*
G02*
X173753781Y-109737722I0J-51000D01*
G01*
X173753781Y-111337722D01*
G75*
G02*
X173702781Y-111388722I-51000J0D01*
G01*
G37*
X170521529Y-102917722D03*
G36*
G01*
X171321529Y-111388722D02*
X169721529Y-111388722D01*
G75*
G02*
X169670529Y-111337722I0J51000D01*
G01*
X169670529Y-109737722D01*
G75*
G02*
X169721529Y-109686722I51000J0D01*
G01*
X171321529Y-109686722D01*
G75*
G02*
X171372529Y-109737722I0J-51000D01*
G01*
X171372529Y-111337722D01*
G75*
G02*
X171321529Y-111388722I-51000J0D01*
G01*
G37*
X151471578Y-102798656D03*
G36*
G01*
X152271578Y-111269656D02*
X150671578Y-111269656D01*
G75*
G02*
X150620578Y-111218656I0J51000D01*
G01*
X150620578Y-109618656D01*
G75*
G02*
X150671578Y-109567656I51000J0D01*
G01*
X152271578Y-109567656D01*
G75*
G02*
X152322578Y-109618656I0J-51000D01*
G01*
X152322578Y-111218656D01*
G75*
G02*
X152271578Y-111269656I-51000J0D01*
G01*
G37*
X132421578Y-102798656D03*
G36*
G01*
X133221578Y-111269656D02*
X131621578Y-111269656D01*
G75*
G02*
X131570578Y-111218656I0J51000D01*
G01*
X131570578Y-109618656D01*
G75*
G02*
X131621578Y-109567656I51000J0D01*
G01*
X133221578Y-109567656D01*
G75*
G02*
X133272578Y-109618656I0J-51000D01*
G01*
X133272578Y-111218656D01*
G75*
G02*
X133221578Y-111269656I-51000J0D01*
G01*
G37*
X113371578Y-102798656D03*
G36*
G01*
X114171578Y-111269656D02*
X112571578Y-111269656D01*
G75*
G02*
X112520578Y-111218656I0J51000D01*
G01*
X112520578Y-109618656D01*
G75*
G02*
X112571578Y-109567656I51000J0D01*
G01*
X114171578Y-109567656D01*
G75*
G02*
X114222578Y-109618656I0J-51000D01*
G01*
X114222578Y-111218656D01*
G75*
G02*
X114171578Y-111269656I-51000J0D01*
G01*
G37*
X94321578Y-102798656D03*
G36*
G01*
X95121578Y-111269656D02*
X93521578Y-111269656D01*
G75*
G02*
X93470578Y-111218656I0J51000D01*
G01*
X93470578Y-109618656D01*
G75*
G02*
X93521578Y-109567656I51000J0D01*
G01*
X95121578Y-109567656D01*
G75*
G02*
X95172578Y-109618656I0J-51000D01*
G01*
X95172578Y-111218656D01*
G75*
G02*
X95121578Y-111269656I-51000J0D01*
G01*
G37*
X172902828Y-83748656D03*
G36*
G01*
X173702828Y-92219656D02*
X172102828Y-92219656D01*
G75*
G02*
X172051828Y-92168656I0J51000D01*
G01*
X172051828Y-90568656D01*
G75*
G02*
X172102828Y-90517656I51000J0D01*
G01*
X173702828Y-90517656D01*
G75*
G02*
X173753828Y-90568656I0J-51000D01*
G01*
X173753828Y-92168656D01*
G75*
G02*
X173702828Y-92219656I-51000J0D01*
G01*
G37*
X170521578Y-83748656D03*
G36*
G01*
X171321578Y-92219656D02*
X169721578Y-92219656D01*
G75*
G02*
X169670578Y-92168656I0J51000D01*
G01*
X169670578Y-90568656D01*
G75*
G02*
X169721578Y-90517656I51000J0D01*
G01*
X171321578Y-90517656D01*
G75*
G02*
X171372578Y-90568656I0J-51000D01*
G01*
X171372578Y-92168656D01*
G75*
G02*
X171321578Y-92219656I-51000J0D01*
G01*
G37*
X151471578Y-83748656D03*
G36*
G01*
X152271578Y-92219656D02*
X150671578Y-92219656D01*
G75*
G02*
X150620578Y-92168656I0J51000D01*
G01*
X150620578Y-90568656D01*
G75*
G02*
X150671578Y-90517656I51000J0D01*
G01*
X152271578Y-90517656D01*
G75*
G02*
X152322578Y-90568656I0J-51000D01*
G01*
X152322578Y-92168656D01*
G75*
G02*
X152271578Y-92219656I-51000J0D01*
G01*
G37*
X132421578Y-83748656D03*
G36*
G01*
X133221578Y-92219656D02*
X131621578Y-92219656D01*
G75*
G02*
X131570578Y-92168656I0J51000D01*
G01*
X131570578Y-90568656D01*
G75*
G02*
X131621578Y-90517656I51000J0D01*
G01*
X133221578Y-90517656D01*
G75*
G02*
X133272578Y-90568656I0J-51000D01*
G01*
X133272578Y-92168656D01*
G75*
G02*
X133221578Y-92219656I-51000J0D01*
G01*
G37*
X113371576Y-83748656D03*
G36*
G01*
X114171576Y-92219656D02*
X112571576Y-92219656D01*
G75*
G02*
X112520576Y-92168656I0J51000D01*
G01*
X112520576Y-90568656D01*
G75*
G02*
X112571576Y-90517656I51000J0D01*
G01*
X114171576Y-90517656D01*
G75*
G02*
X114222576Y-90568656I0J-51000D01*
G01*
X114222576Y-92168656D01*
G75*
G02*
X114171576Y-92219656I-51000J0D01*
G01*
G37*
X94321578Y-83748656D03*
G36*
G01*
X95121578Y-92219656D02*
X93521578Y-92219656D01*
G75*
G02*
X93470578Y-92168656I0J51000D01*
G01*
X93470578Y-90568656D01*
G75*
G02*
X93521578Y-90517656I51000J0D01*
G01*
X95121578Y-90517656D01*
G75*
G02*
X95172578Y-90568656I0J-51000D01*
G01*
X95172578Y-92168656D01*
G75*
G02*
X95121578Y-92219656I-51000J0D01*
G01*
G37*
X172902828Y-64698656D03*
G36*
G01*
X173702828Y-73169656D02*
X172102828Y-73169656D01*
G75*
G02*
X172051828Y-73118656I0J51000D01*
G01*
X172051828Y-71518656D01*
G75*
G02*
X172102828Y-71467656I51000J0D01*
G01*
X173702828Y-71467656D01*
G75*
G02*
X173753828Y-71518656I0J-51000D01*
G01*
X173753828Y-73118656D01*
G75*
G02*
X173702828Y-73169656I-51000J0D01*
G01*
G37*
X170521578Y-64698656D03*
G36*
G01*
X171321578Y-73169656D02*
X169721578Y-73169656D01*
G75*
G02*
X169670578Y-73118656I0J51000D01*
G01*
X169670578Y-71518656D01*
G75*
G02*
X169721578Y-71467656I51000J0D01*
G01*
X171321578Y-71467656D01*
G75*
G02*
X171372578Y-71518656I0J-51000D01*
G01*
X171372578Y-73118656D01*
G75*
G02*
X171321578Y-73169656I-51000J0D01*
G01*
G37*
X151471578Y-64698656D03*
G36*
G01*
X152271578Y-73169656D02*
X150671578Y-73169656D01*
G75*
G02*
X150620578Y-73118656I0J51000D01*
G01*
X150620578Y-71518656D01*
G75*
G02*
X150671578Y-71467656I51000J0D01*
G01*
X152271578Y-71467656D01*
G75*
G02*
X152322578Y-71518656I0J-51000D01*
G01*
X152322578Y-73118656D01*
G75*
G02*
X152271578Y-73169656I-51000J0D01*
G01*
G37*
X132421578Y-64698656D03*
G36*
G01*
X133221578Y-73169656D02*
X131621578Y-73169656D01*
G75*
G02*
X131570578Y-73118656I0J51000D01*
G01*
X131570578Y-71518656D01*
G75*
G02*
X131621578Y-71467656I51000J0D01*
G01*
X133221578Y-71467656D01*
G75*
G02*
X133272578Y-71518656I0J-51000D01*
G01*
X133272578Y-73118656D01*
G75*
G02*
X133221578Y-73169656I-51000J0D01*
G01*
G37*
X113371576Y-64698656D03*
G36*
G01*
X114171576Y-73169656D02*
X112571576Y-73169656D01*
G75*
G02*
X112520576Y-73118656I0J51000D01*
G01*
X112520576Y-71518656D01*
G75*
G02*
X112571576Y-71467656I51000J0D01*
G01*
X114171576Y-71467656D01*
G75*
G02*
X114222576Y-71518656I0J-51000D01*
G01*
X114222576Y-73118656D01*
G75*
G02*
X114171576Y-73169656I-51000J0D01*
G01*
G37*
X94321578Y-64698656D03*
G36*
G01*
X95121578Y-73169656D02*
X93521578Y-73169656D01*
G75*
G02*
X93470578Y-73118656I0J51000D01*
G01*
X93470578Y-71518656D01*
G75*
G02*
X93521578Y-71467656I51000J0D01*
G01*
X95121578Y-71467656D01*
G75*
G02*
X95172578Y-71518656I0J-51000D01*
G01*
X95172578Y-73118656D01*
G75*
G02*
X95121578Y-73169656I-51000J0D01*
G01*
G37*
M02*
