M48
; DRILL file {KiCad (5.1.10)-1} date 08/01/21 01:35:43
; FORMAT={-:-/ absolute / inch / decimal}
; #@! TF.CreationDate,2021-08-01T01:35:43+09:00
; #@! TF.GenerationSoftware,Kicad,Pcbnew,(5.1.10)-1
; #@! TF.FileFunction,Plated,1,2,PTH
FMAT,2
INCH
T1C0.0157
T2C0.0315
T3C0.0320
T4C0.0394
T5C0.0579
T6C0.0591
%
G90
G05
T1
X3.2353Y-3.6828
X3.89Y-3.685
X3.985Y-3.7114
X4.735Y-3.7399
X5.485Y-3.7684
X6.235Y-3.797
X6.985Y-3.8255
X7.58Y-4.405
X7.6075Y-4.435
T2
X3.7134Y-2.5472
X3.7134Y-2.8472
X3.7134Y-3.2972
X3.7134Y-3.5972
X3.7134Y-4.0472
X3.7134Y-4.3472
X3.7134Y-4.7972
X3.7134Y-5.0972
X4.4634Y-2.5472
X4.4634Y-2.8472
X4.4634Y-3.2972
X4.4634Y-3.5972
X4.4634Y-4.0472
X4.4634Y-4.3472
X4.4634Y-4.7972
X4.4634Y-5.0972
X5.2134Y-2.5472
X5.2134Y-2.8472
X5.2134Y-3.2972
X5.2134Y-3.5972
X5.2134Y-4.0472
X5.2134Y-4.3472
X5.2134Y-4.7972
X5.2134Y-5.0972
X5.9634Y-2.5472
X5.9634Y-2.8472
X5.9634Y-3.2972
X5.9634Y-3.5972
X5.9634Y-4.0472
X5.9634Y-4.3472
X5.9634Y-4.7972
X5.9634Y-5.0972
X6.0572Y-4.7972
X6.0572Y-5.0972
X6.6075Y-4.5628
X6.7134Y-4.0519
X6.7134Y-4.3519
X6.7134Y-2.5472
X6.7134Y-2.8472
X6.7134Y-3.2972
X6.7134Y-3.5972
X6.8072Y-4.0519
X6.8072Y-4.3519
X6.8072Y-2.5472
X6.8072Y-2.8472
X6.8072Y-3.2972
X6.8072Y-3.5972
X6.9075Y-4.5628
T3
X7.5857Y-2.483
X7.5857Y-2.583
X7.5857Y-2.683
X7.5857Y-2.783
X7.5857Y-2.883
X7.5857Y-2.983
X7.5857Y-3.083
X7.5857Y-3.183
X7.5857Y-3.283
X7.5857Y-3.383
X7.5857Y-3.483
X7.5857Y-3.583
X8.1849Y-2.483
X8.1849Y-2.583
X8.1849Y-2.683
X8.1849Y-2.783
X8.1849Y-2.883
X8.1849Y-2.983
X8.1849Y-3.083
X8.1849Y-3.183
X8.1849Y-3.283
X8.1849Y-3.383
X8.1849Y-3.483
X8.1849Y-3.583
T4
X7.7879Y-4.6425
X7.7879Y-5.2134
X7.8863Y-4.6425
X7.9847Y-4.6425
X7.9847Y-5.2134
T5
X3.2353Y-2.5878
X3.2353Y-3.3378
X3.2353Y-4.0878
X3.2353Y-4.8378
X3.2853Y-2.4878
X3.2853Y-3.2378
X3.2853Y-3.9878
X3.2853Y-4.7378
X3.4853Y-2.4878
X3.4853Y-3.2378
X3.4853Y-3.9878
X3.4853Y-4.7378
X3.5353Y-2.5878
X3.5353Y-3.3378
X3.5353Y-4.0878
X3.5353Y-4.8378
X3.9853Y-2.5878
X3.9853Y-3.3378
X3.9853Y-4.0878
X3.9853Y-4.8378
X4.0353Y-2.4878
X4.0353Y-3.2378
X4.0353Y-3.9878
X4.0353Y-4.7378
X4.2353Y-2.4878
X4.2353Y-3.2378
X4.2353Y-3.9878
X4.2353Y-4.7378
X4.2853Y-2.5878
X4.2853Y-3.3378
X4.2853Y-4.0878
X4.2853Y-4.8378
X4.7353Y-2.5878
X4.7353Y-3.3378
X4.7353Y-4.0878
X4.7353Y-4.8378
X4.7853Y-2.4878
X4.7853Y-3.2378
X4.7853Y-3.9878
X4.7853Y-4.7378
X4.9853Y-2.4878
X4.9853Y-3.2378
X4.9853Y-3.9878
X4.9853Y-4.7378
X5.0353Y-2.5878
X5.0353Y-3.3378
X5.0353Y-4.0878
X5.0353Y-4.8378
X5.4853Y-2.5878
X5.4853Y-3.3378
X5.4853Y-4.0878
X5.4853Y-4.8378
X5.5353Y-2.4878
X5.5353Y-3.2378
X5.5353Y-3.9878
X5.5353Y-4.7378
X5.7353Y-2.4878
X5.7353Y-3.2378
X5.7353Y-3.9878
X5.7353Y-4.7378
X5.7853Y-2.5878
X5.7853Y-3.3378
X5.7853Y-4.0878
X5.7853Y-4.8378
X6.2353Y-4.0878
X6.2353Y-5.0378
X6.2353Y-2.5878
X6.2353Y-3.3378
X6.2853Y-3.9878
X6.2853Y-5.1378
X6.2853Y-2.4878
X6.2853Y-3.2378
X6.4853Y-3.9878
X6.4853Y-5.1378
X6.4853Y-2.4878
X6.4853Y-3.2378
X6.5353Y-4.0878
X6.5353Y-5.0378
X6.5353Y-2.5878
X6.5353Y-3.3378
X6.6103Y-4.8378
X6.6603Y-4.7378
X6.8603Y-4.7378
X6.9103Y-4.8378
X6.9853Y-5.0378
X6.9853Y-2.5878
X6.9853Y-3.3378
X6.9853Y-4.0878
X7.0353Y-5.1378
X7.0353Y-2.4878
X7.0353Y-3.2378
X7.0353Y-3.9878
X7.2353Y-5.1378
X7.2353Y-2.4878
X7.2353Y-3.2378
X7.2353Y-3.9878
X7.2853Y-5.0378
X7.2853Y-2.5878
X7.2853Y-3.3378
X7.2853Y-4.0878
T4
G00X7.845Y-4.2637
M15
G01X7.8253Y-4.2637
M16
G05
G00X7.845Y-4.498
M15
G01X7.8253Y-4.498
M16
G05
G00X8.0024Y-4.2637
M15
G01X7.9828Y-4.2637
M16
G05
G00X8.0024Y-4.498
M15
G01X7.9828Y-4.498
M16
G05
G00X8.1206Y-4.2637
M15
G01X8.1009Y-4.2637
M16
G05
G00X8.1206Y-4.498
M15
G01X8.1009Y-4.498
M16
G05
T6
G00X7.6658Y-4.9122
M15
G01X7.6658Y-4.9634
M16
G05
G00X8.1068Y-4.9122
M15
G01X8.1068Y-4.9634
M16
G05
T0
M30
