M48
; DRILL file {KiCad (5.1.10)-1} date 08/19/21 11:37:32
; FORMAT={-:-/ absolute / inch / decimal}
; #@! TF.CreationDate,2021-08-19T11:37:32+09:00
; #@! TF.GenerationSoftware,Kicad,Pcbnew,(5.1.10)-1
; #@! TF.FileFunction,NonPlated,1,2,NPTH
FMAT,2
INCH
T1C0.0315
T2C0.0630
T3C0.0689
T4C0.0827
T5C0.0866
T6C0.1200
T7C0.1570
%
G90
G05
T1
X7.8745Y-4.3753
X8.1107Y-4.3753
T3
X3.1853Y-2.6878
X3.1853Y-2.6878
X3.1853Y-3.4378
X3.1853Y-3.4378
X3.1853Y-4.1878
X3.1853Y-4.1878
X3.1853Y-4.9378
X3.1853Y-4.9378
X3.5853Y-2.6878
X3.5853Y-2.6878
X3.5853Y-3.4378
X3.5853Y-3.4378
X3.5853Y-4.1878
X3.5853Y-4.1878
X3.5853Y-4.9378
X3.5853Y-4.9378
X3.9353Y-2.6878
X3.9353Y-2.6878
X3.9353Y-3.4378
X3.9353Y-3.4378
X3.9353Y-4.1878
X3.9353Y-4.1878
X3.9353Y-4.9378
X3.9353Y-4.9378
X4.3353Y-2.6878
X4.3353Y-2.6878
X4.3353Y-3.4378
X4.3353Y-3.4378
X4.3353Y-4.1878
X4.3353Y-4.1878
X4.3353Y-4.9378
X4.3353Y-4.9378
X4.6853Y-2.6878
X4.6853Y-2.6878
X4.6853Y-3.4378
X4.6853Y-3.4378
X4.6853Y-4.1878
X4.6853Y-4.1878
X4.6853Y-4.9378
X4.6853Y-4.9378
X5.0853Y-2.6878
X5.0853Y-2.6878
X5.0853Y-3.4378
X5.0853Y-3.4378
X5.0853Y-4.1878
X5.0853Y-4.1878
X5.0853Y-4.9378
X5.0853Y-4.9378
X5.4353Y-2.6878
X5.4353Y-2.6878
X5.4353Y-3.4378
X5.4353Y-3.4378
X5.4353Y-4.1878
X5.4353Y-4.1878
X5.4353Y-4.9378
X5.4353Y-4.9378
X5.8353Y-2.6878
X5.8353Y-2.6878
X5.8353Y-3.4378
X5.8353Y-3.4378
X5.8353Y-4.1878
X5.8353Y-4.1878
X5.8353Y-4.9378
X5.8353Y-4.9378
X6.1853Y-4.1878
X6.1853Y-4.1878
X6.1853Y-4.9378
X6.1853Y-4.9378
X6.1853Y-2.6878
X6.1853Y-2.6878
X6.1853Y-3.4378
X6.1853Y-3.4378
X6.5603Y-4.9378
X6.5603Y-4.9378
X6.5853Y-4.1878
X6.5853Y-4.1878
X6.5853Y-4.9378
X6.5853Y-4.9378
X6.5853Y-2.6878
X6.5853Y-2.6878
X6.5853Y-3.4378
X6.5853Y-3.4378
X6.9353Y-4.9378
X6.9353Y-4.9378
X6.9353Y-2.6878
X6.9353Y-2.6878
X6.9353Y-3.4378
X6.9353Y-3.4378
X6.9353Y-4.1878
X6.9353Y-4.1878
X6.9603Y-4.9378
X6.9603Y-4.9378
X7.3353Y-4.9378
X7.3353Y-4.9378
X7.3353Y-2.6878
X7.3353Y-2.6878
X7.3353Y-3.4378
X7.3353Y-3.4378
X7.3353Y-4.1878
X7.3353Y-4.1878
T4
X7.8853Y-4.9378
T5
X3.7603Y-3.0628
X3.7603Y-4.5628
X7.3697Y-3.0628
X7.5103Y-4.5628
T6
X6.2916Y-5.2128
X7.2291Y-5.2128
T7
X3.3853Y-2.6878
X3.3853Y-2.6878
X3.3853Y-3.4378
X3.3853Y-3.4378
X3.3853Y-4.1878
X3.3853Y-4.1878
X3.3853Y-4.9378
X3.3853Y-4.9378
X4.1353Y-2.6878
X4.1353Y-2.6878
X4.1353Y-3.4378
X4.1353Y-3.4378
X4.1353Y-4.1878
X4.1353Y-4.1878
X4.1353Y-4.9378
X4.1353Y-4.9378
X4.8853Y-2.6878
X4.8853Y-2.6878
X4.8853Y-3.4378
X4.8853Y-3.4378
X4.8853Y-4.1878
X4.8853Y-4.1878
X4.8853Y-4.9378
X4.8853Y-4.9378
X5.6353Y-2.6878
X5.6353Y-2.6878
X5.6353Y-3.4378
X5.6353Y-3.4378
X5.6353Y-4.1878
X5.6353Y-4.1878
X5.6353Y-4.9378
X5.6353Y-4.9378
X6.2916Y-4.6128
X6.3853Y-4.1878
X6.3853Y-4.1878
X6.3853Y-4.9378
X6.3853Y-4.9378
X6.3853Y-2.6878
X6.3853Y-2.6878
X6.3853Y-3.4378
X6.3853Y-3.4378
X6.7603Y-4.9378
X6.7603Y-4.9378
X7.1353Y-4.9378
X7.1353Y-4.9378
X7.1353Y-2.6878
X7.1353Y-2.6878
X7.1353Y-3.4378
X7.1353Y-3.4378
X7.1353Y-4.1878
X7.1353Y-4.1878
X7.2291Y-4.6128
T2
G00X7.8853Y-4.7548
M15
G01X7.8853Y-4.7666
M16
G05
G00X7.8853Y-5.1091
M15
G01X7.8853Y-5.1209
M16
G05
T0
M30
